<?xml version="1.0" encoding="utf-8"?>
<!-- Generator: Adobe Illustrator 21.0.2, SVG Export Plug-In . SVG Version: 6.00 Build 0)  -->
<svg version="1.1" id="Calque_1" xmlns="http://www.w3.org/2000/svg" xmlns:xlink="http://www.w3.org/1999/xlink" x="0px" y="0px"
	 viewBox="0 0 50 50" style="enable-background:new 0 0 50 50;" xml:space="preserve">
<style type="text/css">
	.st0{fill:#46CE69;}
</style>
<path class="st0" d="M25.5,16.6c-1.4,0-2.9,0.2-4.2,0.5c-0.4,0.1-0.7,0.5-0.6,0.9s0.5,0.7,0.9,0.6c1.3-0.3,2.6-0.4,3.9-0.4
	c9.5,0,17.2,7.5,17.7,16.9h-7.3c-0.4,0-0.8,0.4-0.8,0.8s0.4,0.8,0.8,0.8H44c0.2,0,0.4-0.1,0.6-0.2c0.1-0.1,0.2-0.3,0.2-0.6
	C44.7,25.2,36.1,16.6,25.5,16.6z"/>
<path class="st0" d="M28.6,29.8c-0.3-0.3-0.8-0.3-1.1,0c-0.3,0.3-0.3,0.8,0,1.1l4,4.2H20.1c-0.1,0-0.2,0-0.2,0c-0.1,0-0.1,0-0.2,0
	c-2.8,0-5-2.3-5-5V30c0-1.2,0-11.6,0-12.6c0-0.4-0.4-0.8-0.8-0.8h-1.5c-0.8,0-1.5-0.6-1.6-1.4v-0.1c0-0.1,0-0.3,0-0.3
	c0-1.1-0.3-2-1.4-2.7H14c0.7,0,1.3,0.1,1.8,0.4c0.2,0.1,0.3,0.1,0.5,0.1h0.1c0.4,0,0.8-0.4,0.8-0.8V8.4c2,0.3,3.6,1.9,3.9,3.9H18
	c-0.1,0-0.2,0-0.3,0.1c-0.1,0-0.2,0-0.3,0.1c-0.4,0.2-0.5,0.7-0.2,1.1c0.9,1.4,0.8,3.2,0.8,3.8v6.8c0,0.2,0.1,0.5,0.3,0.6
	s0.4,0.2,0.6,0.2c0.4-0.1,0.6-0.1,0.9-0.1c1.6,0,3.1,0.7,4.1,2.1l1.7,1.7c0,0.3,0.2,0.3,0.4,0.3s0.4-0.1,0.5-0.2
	c0.3-0.3,0.3-0.8,0-1.1L24.9,26c-1.3-1.8-3.3-2.8-5.5-2.7v-5.9c0.1-0.7,0.1-2.1-0.4-3.6h3c0.4,0,0.8-0.4,0.8-0.8
	c0-3.5-2.8-6.4-6.4-6.4c-0.4,0-0.8,0.4-0.8,0.8v3.1c-0.5-0.2-1-0.2-1.6-0.2H6.8c-0.4,0-0.7,0.3-0.8,0.7c-0.1,0.4,0.2,0.8,0.6,0.9
	c1.9,0.5,2.5,1.7,2.5,2.7c0,0.4,0,0.6,0.1,0.8c0.3,1.5,1.6,2.7,3.1,2.7H13c0,0.7,0,1.8,0,3c-4.1,3.6-6.8,9.5-6.8,14.7
	c0,0.4,0.4,0.8,0.8,0.8h6.6c0.4,0,0.8-0.4,0.8-0.8S14.1,35,13.6,35H7.9c0.2-4.1,2.2-8.6,5.2-11.8c0,3.3,0,6.7,0,6.7V30
	c0.1,3.6,3,6.5,6.6,6.5h0.1h0.1h3v5.2c0,0.4,0.4,0.8,0.8,0.8s0.8-0.4,0.8-0.8v-5.2h4.4v5.2c0,0.4,0.4,0.8,0.8,0.8s0.8-0.4,0.8-0.8
	v-5.2h2.9c0.3,0,0.6-0.2,0.7-0.5c0.1-0.3,0.1-0.6-0.2-0.9L28.6,29.8z"/>
<circle class="st0" cx="13.5" cy="14.4" r="1.1"/>
</svg>
