<?xml version="1.0" encoding="utf-8"?>
<!-- Generator: Adobe Illustrator 21.0.1, SVG Export Plug-In . SVG Version: 6.00 Build 0)  -->
<svg version="1.1" id="Calque_1" xmlns="http://www.w3.org/2000/svg" xmlns:xlink="http://www.w3.org/1999/xlink" x="0px" y="0px"
	 viewBox="0 0 200 200" style="enable-background:new 0 0 200 200;" xml:space="preserve">
<style type="text/css">
	.st0{fill:#1E3659;}
	.st1{fill:#FFFFFF;}
	.st2{fill:#231F20;}
	.st3{fill:#46CE69;}
	.st4{fill:none;stroke:#1E3659;stroke-miterlimit:10;}
</style>
<path class="st0" d="M44.8,130.2c2.7-3.2,22.2-84.8,59.6-83.5c37.4,1.3,43.1,58.3,54.8,68.9s105.9,34,122.8,42.7
	c16.9,8.7-40.4,84.6-187.1,88.8c-146.7,4.2-176.7-44.4-176.7-48.2C-81.8,195.1,41.9,133.6,44.8,130.2z"/>
<path class="st1" d="M85.4,91.4c0,0,3,13.5,5.2,16.2s11.7-13.6,12.5-14.1c0.7-0.5-2.7-9-7.9-8.8C90,85,85.7,89.3,85.4,91.4z"/>
<path class="st2" d="M117.7,84.4c1.6-0.4,2.9,2.4,2.2,3.5c-0.9,1.4-3.2,2.6-3.9,1.8C115.5,89.3,113.7,85.4,117.7,84.4z"/>
<path class="st2" d="M72.8,89.9c1.1,0.7,2.9-3,3-4.2S74.4,84,73.3,85C72.3,85.9,70.3,88.2,72.8,89.9z"/>
<path class="st3" d="M109.2,78.8c4,2.3,12.1,0.6,13-2.9c1-3.5-8.5-6.8-13-3.1C104.7,76.5,107.8,78,109.2,78.8z"/>
<path class="st3" d="M76.5,74.2c3.9-2.6,6.6-1.3,6.4,0.7c-0.2,2-3.6,6.6-7,4.4S73.8,76,76.5,74.2z"/>
<path class="st1" d="M78.8,72.8"/>
<path class="st3" d="M145.7,132.9c-2.2,11.8-28.8,22.5-53.4,16.2s-32.6-14.4-31.7-23.9c0.9-9.5,17.8-0.7,30.4-0.5
	C103.7,124.9,149.1,114.3,145.7,132.9z"/>
<path class="st4" d="M85.6,56.9c0,0-44.4-32.1-97.2-17.3"/>
<path class="st4" d="M98.7,54.3c0,0-15.7-23.3-58.8-7.6"/>
<path class="st4" d="M112.7,59c18.6-24.5,57.5-28.7,76.9-25.8"/>
<path class="st4" d="M105.7,52.2c0,0,23.6-26.6,49.3-15.2"/>
<path class="st0" d="M-20.5,41.3c0,0,6.5,3.3,9.7,1.9c3.2-1.4,6-5.3,6-5.3S-13.2,33-20.5,41.3z"/>
<path class="st0" d="M34.7,47.8c0,0,2-3.2,4.8-3.5c2.8-0.3,5.3,0.7,5.3,0.7S43.3,50.2,34.7,47.8z"/>
<path class="st0" d="M156.5,38.9c0,0-5.1,1.5-7-3.9C153,31.3,158.2,36.7,156.5,38.9z"/>
<path class="st0" d="M197.9,35.6c0,0-4.9-5.5-10.6-2.8C187.3,32.9,187.2,37.1,197.9,35.6z"/>
<path class="st1" d="M115.4,87.8c0,0,1.8-3.3,2.8-3.2c1.5,0.1,0.3,1.9,0.3,1.9L115.4,87.8z"/>
<path class="st1" d="M71.6,87.8c0.7-1.8,2.7-4.2,3.7-3C76.2,86.1,71.6,87.8,71.6,87.8z"/>
</svg>
