<?xml version="1.0" encoding="utf-8"?>
<!-- Generator: Adobe Illustrator 21.0.2, SVG Export Plug-In . SVG Version: 6.00 Build 0)  -->
<svg version="1.1" id="Calque_1" xmlns="http://www.w3.org/2000/svg" xmlns:xlink="http://www.w3.org/1999/xlink" x="0px" y="0px"
	 viewBox="0 0 44 52" style="enable-background:new 0 0 44 52;" xml:space="preserve">
<style type="text/css">
	.st0{fill:#FFFFFF;}
</style>
<path class="st0" d="M33.5,14.5h-2.5V12c0-1.4-1.1-2.5-2.5-2.5H10.5C9.1,9.5,8,10.6,8,12v22.9c0,1.4,1.1,2.5,2.5,2.5h2.5V40
	c0,1.4,1.1,2.5,2.5,2.5h17.8c1.4,0,2.5-1.1,2.5-2.5V17.1C36,15.7,34.9,14.5,33.5,14.5z M13.1,17.1v17.8h-2.5V12h17.8v2.5H15.6
	C14.2,14.5,13.1,15.7,13.1,17.1z M33.5,40H15.6V17.1h17.8V40z"/>
</svg>
