<?xml version="1.0" encoding="utf-8"?>
<!-- Generator: Adobe Illustrator 21.0.1, SVG Export Plug-In . SVG Version: 6.00 Build 0)  -->
<svg version="1.1" xmlns="http://www.w3.org/2000/svg" xmlns:xlink="http://www.w3.org/1999/xlink" x="0px" y="0px"
	 viewBox="0 0 918.4 501.1" style="enable-background:new 0 0 918.4 501.1;" xml:space="preserve">
<style type="text/css">
	.st0{display:none;}
	.st1{fill:#0A68EF;}
	.st2{fill:#1E3659;}
	.st3{fill:#FFFFFF;}
	.st4{fill:#231F20;}
	.st5{fill:none;stroke:#1E3659;stroke-miterlimit:10;}
</style>
<g id="Calque_1" class="st0">
</g>
<g id="Calque_2">
	<g>
		<path class="st1" d="M71.5,245.1v-2c0-0.8-0.4-1.4-1.2-1.8c-0.8-0.2-0.9-0.6-0.2-1.3c0.5-0.8,0.4-1.5-0.2-2l-0.5-0.3l-0.2-0.3
			c0-0.2,0-0.3,0.1-0.3c0.1,0,0.1-0.1,0.1-0.3c0.3-0.7,0.2-1.3-0.2-1.8c-0.7-0.2-0.8-0.7-0.5-1.5c0.2-0.3,0.1-0.8-0.2-1.5
			c-0.5-0.8-0.6-1.5-0.2-2c0-0.3-0.1-0.6-0.2-0.8c0-0.2-0.1-0.3-0.2-0.5c-0.2-0.2-0.2-0.3-0.2-0.5c0-0.8-0.2-1.6-0.5-2.4
			c-0.3-0.8-0.5-1.6-0.5-2.4c0-2.9-0.5-5.7-1.5-8.6c-0.3-0.8-0.6-1.8-0.7-2.8c-0.2-1-0.2-1.9-0.2-2.8c0-1-0.1-2-0.4-3
			c-0.2-1-0.5-1.9-0.9-2.8c0-0.3,0-0.6-0.1-0.9c-0.1-0.3-0.1-0.5-0.1-0.9c-0.2-0.3-0.2-0.8-0.2-1.3s-0.1-0.9-0.2-1.3
			c-0.2-0.3-0.2-0.7-0.2-1c0-0.3-0.1-0.7-0.2-1c-0.2-0.3-0.2-0.6-0.2-0.8c0-0.2-0.1-0.4-0.2-0.8c-0.3-0.7-0.5-1.2-0.5-1.5
			c0-1-0.1-2-0.2-3c-0.2-1-0.4-2-0.7-3c0-1-0.1-1.8-0.2-2.3c0-0.7-0.1-1.2-0.2-1.5c-0.3-0.8-0.6-1.7-0.7-2.6c-0.2-0.9-0.2-1.8,0-2.6
			c0-0.3-0.1-0.6-0.2-0.8c-0.3-0.8-0.5-1.6-0.6-2.4c-0.1-0.8-0.1-1.6-0.1-2.4c-0.2-0.2-0.2-0.3-0.1-0.4c0.1-0.1,0-0.2-0.1-0.4
			c-0.5-0.8-0.7-1.7-0.7-2.6c0-0.9-0.1-1.8-0.2-2.6c-0.2-0.5-0.2-1-0.2-1.6c0-0.6-0.1-1.2-0.2-1.9l-0.8-2.3c0-0.2,0-0.3-0.1-0.5
			c-0.1-0.2-0.1-0.3-0.1-0.5c-0.2-1-0.3-2-0.5-3c-0.2-1-0.1-2,0.2-3c0.2-0.2,0.1-0.6-0.2-1.3c-0.7-1-0.8-2.5-0.5-4.5
			c0.3-0.3,0.3-0.7,0-1c-0.7-1-0.7-1.8-0.2-2.5c0.5-0.7,0.4-1.5-0.2-2.5c-0.7-0.8-1-1.7-1.1-2.5c-0.1-0.8-0.2-1.7-0.4-2.5
			c-0.3-1.2-0.5-2.3-0.6-3.5c-0.1-1.2-0.3-2.3-0.6-3.5c-0.3-0.5-0.5-1-0.4-1.6c0.1-0.6,0-1.2-0.1-1.9v-0.4c0,0-0.5-1-0.5-1.6
			c0-0.6-0.1-1.2-0.3-1.9c-0.2-0.3-0.2-0.7,0-1.1c0.2-0.4,0.2-0.8,0-1.1c0-0.3-0.1-0.7-0.4-1.1c-0.3-0.4-0.4-0.8-0.4-1.1
			c0-0.8,0.2-1.8,0.5-2.8c0-0.3,0-0.7,0.1-1c0.1-0.3,0-0.7-0.1-1c-0.3-1.7-0.3-2.9,0-3.8c0.2-1.2-0.1-2.3-0.8-3.3
			c-0.3-0.5-1.2-2-1.2-2v-2.8c0,0,0.7-2.7,0.8-4c0.1-1.3,0.2-4,0.2-4v-0.5c-0.3-0.8-0.4-1.6-0.1-2.4c0.2-0.8,0.4-1.6,0.4-2.4
			c2.7-0.8,5-0.6,7,0.7c1,1,1.7,1.8,2.2,2.4c0.2,0.2,0.2,0.6,0.2,1.2c-0.2,0.8-0.1,1.9,0.2,3.4c0.2,0.2,0.2,0.5,0.2,1
			c-0.2,0.5-0.2,1-0.1,1.4c0.1,0.5,0.1,0.9,0.1,1.2c0.3,1.6,0.5,2.8,0.5,3.6c0,0.5,0.2,1,0.7,1.4c0.3,0.2,0.5,0.5,0.5,1
			c0.2,0.3,0.2,0.7,0.1,1.1c-0.1,0.4,0,0.8,0.1,1.1v2.3c0,0,1.2,1.7,1.4,2.6c0.3,0.9,0.6,2.9,0.6,2.9v1.5c0,0.9,0.3,1.5,1,2
			c0.2,0.2,0.3,0.5,0.3,1c0.2,0.5,0.3,1,0.3,1.5c0,0.5,0.2,1,0.5,1.5c0.5,0.9,0.6,1.7,0.3,2.5c-0.3,0.3-0.3,0.7,0.3,1
			c0.3,0.3,0.6,0.8,0.8,1.3c0.2,0.5,0.4,0.9,0.8,1.3c0.2,0.2,0.3,0.4,0.3,0.8c0.2,0.7,0.3,1.3,0.4,1.8c0.1,0.5,0.3,1,0.6,1.5
			c0.3,0.3,0.5,0.7,0.5,1c0,0.3,0.1,0.7,0.3,1c0.3,1.7,0.6,2.9,0.8,3.6c0,0.2,0,0.3,0.1,0.4c0.1,0.1,0.1,0.2,0.1,0.4
			c0.3,0.7,0.4,1.1,0.3,1.3l-0.3,0.3c0.3,0.5,0.5,1.1,0.4,1.7c-0.1,0.6,0,1.1,0.4,1.7c0.5,0.5,0.5,1.1,0,1.8
			c-0.2,0.2-0.1,0.7,0.3,1.5c0.8,1,1.4,2.1,1.8,3.3l-0.8,0.8c0,1,0.3,1.8,0.8,2.3c0.5,0.5,1,1,1.5,1.5c0.8,0.9,1.3,1.7,1.3,2.5
			c0,0.3,0,0.6,0.1,0.8c0.1,0.2,0.1,0.4,0.1,0.8c0.3,1,0.3,1.8,0,2.3v-0.1c0.2,0.7,0.3,1.4,0.3,2c0,0.6,0.1,1.3,0.3,2
			c0.2,1.1,0.7,1.8,1.6,2.2c0.7,0.4,1,0.8,0.8,1.4c0,0.4,0,0.9,0,0.9s-0.3,0.8-0.8,1.1c0,0.2-0.1,0.3-0.3,0.3c0,1-0.4,1.8-1.3,2.3
			c-0.2,0.2-0.3,0.3-0.3,0.4c0,0.1-0.1,0.2-0.3,0.4c0.5,0.8,1.1,1.3,1.8,1.3c0.8,0,1.3,0.3,1.5,1c0,0.3,0.2,0.7,0.5,1l0.3,0.3
			c0.3,0.7,0.7,1.7,1,3c0.2,0.3,0.3,0.7,0.5,1c0.2,0.3,0.4,0.7,0.8,1c1,1.2,1.6,4.5,1.6,4.5v0.5v1.9c0,0,0,1.3,0,1.9
			c0.2,0.8,0.4,1.6,0.6,2.3c0.2,0.7,0.5,1.4,0.6,2.2c0.2,0.2,0.2,0.3,0.2,0.5c-1.2,0.7-1.2,1.4,0,2.2c0.5,0.3,0.9,0.9,1.2,1.8
			c0.3,0.7,0.5,1.3,0.6,1.9c0.1,0.6,0.3,1.2,0.6,1.9v1.3c0.7,1,1.3,2.1,2,3.2c0.2,0.2,0.2,0.5,0.2,1c-0.3,0.7-0.4,1.2-0.1,1.7
			c0.2,0.5,0.5,1,0.6,1.5c0.2,0.2,0.2,0.6,0.2,1.2v1.2c0.7,1.7,1.3,2.8,2,3.3c0.7,0.5,1.3,0.3,1.8-0.5c0.8-1.3,1.6-2.7,2.3-4
			c0.7-1.3,1.4-2.7,2.3-4c0.5-0.8,0.9-1.8,1.3-2.8c0.3-1,0.8-2,1.3-3l3-5.3c0.3-0.3,0.5-0.7,0.5-1c0.3-1.2,0.7-2.3,1-3.4
			c0.3-1.1,0.7-2.2,1-3.4c0.3-0.8,0.6-1.7,0.9-2.6c0.3-1.3,0.8-2.5,1.3-3.6c0.2-0.5,0.6-1,0.9-1.5c0.5-0.7,0.9-1.5,1.2-2.3
			c0.3-0.7,0.6-1.3,0.9-2c0.3-0.7,0.5-1.3,0.9-2c0.2-0.3,0.2-0.7,0.1-1.1c-0.1-0.4-0.1-0.8-0.1-1.1c0-0.7,0.1-1.3,0.3-1.8
			c0.2-0.5,0.3-1,0.3-1.5c0-0.5,0.2-1,0.5-1.5c0.3-0.3,0.5-0.7,0.6-1.1c0.1-0.4,0.3-0.8,0.6-1.1c0.2-0.2,0.3-0.3,0.3-0.5
			c0.2-1,0.6-1.8,1.3-2.4c0.7-0.6,1.4-1.2,2.3-1.9c0-0.2,0.6-0.4,1.8-0.8c1-0.2,1.4-0.8,1.3-2l3.8-1.5c0.7-0.3,1.7-0.3,3,0
			c0.2,0.2,0.3,0.3,0.4,0.3c0.1,0,0.2,0.1,0.4,0.3c1.3,0.5,2.5,0,3.5-1.5c1.2,0.5,1.8,1.3,2,2.3c0.2,0.5,0.3,1,0.4,1.4
			c0.1,0.4,0.2,0.9,0.4,1.4c0.2,0.3,0.3,0.8,0.3,1.5c0.2,0.3,0.3,0.6,0.3,0.9c0,0.3,0.1,0.5,0.3,0.9v0.5c0,0,0,2.4-0.2,3
			c0.3,0.3,0.6,0.7,0.9,1c0.3,0.3,0.3,1,0.3,1v0.3c-0.4,0.4-0.5,0.7-0.4,1.1c0.1,0.4,0.1,0.7,0.1,1.1c0.4,0.5,0.5,1.4,0.5,2.7
			c0,0.9,0.1,1.7,0.3,2.5c0.2,0.8,0.6,1.6,1.3,2.3c0.2,0.4,0.4,0.7,0.8,1.1c0.4,0.4,0.4,0.9,0,1.6c-0.2,0,0,0.3,0.5,0.8
			c0.2,0.4,0.4,0.7,0.5,1.1c0.2,0.4,0.3,0.8,0.3,1.3v0.1c0.7,0.8,0.8,1.9,0.5,3.2c0.7,0,1.2,0.5,1.5,1.5c0.2,0.3,0.2,0.7,0.2,1
			c0,0.3,0.1,0.7,0.2,1c0.2,0.5,0.6,1.2,1.2,2.2c0.3,0.5,0.7,0.9,1.2,1.2c0.3,0.3,0.7,0.5,1,0.5c0.5-0.2,0.7-0.5,0.7-1
			c0.2-0.5,0.2-1.2,0.2-2.2v-1.5c0,0-0.4-1-0.5-1.4c-0.1-0.4,0.5-1.4,0.5-1.4v-0.8v-3.8c-0.6-1.2-0.5-2.4-0.3-3.8c0-1.5,0-3,0.1-4.5
			c0.1-1.5,0.2-2.9,0.4-4.3c0.2-0.8,0.3-1.6,0.5-2.3c0.2-0.7,0.3-2.3,0.3-2.3v-2.8c0,0,0.5-1.5,0.7-2.1c0.2-0.6,0.3-1.3,0.5-2.1
			c0-0.8-0.2-1.8-0.2-1.8v-2.8c0,0,0.5-2,0.7-3c0.2-1.2,0.3-2.3,0.5-3.5c0.2-1.2,0.4-2.4,0.8-3.8c0.2-0.5,0.3-1,0.4-1.6
			c0.1-0.6,0.7-1.6,0.7-1.6v0.1c-0.3-0.5-0.5-1-0.4-1.4c0.1-0.4,0.1-0.8,0.1-1.2c0.2-1.2,0.3-2.3,0.3-3.3c0-1,0.1-2.1,0.3-3.3
			c0-1,0-2.1,0.1-3.2c0.1-1.1,0.2-2.3,0.4-3.5c0.3-2.4,0.7-4.8,1.2-7.3c0.4-2.5,0.9-5,1.4-7.6c0.3-1.7,0.6-3.3,0.9-4.9
			c0.3-1.5,0.6-3.2,1.2-4.9c1-3.6,2.3-6.8,3.9-9.8l1.5-2.3c0.5-0.5,0.8-1.2,0.8-2.1c0-1.7,0.8-3.1,2.3-4.1c0.3-0.2,0.6-0.3,0.6-0.5
			c0.1-0.2,0.3-0.3,0.6-0.5c0.5-0.5,1.1-0.6,1.8-0.3c0.2,0.2,0.3,0.3,0.4,0.3c0.1,0,0.2,0.1,0.4,0.3l3.1,2.3
			c0.3,0.2,0.6,0.3,0.6,0.5c0.1,0.2,0.3,0.3,0.6,0.5c0.5,0.9,1.3,1,2.3,0.5c0.9-0.3,1.5-0.2,1.8,0.5c0.2,0.2,0.6,0.3,1.3,0.3
			c0.7,0.2,0.9,0.6,0.8,1.3c-0.3,0.3-0.5,0.6-0.4,0.9c0.1,0.3,0.1,0.6,0.1,0.9c0.3,0.7,0.6,1.3,0.8,1.8c0.2,0.5,0.3,1.2,0.3,2.1v0.6
			c0,0,0.3,2.1,0.1,3.3c-0.2,0.2-0.1,0.6,0.3,1.3c0.3,0.7,0.4,1.4,0.3,2.3c0,0.3,0,0.6,0.1,0.8c0.1,0.2,0.1,0.4,0.1,0.8
			c0.2,0.5,0.3,1,0.5,1.4c0.2,0.4,0.3,0.9,0.5,1.4c-1.3,0-2.3-0.1-2.8-0.3c0,1.3,0.3,2.1,1,2.3c0.5,0.3,0.9,0.5,1.3,0.6
			c0.3,0.1,0.6,0.4,0.8,0.9c0,0.3,0,0.7,0.1,1.1c0.1,0.4,0,0.8-0.4,1.1c-0.3,0.3-0.5,0.6-0.4,0.9c0.1,0.3,0,0.5-0.4,0.9l-1,1
			c-1,1-1,1.8,0,2.5c0.2,0,0.4,0.2,0.8,0.5c-0.3,0.7-0.6,1.3-0.8,1.8c-0.2,0.3-0.3,0.5-0.3,0.6c0,0.1-0.1,0.3-0.3,0.6
			c-0.2,0.8-0.3,1.6-0.3,2.3c0,0.7-0.1,1.4-0.3,2.3c0,0.3-0.2,0.7-0.5,1c-0.3,1.3-0.5,2.3-0.5,2.8c-0.2,0.5-0.3,1-0.4,1.4
			c-0.1,0.4-0.4,0.8-0.9,1.1c-0.3,0.3-0.7,1.1-1,2.3c0,0.5,0,1,0.1,1.5c0.1,0.5,0.1,1.1,0.1,1.8c0,0.3,0,0.7-0.1,1c-0.1,0.3,0,1,0,1
			v0.5c0,1.3-0.4,3-1.2,5c-0.3,0.3-0.6,0.7-0.7,1c0,0.2,0,0.3-0.1,0.4c-0.1,0.1-0.1,0.2-0.1,0.4c0,0.7-0.1,1.2-0.2,1.8
			c-0.2,0.5-0.3,0.9-0.5,1.2v1c0,0-0.1,1.3,0,1.9c0.1,0.6,0.1,1.2,0.1,1.9c0,1-0.3,1.6-0.8,1.8l-0.5,0.5c-0.2,1-0.4,1.9-0.8,2.8
			c-0.3,0.8-0.4,1.8-0.3,2.8c0.2,0.3,0.2,0.7,0,1.1c-0.2,0.4-0.3,0.9-0.3,1.4c0,0.5,0.1,1.1,0.3,1.8c0.2,0.7,0.2,2,0.2,2v3
			c0,0,0.2,2,0.1,3c0,0.3,0,0.6-0.1,0.8c-0.1,0.2-0.1,0.3-0.1,0.5c0,0.2,0,0.3-0.1,0.4c-0.1,0.1-0.1,0.2-0.1,0.4
			c0.3,0.8,0.2,2.2-0.5,4c-0.3,1-0.6,1.8-0.8,2.5c0,0.5,0.1,0.8,0.3,1c0.3,0.8,0.3,1.8,0,2.8c-0.3,0.5-0.6,1.5-0.6,1.5v1l1,2.5v2
			c0,0-0.7,2.3,0,3.3v1c-0.5,0.3-0.7,0.8-0.7,1.3c0,0.5-0.2,0.9-0.5,1.3l-0.3,0.5c0.2,0.8,0.3,1.6,0.3,2.3c0,0.7,0.1,1.4,0.3,2.3
			c-0.2,0.2-0.6,0.4-1.3,0.8c0.5,0.8,0.8,2.2,1,4.2c0.2,1.9,0.1,3.3-0.3,4.2c0.5,0.5,0.8,0.9,1,1.3c0.3,1,0.4,2.5,0.4,2.5v2
			c0,0,0.2,0.9,0.3,1.3c0.3,0.8,0.5,1.7,0.6,2.6c0.1,0.9,0.1,1.9,0.1,2.9c-0.3,1.2-0.2,2.1,0.5,2.8c0.2,0.3,0.2,0.6,0.1,0.8
			c-0.1,0.2-0.1,0.4-0.1,0.8c0.2,0.3,0.4,1.3,0.4,1.3v0.5c-0.7,1.9-1.1,3.6-1.3,5c-0.2,0.4-0.3,0.7-0.4,0.9
			c-0.1,0.3-0.3,0.5-0.7,0.7c-0.4,0-0.5,0.2-0.5,0.5c0,0.7-0.2,1.2-0.5,1.6c-0.4,0.4-0.7,0.7-1,1c-0.7,0.7-1,1.5-1,2.3
			c0.2,0.5,0.1,1-0.3,1.3c0,0.2,0,0.3-0.1,0.3c-0.1,0-0.1,0.1-0.1,0.3v0.1c-0.5,0-0.8,0.2-1,0.5c-0.2,0.3-0.4,0.7-0.7,1
			c-0.8,0.8-1.9,1.1-3.2,0.7c-1.1-0.2-2.1,0.3-3,1.5c-0.2,0.2-0.2,0.3-0.2,0.5c-0.7-0.3-1.2-0.7-1.7-1.1c-0.5-0.4-1.1-0.8-1.7-1.1
			c-0.2,0.3-0.3,0.5-0.5,0.6c-0.2,0.1-0.2,0.3-0.2,0.6c-0.8,1.8-2.1,2.5-3.7,2v0l-0.3-0.3c-0.9,0.2-1.6,0-2.1-0.5
			c-0.5-0.3-1.2-1-2.1-1.8c-0.5-0.2-0.8-0.8-0.8-1.8c0.2-0.7-0.2-1.5-1.1-2.4c-0.4-0.2-0.7-0.7-1.1-1.6c0-0.7-0.5-1.2-1.6-1.6
			c-0.2-0.2-0.4-0.3-0.5-0.3c-0.2,0-0.4-0.1-0.5-0.3c-0.5-0.2-0.8-0.4-0.8-0.8c-0.2-0.5-0.3-1.1-0.3-1.6s-0.1-1.1-0.3-1.6
			c0-0.9-0.2-1.4-0.5-1.6c-0.9-0.7-1.5-1.8-1.8-3.4c-0.2-1.1-0.5-2-1.1-2.9c-0.5-0.9-1.1-1.8-1.6-2.6c-0.5-0.9-1.1-1.8-1.7-2.6
			c-0.6-0.9-1.2-1.8-1.7-2.6c-0.2-0.2-0.3-0.4-0.3-0.8v-0.1c-1-1.3-1.6-2.3-1.9-2.9c-0.2-0.3-0.2-0.6-0.2-0.7c0-0.2-0.1-0.3-0.2-0.5
			c0-0.6-0.1-1.1-0.2-1.5c-0.3-0.3-0.6-0.7-0.9-1.2c-0.2-0.5-0.5-0.9-0.9-1.2c-0.3-0.3-0.5-0.6-0.5-0.7c-0.6-1.6-1.3-2.7-1.9-3.2
			c0-0.5-0.1-0.9-0.4-1.2c-0.2-0.3-0.5-0.6-0.9-1c-1-0.8-1.3-1.9-1-3.2v-1c-0.5-0.3-1-0.7-1.4-1c-0.4-0.3-0.8-0.7-1.2-1
			c-0.4-0.3-0.8-0.3-1.3,0.3c-0.9,0.7-1.5,1.7-1.8,2.9c-0.4,0.9-0.7,1.6-1,2.1c-0.4,0.5-0.8,1.1-1.3,1.8c-0.2,0.4-0.4,0.7-0.7,1
			c-0.3,0.4-0.3,0.8-0.1,1.3c0,0.4-0.1,0.5-0.3,0.5c-0.5,0.9-0.9,1.7-1,2.4c-0.2,0.7-0.4,1.5-0.8,2.4v0.2c0,0-0.3,2.1-0.3,3.1
			c0,1.1-0.1,2.1-0.3,3.1c0,0.7-0.2,1.5-0.5,2.5c-0.7,1.2-1.1,2.4-1.3,3.5c-0.2,0.3-0.3,0.7-0.4,1c-0.1,0.3-0.3,0.7-0.6,1
			c-0.7,0.7-0.8,1.3-0.5,2c0.2,0.3,0.2,0.7,0,1.1c-0.2,0.4-0.3,0.8-0.3,1.1c-0.2,0.3,0.1,1,0.1,1v0.1c-0.5,0.5-0.8,1-0.7,1.6
			c0.1,0.6,0,1.1-0.4,1.6c0.2,1.2-0.4,2.4-1.6,3.5c0,0.2-0.1,0.3-0.3,0.5v2.3c0,0.8-0.4,1.4-1.1,1.8c-0.7,0.3-1.3,0.8-1.6,1.4
			c-0.4,0.6-0.7,1.1-1.1,1.6c-0.2,0-0.3,0.1-0.4,0.3c-0.1,0.2-0.2,0.3-0.4,0.3c-0.5,0.3-1.1,0.5-1.6,0.6c-0.5,0.1-1.1,0.3-1.6,0.6
			c-0.5,0.3-1.1,0.3-1.6,0c-1.5-0.2-2.5,0.2-3.3,1c-0.2,0.7-0.8,1-1.9,1c-0.4,0-1.1,0.2-2.2,0.5c-1.5,0-2.5,0.1-3.3,0.3h0.2
			c-0.8,0.3-1.6,0.5-2.4,0.4c-0.7-0.1-1.5-0.1-2.4-0.1c-0.5,0.2-1.2,0.1-2.2-0.3c-0.5,0-0.7-0.3-0.7-1c-0.3-0.8-0.7-1.3-1.2-1.5
			c-0.5-0.2-0.9-0.6-1.2-1.3c-0.3-0.8-0.7-1.6-1-2.4c-0.3-0.8-0.7-1.6-1-2.4c-0.2-0.5-0.3-1-0.5-1.4c-0.2-0.4-0.1-1,0.2-1.6
			c0.3-0.3,0.4-0.5,0.1-0.6C71.8,245.4,71.6,245.3,71.5,245.1z M78.4,183l0.8-0.8c0-0.8-0.3-1.1-1-0.8c-0.2,0-0.4,0.2-0.8,0.5
			c0.2,0.2,0.3,0.3,0.5,0.4C78,182.5,78.2,182.7,78.4,183z M163,182.3c-0.5,0-0.8,0.4-0.8,1.3c0,0.5,0.3,0.8,0.8,0.8
			c0.5,0,0.8-0.3,0.8-1C163.7,182.6,163.5,182.3,163,182.3z M171,156.1c0.2,0.3,0.5,0.8,1,1.3c0.7,0.3,1.2,0.3,1.5,0
			c0.3-0.3,0.3-0.8,0-1.3c-0.3-0.3-0.5-0.6-0.5-0.8C172,155.7,171.4,155.9,171,156.1z M174.8,95.7c0.7,0,1-0.3,1-0.8
			c0.2-0.7,0.6-1.1,1.3-1.3c0.7-0.5,0.7-1,0-1.5c-0.3-0.3-0.6-0.5-0.8-0.5c-0.5-0.2-1-0.3-1.4-0.4c-0.4-0.1-0.9-0.1-1.4-0.1
			c-1,0-1.5,0.3-1.5,1c-0.2,0.8,0,1.6,0.6,2.4C173.3,95.3,174,95.7,174.8,95.7z"/>
		<path class="st1" d="M215.2,254.9c-0.3-0.2-0.6-0.2-0.9-0.2c-0.2,0-0.5-0.1-0.9-0.2c-0.3,0.3-0.5,0.6-0.6,0.9
			c-0.1,0.2-0.3,0.5-0.6,0.9c0,0.2,0,0.3-0.1,0.5c-0.1,0.2-0.1,0.3-0.1,0.5c-0.5,0.8-1.2,1.2-2,1c-0.2-0.2-0.4-0.2-0.7-0.2
			c-2.1,0.8-4.3,0.5-6.4-1c-0.7-0.5-1.2-1-1.7-1.5s-0.9-1.2-1.2-2c-0.3-1.3-0.7-2.5-1.1-3.5c-0.4-1-0.8-2.1-1.1-3.2
			c-0.5-1.5-0.8-3-0.9-4.4c-0.1-1.5-0.2-3-0.4-4.4c0-0.3,0-0.7,0.1-1.1c0.1-0.4,0.1-0.8,0.1-1.1c0-1.6,0-3.3,0.1-4.8
			c0.1-1.6,0.1-3.2,0.1-4.8c0-1.3-0.1-2.6-0.2-3.8c-0.2-1.2-0.3-2.5-0.5-3.8c0-1.2,0-2.2-0.1-3.2c-0.1-1-0.2-2.1-0.4-3.2
			c-0.2-0.8-0.2-1.7-0.2-2.6c0-0.9,0-1.6,0-2.4v-7.4c0.2-2.4,0.3-4.7,0.4-7c0.1-2.3,0.2-4.6,0.4-7c0.2-2.2,0.3-4.3,0.5-6.4
			c0.2-2,0.3-4.2,0.5-6.4c0-0.5,0-1,0.1-1.4c0.1-0.4,0.1-0.9,0.1-1.4c0.2-1.7,0.3-3.4,0.3-5c0-1.6,0.2-3.4,0.5-5.2
			c0.3-2.2,0.6-4.4,0.9-6.5c0.3-2.1,0.6-4.2,0.9-6.3c0.3-2.2,0.8-4.3,1.3-6.4c0.5-2,1-4.2,1.5-6.4c0.3-1.4,0.6-2.7,0.8-4
			c0.2-1.3,0.3-2.6,0.5-4c0.3-2.2,0.6-4.3,0.9-6.4c0.3-2,0.5-4.2,0.9-6.4c0.3-1,0.3-1.8-0.3-2.3c-0.5-0.8-0.6-1.7-0.4-2.4
			c0.3-0.8,0.6-1.6,1.1-2.4c0.5,0.3,1,0.6,1.4,0.8c0.4,0.2,0.9,0.4,1.4,0.8c0.3-0.7,0.6-1.3,0.8-1.8l0.3,0.3
			c0.3,0.2,0.7,0.3,1.1,0.3c0.4,0,0.8,0.1,1.1,0.3c0.3,0,0.7,0.3,1,0.8c0.8,0.9,1.6,1.3,2.3,1.3c0.5,0,0.9,0.2,1.3,0.5
			c0.9,0.3,1.6,0.7,2.2,1.1c0.6,0.4,1.2,0.8,1.9,1.1c0.7,0.2,1,0.7,1,1.5c-0.2,0.3-0.6,0.5-1.3,0.5c-0.5,0.2-0.9,0.5-1,1
			c-0.2,0.5-0.1,1,0.3,1.5c0.3,0.9,0.3,1.5-0.3,2c-0.3,0.7-0.5,1.1-0.5,1.3c0,1.7,0,3.9,0,5.5c0,1.6,0.1,3.1,0.2,4.6
			c0,0.5,0,1,0.1,1.5c0.1,0.5,0.1,1,0.1,1.5c0.2,0.5,0.2,1,0.1,1.6c-0.1,0.6,0,1.1,0.1,1.6c0,0.8,0,1.8,0.1,2.8c0.1,1,0.2,2,0.4,3
			c0,0.3,0.1,0.7,0.2,1.1c0.2,0.4,0.3,0.8,0.5,1.1c0.2,0.7,0.3,1.3,0.5,1.9c0.2,0.6,0.3,1.1,0.5,1.6v1.2c-0.3,1.3-0.5,2.3-0.5,3
			c0,0.5,0.1,0.9,0.3,1.2c0.5,1.5,0.7,2.9,0.5,4.2c-0.2,0.2-0.3,0.4-0.3,0.7c0.2,0.5,0.3,1.3,0.3,2.5c0.5,0,0.9-0.1,1-0.2
			c3.4-0.5,6.6-1.5,9.7-3c0.3-0.3,0.8-0.5,1.3-0.5c0.5,0,0.9-0.1,1.3-0.2l3.1-0.7h3.1h1.8c0.9,0.2,1.4-0.2,1.5-1.2v-1
			c0-0.8,0-1.6,0-2.4s0.1-1.5,0.3-2.4c0.3-1.2,0.5-2.2,0.5-3.2c0-1,0.1-2.1,0.3-3.3c0.2-1.7,0.3-3.3,0.4-4.9
			c0.1-1.6,0.3-3.2,0.6-4.9c0.2-1.3,0.3-2.6,0.3-3.9c0-1.2,0.1-2.5,0.3-3.9c0.3-1.8,0.6-3.6,0.8-5.4c0.2-1.7,0.4-3.5,0.8-5.4
			c0.2-0.5,0.2-1,0.1-1.6c-0.1-0.6-0.1-1.1-0.1-1.6c0-0.2-0.1-0.3-0.3-0.5c-0.2-0.2-0.3-0.4-0.5-0.7c-0.5-0.3-1.2-0.9-2-1.8
			c-0.3-0.2-0.7-0.6-1-1.2c0.3-0.3,0.5-0.6,0.6-0.9c0.1-0.2,0.3-0.5,0.6-0.6c0.2-0.5,0.5-0.7,1-0.7c0.7-0.2,1.3-0.3,1.8-0.5
			c0.5-0.2,1.1-0.2,1.8,0c0.3,0,0.8,0,1.3-0.1c0.5-0.1,1.1,0,1.8,0.4c1.4,0.8,2.7,0.7,4.1-0.2h-0.4c0,0,1.3,0.6,2.5,0.3
			c0.8,0,1.6,0.3,2.3,1c0.8,0.5,1.6,1.3,2.1,2.4c0.6,1.1,1,2.1,1.4,2.9c0.5,0.5,0.6,1.1,0.3,1.8c0,0.2,0,0.3-0.1,0.5
			c-0.1,0.2-0.1,0.3-0.1,0.5c0.3,0.7,0.5,1.3,0.6,2c0.1,0.7,0.2,1.4,0.4,2.3l0.8,4.5c0.3,1.3,0.5,2.7,0.6,4.2
			c0.1,1.4,0.2,2.9,0.4,4.4v0.5v4.9c0,1.6,0.1,3.2,0.3,4.9c0,1.3,0.1,2.6,0.3,3.8c0.2,1.2-0.5,3.5-0.5,3.5v1c0,0,1.1,1.6,1.1,2.4
			c0.1,0.8,0.1,1.6,0.1,2.4c0,0.3,0,0.6-0.1,0.9c-0.1,0.3-0.1,0.5-1.1,0.9v2.5v4.8c1,0.5,1,1,0.9,1.6c-0.1,0.6,0,1.1,0.1,1.6
			c0,0.8,0,1.6,0.1,2.4c0.1,0.8,0,1.6-0.1,2.4c0,1.2,0,2.4,0.1,3.5c0.1,1.2-0.1,3.5-0.1,3.5v0.8v4.5v0.8c0,0-0.1,1.7-0.2,2.5
			c-0.2,0.8-1.8,2.5-1.8,2.5v1.8c0,0,0.8,1,0.8,1.4c0,0.4,0.2,1.4,0.2,1.4V211c0,0-0.5,1-0.6,1.5c-0.1,0.5-0.1,1-0.1,1.5
			c0,1.3-0.1,2.3-0.3,2.8c0,0.5,0,1-0.1,1.5c-0.1,0.5-0.1,1,0.1,1.5v0.8c0.3,1.3,0.4,2.6,0.3,3.6c-0.2,1.1-0.3,2.3-0.5,3.7
			c0,0.3-0.3,0.8-1,1.5c-0.5,0.5-1,1-1.6,1.4c-0.6,0.4-1.2,0.9-1.9,1.4c-0.7,0.5-1.5,0.5-2.5,0c-0.5-0.5-1-0.3-1.5,0.5
			c-0.3,0.8,0.2,1.2,1.5,1.1c1.3-0.1,1.6-0.2,0.8-0.4c-0.3,0-0.8-0.2-1.5-0.5c-0.8-0.7-1.4-0.5-1.8,0.5l-0.5,1c-0.3,0.8-1,1.1-2,0.8
			c-0.5-0.5-0.8-0.5-0.8,0c-0.3,0.3-1,0.5-1,0.5s-1.3,0-1.6,0c-1.1-0.3-2.2-0.3-3.2,0c-0.8,0-1.5,0.5-2,1.5c-0.5,1-1.1,1-2,0
			c-1.1-1.8-2.3-3.7-3.3-5.7c-1.1-1.9-1.8-4.1-2.1-6.4c-0.8-3.2-1.1-6-1-8.3c0-1,0-2.7,0.1-5c0.1-2.3,0.2-4.8,0.4-7.4
			c0.2-2.6,0.3-5.1,0.4-7.4c0.1-2.3,0.2-4,0.4-5c0-0.8,0-1.6,0-2.4c0-0.8,0.1-1.5,0.2-2.4c0-1.2,0-2.3,0.1-3.4
			c0.1-1.1,0.1-2.2,0.1-3.4c0.2-0.8-0.2-1.3-1-1.3c-0.7,0-1.6,0.2-3,0.5c-0.5,0-1,0-1.5,0.1c-0.5,0.1-1,0.1-1.5,0.1
			c-0.2,0.2-0.3,0.3-0.5,0.3c-0.2,0-0.3,0.2-0.5,0.5c-0.7,0.3-1.1,0.4-1.2,0.3c-0.7-0.5-1.3-0.7-1.8-0.6c-0.6,0.1-1.2,0.2-1.8,0.4
			c-0.3,0.2-0.5,0.3-0.6,0.3c-0.1,0-0.3,0.1-0.6,0.3c0.5,0.8,0.6,1.5,0.2,1.9c-0.3,0.4-0.7,0.8-1,1.1c-1.2,1.5-1.7,3-1.7,4.5v5.3v2
			c-0.1,0.8,0,1.7,0.1,2.6c0.1,0.9,0.1,1.8,0.1,2.6c0,1.3,0,2.8,0.1,4.3c0.1,1.5,0.3,2.9,0.6,4.3c0,0.7,0,1.3-0.1,1.9
			c-0.1,0.6-0.1,1.2-0.1,1.9c0.2,1.2,0.1,2.3-0.1,3.4c-0.3,1.1-0.3,2.2-0.1,3.4c0.2,0.5,0.6,2.3,0.6,2.3v6v0.3
			c0.2,0.8,0.5,1.6,0.5,2.3c0,0.7-0.1,1.4-0.3,2.3c0.3,1.2,0.3,2.2,0,3.1c-0.3,0.9-0.6,1.9-0.8,2.9c-0.2,0.8-0.3,1.6-0.4,2.1
			c-0.1,0.6-0.3,1.3-0.6,2.1c-0.2,0.3-0.4,0.7-0.6,1c-0.3,0.3-0.5,0.8-0.6,1.3c-0.3,0.8-0.8,1.4-1.5,1.8c-0.7,0.3-1.3,0.8-2,1.3
			c-1,0.5-2.7,2.8-2.7,2.8v-0.1c-0.3,0.5-0.5,1-0.6,1.6C215.8,253.9,215.6,254.4,215.2,254.9z"/>
		<path class="st1" d="M364.6,99.3c-0.5,0.3-0.8,0.4-1,0.1c-0.2-0.3-0.4-0.5-0.7-0.6c-0.5-0.5-1.1-0.6-1.8-0.3
			c0,0.3,0.1,0.6,0.2,0.8c1,0.9,1.9,1.8,2.8,2.8c0.9,1,1.9,2,3.1,2.8c0.5,0.3,1,0.8,1.4,1.3c0.4,0.5,0.9,1,1.4,1.5l1.7,1.8l1-1
			c0.8,0.2,1.4,0.7,1.7,1.7c0.3,0.9,0.2,1.8-0.3,2.6c-0.5-0.2-0.9-0.5-1.2-0.9c-0.3-0.4-0.8-0.5-1.5-0.2c-0.2,0.7,0.1,1.3,0.7,2
			c0.5,0.5,0.9,1,1.4,1.5c0.4,0.5,0.9,1,1.4,1.5c0.5,0.5,0.8,0.8,1,0.8c0.2,0,0.7-0.2,1.5-0.5c0.7,0.9,1.1,1.6,1.5,2.3
			c0.3,0.7,0.7,1.4,1.2,2.3c0.3,0.8,0.7,1.7,1.2,2.4c0.5,0.8,1,1.6,1.5,2.4c-0.9,1.2-0.6,2.4,0.7,3.8c0.5,0.2,0.6,0.6,0.2,1.3
			c-0.3,0.3-0.6,0.7-0.7,1.2c-0.1,0.5-0.3,0.9-0.7,1.2c0.2,0.5,0.5,0.8,1,1c0,0.2-0.1,0.3-0.3,0.5c-0.5,0.7-0.6,1.4-0.3,2.3
			c0.2,0.2,0.3,0.4,0.5,0.6c0.2,0.3,0.3,0.4,0.5,0.4c0.8,0.4,1.4,0.8,1.6,1.4c0.2,0.6,0.5,1.2,0.8,1.9c0,0.3-0.1,0.6-0.1,0.8
			c-0.1,0.2,0,0.4,0.1,0.8c0.5,0.8,0.7,1.7,0.6,2.7c-0.1,0.9-0.2,1.9-0.4,2.9l0,0.8c0.2,0.8,0.2,1.8,0.2,2.8c0,1,0,1.9-0.1,2.8
			c0,0.5-0.1,1-0.3,1.5c-0.2,0.5-0.4,1-0.5,1.5c-0.2,0.5-0.3,1.2-0.3,2c0.2,0.8,0.2,1.6,0.2,2.1c0,0.6,0,1.3,0,2.1
			c-0.4,1.8-0.6,3.7-0.8,5.7c-0.1,1.9-0.4,3.8-0.7,5.6c0,0.5-0.2,1.3-0.6,2.3c0,0.3-0.1,0.7-0.3,1c0,0.7-0.2,1.8-0.6,3.5
			c-0.2,0.3-0.3,0.7-0.3,1c0,0.3-0.1,0.7-0.3,1c0,0.2,0,0.3,0.1,0.4c0.1,0.1,0,0.3-0.1,0.6c-0.2,1-0.4,2-0.6,3.1
			c-0.2,1.1-0.5,2.2-0.8,3.4c-0.2,0.7-0.4,1.3-0.5,1.9c-0.2,0.6-0.2,1.3,0,2.1c0,0.5-0.1,1-0.3,1.6c-0.2,0.6-0.4,1.1-0.5,1.6
			c-0.2,0.8-0.3,1.7-0.4,2.6c-0.1,0.9-0.3,1.8-0.7,2.6l-0.8,2.2c-0.4,0.8-0.6,1.6-0.7,2.4c-0.1,0.8-0.4,1.5-0.9,2.4
			c-0.2,0.3-0.2,0.7-0.2,1.1c0.1,0.4,0,0.8-0.1,1.1c-0.4,0.8-0.6,1.6-0.8,2.2c-0.2,0.7-0.4,1.3-0.8,2c0,0.3-0.4,0.8-1,1.5
			c-0.7,1-1,1.8-0.8,2.5c0,0.5-0.1,0.8-0.3,1c-0.7,1.2-1.3,2.4-1.8,3.6c-0.5,1.2-1.3,2.4-2.3,3.4c-0.2,0.2-0.3,0.4-0.3,0.7
			c-0.2,0.3-0.3,0.6-0.3,0.9c0,0.3-0.1,0.5-0.3,0.6c-0.3,0.5-0.7,0.9-1.2,1.4c-0.4,0.4-0.6,1-0.4,1.6c-1,1-1.8,1.8-2.3,2.5
			c0.5,0.7,0.6,1.3,0.2,1.9c-0.3,0.6-0.7,1.1-1,1.6c-0.9,1.2-1.8,2.3-2.7,3.3c-0.9,1.1-1.8,2.2-2.7,3.3c-0.7,0.8-1.3,1.6-1.8,2.2
			c-0.5,0.7-1.1,1.4-1.8,2.2c-0.9,1.3-2.1,2.5-3.6,3.4c-0.2,0-0.3,0.1-0.3,0.2c-0.5,1.2-1.7,1.7-3.6,1.7c-0.3,0-0.7,0-1,0.1
			c-0.3,0.1-0.7,0.1-1,0.1c-3,0.4-5.6-0.2-7.8-1.9c-1.5-1-3.2-1.3-5.3-0.9l-0.5,0c-2,0-4.1-0.1-6.2-0.3c-2.1-0.1-4.1-0.6-5.9-1.3
			c-0.3,0-0.6-0.1-0.8-0.1c-0.2-0.1-0.4-0.1-0.8-0.1c-1.3-0.2-2.5-0.6-3.5-1.1c-1-0.5-2.1-1.1-3.2-1.8c-1-0.4-1.7-0.7-2.2-1.1
			c-0.5-0.3-1-0.6-1.5-0.9c-0.5-0.3-1.1-0.6-1.7-0.9c-1-0.7-1.6-1.5-1.7-2.3c-0.5-0.9-0.8-1.4-1-1.5c-0.8-0.5-1.4-1.1-1.7-1.8
			c-0.3-0.7-0.6-1.4-1-2.3l-1.4-3.1c0-0.2,0-0.3-0.1-0.5c-0.1-0.2-0.1-0.4-0.1-0.8c-0.1-0.8-0.3-1.7-0.3-2.7
			c-0.1-0.9-0.3-1.8-0.6-2.7l0-0.8c0.2-2.9-0.3-5.8-1.6-8.8c-0.3-0.7-0.5-1.8-0.4-3.3c0.4-1.2,0.3-2.2-0.2-3
			c-0.3-0.3-0.5-0.6-0.5-0.8c0-1-0.2-2-0.6-2.9c-0.4-0.9-0.5-2-0.3-3.2c0.2-0.3,0.2-0.6,0.1-0.8c-0.1-0.2-0.1-0.4-0.1-0.8
			c-0.2-0.2-0.2-0.4-0.2-0.8c0.4-2,0.1-3.6-0.9-4.8l0-0.8c0.4-1.8,0.5-3.6,0.2-5.2c-0.2-1.6-0.4-3.3-0.5-5.2
			c-0.1-0.8-0.3-1.7-0.4-2.7c-0.1-0.9,0-1.8,0.3-2.6c0.2-0.3,0.2-0.6,0.1-0.8c-0.1-0.2-0.1-0.4-0.1-0.8c-0.1-1.7-0.2-3.3-0.3-4.9
			c0-1.6-0.1-3.2,0-4.9c0-0.8,0.1-1.5,0.3-2c0-0.8,0.1-1.7,0.3-2.5c0.2-0.8,0.3-1.7,0.3-2.5c0-0.7-0.1-1.1-0.2-1.3
			c-0.5-0.9-0.6-1.5-0.5-2c0.4-0.8,0.3-1.5-0.2-2c-0.3-0.7-0.3-1.3,0-1.8c0.4-1.3,0.7-2.3,1.1-3c0-0.5,0.2-1.3,0.6-2.3
			c0-0.8,0-1.6,0.1-2.4c0-0.8,0.1-1.6,0.3-2.4c0-0.3,0.1-0.7,0.2-1.1c0.1-0.4,0.1-0.9,0.2-1.4c0.2-0.7,0.2-1.3,0.2-2
			c-0.1-0.7-0.5-1.3-1.3-1.8c-0.2-0.2-0.3-0.4-0.4-0.8c-0.1-0.3-0.2-0.7-0.4-1c-0.3-2,0.1-3.6,1.1-4.8c0.7-1,0.8-2,0.3-3
			c-0.5-0.7-0.6-1.5-0.2-2.5c0.2-0.8,0.3-1.6,0.4-2.3c0.1-0.7,0.2-1.3,0.4-2c0.2-0.5,0.3-1.2,0.3-2c-0.3-1.2,0-2,0.8-2.5
			c0.5-0.3,1-0.7,1.4-1.2c0.4-0.5,0.9-0.9,1.4-1.2c0.2-0.3,0.4-0.6,0.5-0.7c0.2-0.2,0.3-0.4,0.5-0.7c0.2,0,0.3-0.1,0.3-0.2
			c1.2-1.2,1.9-2.4,2.1-3.7c0-0.3,0.4-0.8,1-1.5c1.5-1.5,3-3,4.5-4.4c1.5-1.5,2.8-3.1,4-5c0-0.2,0-0.3,0.1-0.2
			c0.1,0,0.1-0.1,0.1-0.2c0.9-0.5,1.6-1.1,2.3-1.7c0.7-0.7,1.4-1.4,2.1-2.2c0.7-0.7,1.4-1.1,2.2-1.3s1.6-0.5,2.4-0.8
			c0.3-0.3,0.7-0.5,1-0.6c0.3-0.1,0.7-0.3,1-0.6c1.4-0.8,2.7-1.3,4.1-1.4c1,0,2-0.1,2.9-0.4c0.9-0.3,1.9-0.5,2.9-0.7
			c1-0.3,1.9-0.5,2.8-0.4c1.2,0,2.4,0,3.5,0.1c1.2,0,2.4,0.2,3.8,0.6c1.2,0.2,2.3,0.3,3.4,0.2c1.1-0.1,2.2-0.1,3.4-0.1
			c4,0.3,7.9,1.4,11.8,3.5c0.7,0.3,1.3,0.7,1.9,1c0.6,0.3,1.2,0.7,1.9,1C363.8,98.6,364.1,98.8,364.6,99.3z M321.1,216
			c0.2,0.3,0.2,0.9,0.2,1.8c0,2,0.5,4.2,1.6,6.6c0.3,0.5,0.7,1.1,1.1,1.7c0.4,0.6,0.8,1.2,1.1,1.7c0.7,1,1.3,2,2,2.8
			c0.7,0.9,1.4,1.7,2.2,2.6c0.8,0.5,1.5,1.1,2,1.8c0.5,0.7,1.1,1.4,1.7,2.3c0.5,0.5,0.9,1.1,1.4,1.7c0.4,0.6,0.9,1.2,1.3,1.7
			c1,0.7,1.7,0.7,2.3,0c0.7-0.8,1.3-1.7,1.8-2.7c0.5-1,0.9-2.2,1.1-3.5c0-1.3,0.4-2.6,1.1-3.8c0.4-0.7,0.7-1.3,1-1.9
			c0.4-0.6,0.5-1.3,0.5-2.1c0.2-0.7,0.5-1.8,0.8-3.5c0.2-0.8,0.3-1.7,0.4-2.5c0.1-0.8,0.2-1.7,0.4-2.5c0-0.2,0.1-0.3,0.1-0.4
			c0.1-0.1,0.1-0.2,0.1-0.4c0.5-1.3,0.9-2.6,1.2-3.9c0.3-1.3,0.6-2.5,1-3.9c0.4-1.7,0.7-2.9,1.1-3.8c0.2-0.8,0.4-1.7,0.6-2.6
			c0.2-0.9,0.5-1.9,0.8-2.9c0.4-1.2,0.6-2.3,0.7-3.4c0.1-1.1,0.3-2.2,0.7-3.4c0.2-1,0.4-2,0.6-3c0.2-1,0.4-2,0.6-3l0.9-6
			c0-1,0.2-2,0.4-3c0.3-1,0.3-2-0.1-3c-0.3-0.8-0.5-1.7-0.6-2.5c-0.1-0.8-0.2-1.7-0.3-2.5c0-1,0-1.8-0.2-2.3c-0.3-1-0.5-2.1-0.7-3.3
			c-0.1-1.2-0.4-2.3-0.7-3.3c-0.2-0.3-0.2-0.8-0.2-1.3c-0.1-1.3-0.2-2.7-0.3-4c-0.1-1.3-0.2-2.7-0.5-4c-0.1-1-0.1-2,0.1-2.9
			c0.2-0.9,0.2-1.9,0.1-2.9c-0.2-0.5-0.2-1-0.1-1.4c0.1-0.4,0-0.9-0.3-1.4c-0.3-0.2-0.5-0.7-0.5-1.5c0.4-1.3,0.4-2.6,0-3.9
			c-0.4-1.3-0.7-2.6-1.1-3.9c-0.6-2.9-1.7-6-3.3-9.4c-0.8-1.9-1.7-3.8-2.6-5.7c-1-2-2.3-3.7-3.9-5.2c-1.3-1.5-2.8-2-4.5-1.4
			c-1.2,0.5-2.2,1.1-3.1,2c-0.9,0.7-1.6,1.3-2.2,2c-0.6,0.7-1.2,1.3-1.9,2c-1.7,1.3-2.8,3.2-3.4,5.7c0,0.3-0.1,0.6-0.1,0.9
			c-0.1,0.2-0.1,0.5-0.1,0.9c-0.4,1.5-0.7,3-1.1,4.4c-0.4,1.4-0.7,2.9-1.1,4.4c-0.4,1.7-0.6,2.8-0.6,3.5c-0.2,0.8-0.4,1.7-0.6,2.5
			c-0.2,0.8-0.3,1.7-0.3,2.5c-0.2,1-0.3,2-0.3,3.1c0,1.1,0,2.1-0.1,3.1c-0.4,1.8-0.6,3.6-0.7,5.1c-0.1,1.6-0.4,3.2-0.7,4.9
			c-0.4,1.3-0.5,2.6-0.5,3.8c0.1,1.2,0.1,2.4,0.1,3.5c0.1,4.2,0,8.4-0.3,12.6l-0.1,6.5c0.1,1.5,0.2,3,0.3,4.4
			c0.1,1.4,0.2,2.8,0.3,4.2c0,0.8,0,1.6-0.1,2.4c0,0.8,0.1,1.6,0.2,2.4c0,0.8,0,1.6,0.1,2.3c0.1,0.7,0.2,1.4,0.3,2.3l0.2,0.5
			c0.3,1.2,0.7,2.3,1.1,3.3c0.4,1,0.8,2.1,1.1,3.3c0.3,0.7,0.5,1.7,0.4,3C321,214.3,321.1,215,321.1,216z"/>
		<path class="st1" d="M475.2,253c-0.6-0.3-0.9-0.4-1.1-0.1c-0.2,0.2-0.5,0.4-0.8,0.6c-0.6,0.5-1.2,0.6-1.9,0.2
			c0-0.3,0.1-0.6,0.3-0.7c1.1-0.8,2.2-1.7,3.2-2.6c1-0.9,2.2-1.8,3.4-2.6c0.6-0.3,1.1-0.7,1.5-1.2c0.5-0.5,1-0.9,1.5-1.4l1.9-1.7
			l1.1,0.9c0.9-0.2,1.6-0.7,1.9-1.5c0.4-0.9,0.3-1.7-0.3-2.5c-0.6,0.2-1,0.4-1.4,0.8c-0.4,0.4-0.9,0.4-1.7,0.1
			c-0.2-0.6,0.1-1.3,0.8-1.9c0.6-0.5,1.1-0.9,1.5-1.4c0.5-0.5,1-0.9,1.5-1.4c0.6-0.5,0.9-0.7,1.1-0.7c0.2,0,0.7,0.2,1.7,0.5
			c0.7-0.8,1.3-1.5,1.7-2.1c0.4-0.6,0.8-1.3,1.4-2.1c0.4-0.8,0.8-1.5,1.4-2.2s1.1-1.5,1.7-2.2c-0.9-1.1-0.6-2.3,0.8-3.6
			c0.6-0.2,0.6-0.6,0.3-1.2c-0.4-0.3-0.6-0.7-0.7-1.2c-0.1-0.5-0.3-0.9-0.7-1.2c0.2-0.5,0.6-0.8,1.1-0.9c0-0.2-0.1-0.3-0.3-0.5
			c-0.6-0.6-0.6-1.3-0.3-2.1c0.2-0.2,0.4-0.4,0.6-0.6c0.2-0.2,0.4-0.4,0.6-0.4c0.9-0.3,1.5-0.7,1.8-1.3c0.3-0.6,0.6-1.1,1-1.8
			c0-0.3,0-0.6-0.1-0.7c-0.1-0.2,0-0.4,0.1-0.7c0.6-0.8,0.8-1.6,0.7-2.5c-0.1-0.9-0.2-1.8-0.9-2.7v-0.7c0.7-0.8,1-2.6,1-2.6v-2.6
			c0,0-0.3-0.9-0.5-1.4c-0.2-0.5-0.4-0.9-0.6-1.4c-0.2-0.5-0.3-1.1-0.3-1.9c0.2-0.8,0.3-1.5,0.3-2v-2c-0.4-1.7-0.6-3.5-0.7-5.3
			c-0.1-1.8-0.3-3.6-0.7-5.3c0-0.5-0.2-1.2-0.6-2.1c0-0.3-0.1-0.6-0.3-0.9c0-0.6-0.2-1.7-0.6-3.3c-0.2-0.3-0.3-0.6-0.3-0.9
			c0-0.3-0.1-0.6-0.3-0.9c0-0.2,0-0.3,0.1-0.4c0.1-0.1,0-0.3-0.1-0.6c-0.2-0.9-0.4-1.9-0.6-3c-0.2-1-0.5-2.1-0.8-3.2
			c-0.2-0.6-0.4-1.2-0.6-1.8c-0.2-0.6-0.2-1.2,0-2c0-0.5-0.1-1-0.3-1.5c-0.2-0.6-0.4-1.1-0.6-1.5c-0.2-0.8-0.3-1.6-0.4-2.5
			c-0.1-0.9-0.3-1.7-0.7-2.5l-0.8-2.1c-0.4-0.8-0.6-1.5-0.7-2.2c-0.1-0.7-0.4-1.5-1-2.2c-0.2-0.3-0.2-0.7-0.1-1.1
			c0.1-0.4,0-0.7-0.1-1.1c-0.4-0.8-0.6-1.5-0.8-2.1c-0.2-0.6-0.5-1.3-0.8-1.9c0-0.3-0.4-0.8-1.1-1.4c-0.7-0.9-1-1.7-0.8-2.4
			c0-0.5-0.1-0.8-0.3-0.9c-0.7-1.1-1.4-2.2-1.9-3.4c-0.6-1.2-1.4-2.2-2.5-3.2c-0.2-0.2-0.3-0.4-0.3-0.7c-0.2-0.3-0.3-0.6-0.3-0.8
			c0-0.2-0.1-0.4-0.3-0.6c-0.4-0.5-0.8-0.9-1.2-1.3c-0.5-0.4-0.6-0.9-0.4-1.5c-1.1-0.9-1.9-1.7-2.5-2.4c0.6-0.6,0.6-1.2,0.3-1.8
			c-0.4-0.6-0.7-1.1-1.1-1.5c-0.9-1.1-1.9-2.2-2.9-3.2c-1-1-2-2.1-2.9-3.2c-0.7-0.8-1.4-1.5-1.9-2.1c-0.6-0.6-1.2-1.3-1.9-2.1
			c-0.9-1.3-2.2-2.4-3.9-3.3c-0.2,0-0.3-0.1-0.3-0.2c-0.6-1.1-1.8-1.7-3.9-1.7c-0.4,0-0.7,0-1.1-0.1c-0.4-0.1-0.7-0.1-1.1-0.1
			c-3.3-0.5-6.1,0.1-8.5,1.7c-1.7,0.9-5.8,1.2-5.8,1.2h0.9c-2.3,0-4.6,0-7,0.1c-2.4,0.1-4.6,0.4-6.7,1.1c-0.4,0-0.7,0-0.9,0.1
			c-0.2,0.1-0.5,0.1-0.9,0.1c-1.5,0.2-2.9,0.5-4,0.9c-1.1,0.5-2.4,1-3.7,1.7c-1.1,0.3-2,0.6-2.6,0.9c-0.6,0.3-1.1,0.6-1.7,0.8
			c-0.6,0.2-1.2,0.5-2,0.8c-1.1,0.6-1.8,1.3-2,2.1c-0.6,0.8-1,1.3-1.1,1.4c-1,0.5-1.6,1-2,1.7c-0.4,0.6-0.8,1.3-1.1,2.1l-1.7,2.8
			c0,0.2,0,0.3-0.1,0.5c-0.1,0.2-0.1,0.4-0.1,0.7c-0.2,0.8-0.3,1.6-0.4,2.5c-0.1,0.9-0.3,1.7-0.7,2.5v0.7c0.2,2.7-0.5,5.4-2,8.3
			c-0.4,0.6-0.6,1.7-0.6,3.1c0.4,1.1,0.3,2.1-0.3,2.8c-0.4,0.3-0.6,0.6-0.6,0.7c0,0.9-0.2,1.9-0.7,2.7c-0.5,0.9-0.6,1.9-0.4,3
			c0.2,0.3,0.2,0.6,0.1,0.7c-0.1,0.2-0.1,0.4-0.1,0.7c-0.2,0.2-0.3,0.4-0.3,0.7c0.4,1.9,0,3.4-1.1,4.5v0.7c0.4,1.7,0.4,3.4,0.1,4.9
			c-0.3,1.5-0.5,3.1-0.7,4.9c-0.2,0.8-0.4,1.6-0.6,2.5c-0.2,0.9-0.1,1.7,0.3,2.5c0.2,0.3,0.2,0.6,0.1,0.7c-0.1,0.2-0.1,0.4-0.1,0.7
			c-0.2,1.6-0.3,3.1-0.4,4.6c-0.1,1.5-0.1,3-0.1,4.6c0,0.8,0.1,1.4,0.3,1.9c0,0.8,0.1,1.6,0.3,2.4c0.2,0.8,0.3,1.6,0.3,2.4
			c0,0.6-0.1,1-0.3,1.2c-0.6,0.8-0.8,1.4-0.6,1.9c0.4,0.8,0.3,1.4-0.3,1.9c-0.4,0.6-0.4,1.2,0,1.7c0.4,1.3,0.8,2.2,1.1,2.8
			c0,0.5,0.2,1.2,0.6,2.1c0,0.8,0,1.5,0,2.2c0,0.7,0.1,1.5,0.3,2.3c0,0.3,0,0.7,0.1,1.1c0.1,0.4,0.1,0.8,0.1,1.3
			c0.2,0.6,0.2,1.3,0.1,1.9c-0.1,0.6-0.6,1.2-1.6,1.7c-0.2,0.2-0.3,0.4-0.4,0.7c-0.1,0.3-0.2,0.6-0.4,0.9c-0.4,1.9,0,3.4,1.1,4.5
			c0.8,0.9,0.9,1.9,0.3,2.8c-0.6,0.6-0.7,1.4-0.3,2.4c0.2,0.8,0.3,1.5,0.4,2.1c0.1,0.6,0.2,1.3,0.4,1.9c0.2,0.5,0.3,1.1,0.3,1.9
			c-0.4,1.1-0.1,1.9,0.9,2.4c0.6,0.3,1.1,0.7,1.6,1.2c0.5,0.5,1,0.9,1.6,1.2c0.2,0.3,0.4,0.6,0.6,0.7c0.2,0.2,0.4,0.4,0.6,0.7
			c0.2,0,0.3,0.1,0.3,0.2c1.3,1.1,2.1,2.3,2.3,3.6c0,0.3,0.4,0.8,1.1,1.4c1.7,1.4,3.4,2.8,5,4.3c1.6,1.4,3.1,3,4.4,4.7
			c0,0.2,0,0.2,0.1,0.2c0.1,0,0.1,0.1,0.1,0.2c1,0.5,1.8,1,2.6,1.7c0.8,0.6,1.5,1.3,2.3,2.1c0.8,0.6,1.6,1.1,2.4,1.3
			c0.9,0.2,1.8,0.5,2.7,0.8c0.4,0.3,0.8,0.5,1.1,0.6c0.4,0.1,0.8,0.3,1.1,0.6c1.5,0.8,3,1.3,4.6,1.4c1.1,0,2.2,0.2,3.3,0.5
			c1.1,0.3,2.1,0.6,3.3,0.7c1.1,0.3,2.2,0.5,3.1,0.5c1.3,0,2.3,0,2.3,0s2.7-0.7,4.1-1c1.3-0.2,2.5-0.2,3.7-0.1
			c1.2,0.1,2.4,0.1,3.7,0.1c4.4-0.2,8.7-1.2,12.9-3.1c0.7-0.3,1.4-0.6,2.1-0.9c0.6-0.3,1.3-0.6,2.1-0.9
			C474.3,253.7,474.7,253.5,475.2,253z M430.4,142.4c0.2-0.3,0.3-0.9,0.3-1.7c0-1.9,0.6-3.9,1.9-6.2c0.4-0.5,0.8-1,1.2-1.5
			c0.5-0.6,0.9-1.1,1.2-1.5c0.7-0.9,1.5-1.8,2.2-2.6c0.7-0.8,1.6-1.6,2.5-2.4c0.9-0.5,1.7-1,2.2-1.7c0.6-0.6,1.2-1.3,1.9-2.1
			c0.6-0.5,1.1-1,1.5-1.5c0.5-0.6,1-1.1,1.5-1.5c1.1-0.6,1.9-0.6,2.5,0c0.7,0.8,1.4,1.7,1.9,2.6c0.6,0.9,0.9,2.1,1.1,3.3
			c0,1.3,0.4,2.5,1.1,3.6c0.4,0.6,0.7,1.2,1.1,1.8c0.4,0.6,0.6,1.2,0.6,2c0.2,0.6,0.5,1.7,0.8,3.3c0.2,0.8,0.3,1.6,0.4,2.4
			c0.1,0.8,0.2,1.6,0.4,2.4c0,0.2,0,0.3,0.1,0.4c0.1,0.1,0.1,0.2,0.1,0.4c0.6,1.3,1,2.5,1.2,3.7c0.3,1.2,0.6,2.4,1,3.7
			c0.4,1.6,0.7,2.8,1.1,3.6c0.2,0.8,0.4,1.6,0.6,2.5c0.2,0.9,0.5,1.8,0.8,2.7c0.4,1.1,0.6,2.2,0.7,3.2c0.1,1,0.3,2.1,0.7,3.2
			c0.2,0.9,0.4,1.9,0.6,2.8c0.2,0.9,0.4,1.9,0.6,2.8l0.8,5.7c0,0.9,0.1,1.9,0.4,2.8c0.3,0.9,0.2,1.9-0.1,2.8
			c-0.4,0.8-0.6,1.6-0.7,2.4c-0.1,0.8-0.2,1.6-0.4,2.4c0,0.9-0.1,1.7-0.3,2.1c-0.4,0.9-0.6,2-0.8,3.1c-0.2,1.1-0.5,2.1-0.8,3.1
			c-0.2,0.3-0.3,0.7-0.3,1.2c-0.2,1.3-0.3,2.5-0.4,3.8c-0.1,1.3-0.3,2.5-0.7,3.8c-0.2,0.9-0.2,1.9,0,2.7c0.2,0.9,0.2,1.8,0,2.7
			c-0.2,0.5-0.2,0.9-0.1,1.3c0.1,0.4,0,0.8-0.4,1.3c-0.4,0.2-0.6,0.6-0.6,1.4c0.4,1.3,0.3,2.5-0.1,3.7c-0.5,1.2-0.9,2.4-1.2,3.7
			c-0.7,2.7-2,5.6-3.9,8.8c-0.9,1.7-1.9,3.5-3,5.3c-1.1,1.8-2.6,3.4-4.4,4.9c-1.5,1.4-3.1,1.8-5,1.2c-1.3-0.5-2.4-1.1-3.3-1.9
			c-0.9-0.6-1.7-1.3-2.3-1.9c-0.6-0.6-1.3-1.3-2.1-1.9c-1.8-1.3-3-3.1-3.6-5.4c0-0.3,0-0.6-0.1-0.8c-0.1-0.2-0.1-0.5-0.1-0.8
			c-0.4-1.4-0.7-2.8-1.1-4.1c-0.4-1.3-0.7-2.7-1.1-4.1c-0.4-1.6-0.6-2.7-0.6-3.3c-0.2-0.8-0.4-1.6-0.6-2.4c-0.2-0.8-0.3-1.6-0.3-2.4
			c-0.2-0.9,0.4-3,0.4-3v-3c0,0-1.3-3.4-1.4-4.9c-0.1-1.5-0.3-3-0.7-4.6c-0.4-1.3-0.5-2.4-0.4-3.6c0.1-1.1,0.1-2.2,0.1-3.3
			c0.2-3.9,0.3-11.8,0.3-11.8v-6.2c0,0,0-2.8,0.1-4.1c0.1-1.3,0.9-3.9,0.9-3.9v-2.2c0,0-0.4-1.5-0.2-2.2c0-0.8,0-1.5,0.1-2.1
			c0.1-0.6,0.2-1.3,0.4-2.1l0.3-0.5c0.4-1.1,0.8-2.1,1.2-3.1c0.5-0.9,0.9-2,1.2-3.1c0.4-0.6,0.6-1.6,0.6-2.8
			C430.3,144,430.4,143.4,430.4,142.4z"/>
		<path class="st1" d="M76.1,437.2c0.5-0.4,0.9-0.4,1.1-0.1c0.2,0.3,0.4,0.5,0.8,0.7c0.5,0.5,1.2,0.6,1.9,0.3c0-0.4-0.1-0.6-0.3-0.8
			c-1.1-0.9-2.1-1.9-3.1-2.9c-1-1.1-2.1-2-3.4-2.9c-0.5-0.4-1-0.8-1.5-1.3c-0.5-0.5-0.9-1.1-1.5-1.6l-1.9-1.9l-1.1,1.1
			c-0.9-0.2-1.5-0.8-1.9-1.7c-0.4-1-0.3-1.9,0.3-2.8c0.5,0.2,1,0.5,1.4,0.9c0.4,0.4,0.9,0.5,1.6,0.1c0.2-0.7-0.1-1.4-0.8-2.1
			c-0.5-0.5-1-1.1-1.5-1.6c-0.5-0.5-0.9-1.1-1.5-1.6c-0.5-0.5-0.9-0.8-1.1-0.8c-0.2,0-0.7,0.2-1.6,0.5c-0.7-0.9-1.3-1.7-1.6-2.4
			c-0.4-0.7-0.8-1.5-1.4-2.4c-0.4-0.9-0.8-1.7-1.4-2.5c-0.5-0.8-1.1-1.6-1.6-2.5c0.9-1.2,0.6-2.6-0.8-4c-0.5-0.2-0.6-0.6-0.3-1.3
			c0.4-0.4,0.6-0.8,0.7-1.3c0.1-0.5,0.3-1,0.7-1.3c-0.2-0.5-0.5-0.9-1.1-1.1c0-0.2,0.1-0.4,0.3-0.5c0.5-0.7,0.6-1.5,0.3-2.4
			c-0.2-0.2-0.4-0.4-0.5-0.7c-0.2-0.3-0.4-0.4-0.5-0.4c-0.9-0.4-1.5-0.8-1.8-1.5c-0.3-0.6-0.6-1.3-0.9-2c0-0.4,0-0.6,0.1-0.8
			c0.1-0.2,0-0.4-0.1-0.8c-0.5-0.9-0.8-1.8-0.7-2.8c0.1-1,0.2-2,0.1-3.1v-0.8c0.1-0.9,1-2.9,1-2.9v-2.9c0,0-0.9-1.1-0.7-1.6
			c0.2-0.5,0.4-1.1,0.5-1.6c0.2-0.5,0.3-1.2,0.3-2.1c-0.2-0.9-0.3-1.6-0.1-2.3V368c0.2-2,0.4-4,0.5-6c0.1-2,0.3-4.1,0.7-6
			c0-0.5,0.2-1.3,0.5-2.4c0-0.4,0.1-0.7,0.3-1.1c0-0.7,0.2-2,0.5-3.7c0.2-0.4,0.3-0.7,0.3-1.1c0-0.4,0.1-0.7,0.3-1.1
			c0-0.2,0-0.3-0.1-0.4c-0.1-0.1,0-0.3,0.1-0.7c0.2-1.1,0.4-2.2,0.5-3.3c0.2-1.2,0.4-2.4,0.8-3.6c0.2-0.7,0.4-1.4,0.5-2
			c0.2-0.6,0.2-1.4,0-2.3c0-0.5,0.1-1.1,0.3-1.7c0.2-0.6,0.4-1.2,0.5-1.7c0.2-0.9,0.3-1.8,0.4-2.8c0.1-1,0.3-1.9,0.7-2.8l0.8-2.4
			c0.4-0.9,0.6-1.7,0.7-2.5c0.1-0.8,0.4-1.6,0.9-2.5c0.2-0.4,0.2-0.8,0.1-1.2c-0.1-0.4,0-0.8,0.1-1.2c0.4-0.9,0.6-1.7,0.8-2.4
			c0.2-0.7,0.5-1.4,0.8-2.1c0-0.4,0.4-0.9,1.1-1.6c0.7-1.1,1-2,0.8-2.7c0-0.5,0.1-0.9,0.3-1.1c0.7-1.2,1.4-2.5,1.9-3.9
			c0.5-1.3,1.4-2.5,2.4-3.6c0.2-0.2,0.3-0.4,0.3-0.8c0.2-0.4,0.3-0.7,0.3-0.9c0-0.3,0.1-0.5,0.3-0.7c0.4-0.5,0.8-1,1.2-1.5
			c0.4-0.4,0.6-1,0.4-1.7c1.1-1.1,1.9-2,2.4-2.7c-0.5-0.7-0.6-1.4-0.3-2c0.4-0.6,0.7-1.2,1.1-1.7c0.9-1.2,1.9-2.4,2.8-3.6
			c1-1.2,1.9-2.4,2.8-3.6c0.7-0.9,1.4-1.7,1.9-2.4c0.5-0.7,1.2-1.5,1.9-2.4c0.9-1.4,2.2-2.7,3.8-3.7c0.2,0,0.3-0.1,0.3-0.3
			c0.5-1.2,1.8-1.9,3.8-1.9c0.4,0,0.7,0,1.1-0.1c0.4-0.1,0.7-0.1,1.1-0.1c3.3-0.5,6.1,0.1,8.4,1.9c1.6,1.1,5.7,1.2,5.7,1.2h-1.9
			c2.3,0,4.6,0,7,0.1c2.4,0.1,4.6,0.5,6.7,1.2c0.4,0,0.7,0,0.9,0.1c0.2,0.1,0.5,0.1,0.9,0.1c1.5,0.2,2.9,0.5,4,1.1
			c1.1,0.5,2.4,1.2,3.7,1.9c1.1,0.4,2,0.7,2.6,1.1c0.6,0.4,1.1,0.7,1.7,0.9s1.2,0.6,2,0.9c1.1,0.7,1.8,1.5,2,2.4
			c0.6,0.9,1,1.4,1.1,1.6c1,0.5,1.6,1.2,2,1.9c0.4,0.7,0.8,1.5,1.1,2.4l1.7,3.2c0,0.2,0,0.4,0.1,0.5c0.1,0.2,0.1,0.4,0.1,0.8
			c0.2,0.9,0.3,1.8,0.4,2.8c0.1,1,0.3,1.9,0.7,2.8v0.8c-0.2,3,0.5,6.2,2,9.4c0.4,0.7,0.6,1.9,0.6,3.5c-0.4,1.3-0.3,2.3,0.3,3.2
			c0.3,0.3,0.5,0.6,0.6,0.8c0.2,1,0.2,2.1,0.7,3c0.5,1,0.7,2.1,0.5,3.4c-0.2,0.4-0.2,0.6-0.1,0.8c0.1,0.2,0.1,0.4,0.1,0.8
			c0.2,0.2,0.3,0.4,0.3,0.8c-0.4,2.1,0,3.8,1.1,5.1v0.8c-0.4,2-0.4,3.8-0.1,5.5c0.3,1.7,0.5,3.5,0.7,5.5c0.2,0.9,0.4,1.8,0.6,2.8
			c0.2,1,0.1,1.9-0.3,2.8c-0.2,0.4-0.2,0.6-0.1,0.8c0.1,0.2,0.1,0.4,0.1,0.8c0.2,1.8,0.3,3.5,0.4,5.2c0.1,1.7,0.1,3.4,0.1,5.2
			c0,0.9-0.1,1.6-0.3,2.1c0,0.9-0.1,1.8-0.3,2.7c-0.2,0.9-0.3,1.8-0.3,2.7c0,0.7,0.1,1.2,0.3,1.3c0.6,0.9,0.8,1.6,0.6,2.1
			c-0.4,0.9-0.3,1.6,0.3,2.1c0.4,0.7,0.4,1.3,0,1.9c-0.4,1.4-0.8,2.5-1.1,3.2c0,0.5-0.2,1.3-0.6,2.4c0,0.9,0,1.7,0,2.5
			s-0.1,1.7-0.3,2.5c0,0.4,0,0.8-0.1,1.2c-0.1,0.4-0.1,0.9-0.1,1.5c-0.2,0.7-0.2,1.4-0.1,2.1c0.1,0.7,0.6,1.3,1.6,1.9
			c0.2,0.2,0.3,0.4,0.4,0.8c0.1,0.4,0.2,0.7,0.4,1.1c0.4,2.1,0,3.8-1.1,5.1c-0.8,1.1-0.9,2.1-0.3,3.2c0.6,0.7,0.7,1.6,0.3,2.7
			c-0.2,0.9-0.3,1.7-0.4,2.4c-0.1,0.7-0.2,1.4-0.4,2.1c-0.2,0.5-0.3,1.2-0.3,2.1c0.4,1.2,0.1,2.1-0.9,2.7c-0.6,0.4-1.1,0.8-1.6,1.3
			c-0.5,0.5-1,1-1.6,1.3c-0.2,0.4-0.4,0.6-0.6,0.8c-0.2,0.2-0.4,0.4-0.6,0.8c-0.2,0-0.3,0.1-0.3,0.3c-1.3,1.2-2.1,2.6-2.3,4
			c0,0.4-0.4,0.9-1.1,1.6c-1.7,1.6-3.4,3.2-5,4.8c-1.6,1.6-3.1,3.4-4.4,5.4c0,0.2,0,0.3-0.1,0.3c-0.1,0-0.1,0.1-0.1,0.3
			c-1,0.5-1.8,1.2-2.6,1.9c-0.8,0.7-1.5,1.5-2.3,2.4c-0.8,0.7-1.6,1.2-2.4,1.5c-0.9,0.3-1.8,0.6-2.7,0.9c-0.4,0.4-0.8,0.6-1.1,0.7
			c-0.4,0.1-0.8,0.3-1.1,0.7c-1.5,0.9-3,1.4-4.6,1.6c-1.1,0-2.2,0.2-3.3,0.5c-1.1,0.4-2.1,0.6-3.3,0.8c-1.1,0.4-2.2,0.5-3.1,0.5
			c-1.3,0-1.4,0-1.4,0s-2.6-0.7-4.1-1c-1.3-0.2-2.5-0.2-3.7-0.1c-1.2,0.1-2.4,0.1-3.7,0.1c-4.3-0.2-8.6-1.3-12.7-3.5
			c-0.7-0.4-1.4-0.7-2-1.1c-0.6-0.4-1.3-0.7-2-1.1C77,438,76.7,437.8,76.1,437.2z M120.3,312.3c-0.2-0.4-0.3-1-0.3-1.9
			c0-2.1-0.6-4.5-1.9-7c-0.4-0.5-0.8-1.1-1.2-1.7c-0.5-0.6-0.9-1.2-1.2-1.7c-0.7-1.1-1.4-2-2.2-2.9c-0.7-0.9-1.5-1.8-2.4-2.7
			c-0.9-0.5-1.6-1.2-2.2-1.9c-0.5-0.7-1.2-1.5-1.9-2.4c-0.5-0.5-1-1.1-1.5-1.7c-0.5-0.6-0.9-1.2-1.5-1.7c-1.1-0.7-1.9-0.7-2.4,0
			c-0.7,0.9-1.4,1.9-1.9,2.9c-0.5,1.1-0.9,2.3-1.1,3.7c0,1.4-0.4,2.8-1.1,4c-0.4,0.7-0.7,1.4-1.1,2c-0.4,0.6-0.5,1.4-0.5,2.3
			c-0.2,0.7-0.5,2-0.8,3.7c-0.2,0.9-0.3,1.8-0.4,2.7c-0.1,0.9-0.2,1.8-0.4,2.7c0,0.2,0,0.3-0.1,0.4c-0.1,0.1-0.1,0.2-0.1,0.4
			c-0.5,1.4-0.9,2.8-1.2,4.1c-0.3,1.3-0.6,2.7-0.9,4.1c-0.4,1.8-0.7,3.1-1.1,4c-0.2,0.9-0.4,1.8-0.5,2.8c-0.2,1-0.5,2-0.8,3.1
			c-0.4,1.3-0.6,2.5-0.7,3.6c-0.1,1.2-0.3,2.4-0.7,3.6c-0.2,1.1-0.4,2.1-0.5,3.2c-0.2,1.1-0.4,2.1-0.5,3.2l-0.8,6.4
			c0,1.1-0.1,2.1-0.4,3.2c-0.3,1.1-0.2,2.1,0.1,3.2c0.4,0.9,0.6,1.8,0.7,2.7c0.1,0.9,0.2,1.8,0.4,2.7c0,1.1,0.1,1.9,0.3,2.4
			c0.4,1.1,0.6,2.2,0.8,3.5c0.2,1.2,0.4,2.4,0.8,3.5c0.2,0.4,0.3,0.8,0.3,1.3c0.2,1.4,0.3,2.9,0.4,4.3c0.1,1.4,0.3,2.9,0.7,4.3
			c0.2,1.1,0.2,2.1,0,3.1c-0.2,1-0.2,2,0,3.1c0.2,0.5,0.2,1,0.1,1.5c-0.1,0.4,0,0.9,0.4,1.5c0.4,0.2,0.5,0.7,0.5,1.6
			c-0.4,1.4-0.3,2.8,0.1,4.1c0.4,1.3,0.9,2.7,1.2,4.1c0.7,3,2,6.3,3.8,9.9c0.9,2,1.9,4,3,6c1.1,2.1,2.5,3.9,4.3,5.5
			c1.4,1.6,3.1,2.1,4.9,1.3c1.3-0.5,2.3-1.2,3.3-2.1c0.9-0.7,1.7-1.4,2.3-2.1c0.6-0.7,1.3-1.4,2-2.1c1.8-1.4,3-3.5,3.5-6.2
			c0-0.4,0-0.7,0.1-0.9c0.1-0.3,0.1-0.6,0.1-0.9c0.4-1.6,0.7-3.2,1.1-4.7c0.4-1.5,0.7-3.1,1.1-4.7c0.4-1.8,0.5-3,0.5-3.7
			c0.2-0.9,0.4-1.8,0.5-2.7c0.2-0.9,0.3-1.8,0.3-2.7c0.2-1.1-0.1-3.3-0.1-3.3v-3.3c0,0,1-3.8,1-5.5c0.1-1.7,0.3-3.4,0.7-5.2
			c0.4-1.4,0.5-2.8,0.4-4c-0.1-1.2-0.1-2.5-0.1-3.7c-0.2-4.5,0-13.4,0-13.4v-7c0,0-0.3-3.2-0.4-4.7c-0.1-1.5-0.6-4.4-0.6-4.4v-2.5
			c0,0,0.1-1.6-0.1-2.5c0-0.9,0-1.7-0.1-2.4c-0.1-0.7-0.2-1.5-0.4-2.4l-0.3-0.5c-0.4-1.2-0.8-2.4-1.2-3.5c-0.5-1.1-0.9-2.2-1.2-3.5
			c-0.4-0.7-0.5-1.8-0.5-3.2C120.4,314.1,120.3,313.4,120.3,312.3z"/>
		<path class="st1" d="M189.2,437.6c0.5-0.3,0.8-0.4,1-0.1c0.2,0.3,0.4,0.5,0.8,0.6c0.5,0.5,1.1,0.6,1.8,0.3c0-0.3-0.1-0.6-0.3-0.8
			c-1-0.8-2-1.8-2.9-2.8c-0.9-1-2-1.9-3.1-2.8c-0.5-0.3-1-0.8-1.4-1.3c-0.4-0.5-0.9-1-1.4-1.5l-1.8-1.8l-1,1
			c-0.8-0.2-1.4-0.7-1.8-1.6c-0.3-0.9-0.3-1.8,0.3-2.6c0.5,0.2,0.9,0.5,1.3,0.9c0.3,0.4,0.8,0.5,1.5,0.1c0.2-0.7-0.1-1.3-0.8-2
			c-0.5-0.5-1-1-1.4-1.5c-0.4-0.5-0.9-1-1.4-1.5c-0.5-0.5-0.8-0.8-1-0.8c-0.2,0-0.7,0.2-1.5,0.5c-0.7-0.8-1.2-1.6-1.5-2.3
			c-0.3-0.7-0.8-1.4-1.3-2.3c-0.3-0.8-0.8-1.6-1.3-2.4c-0.5-0.8-1-1.6-1.5-2.4c0.8-1.2,0.6-2.4-0.8-3.8c-0.5-0.2-0.6-0.6-0.3-1.3
			c0.3-0.3,0.5-0.8,0.6-1.3c0.1-0.5,0.3-0.9,0.6-1.3c-0.2-0.5-0.5-0.8-1-1c0-0.2,0.1-0.3,0.3-0.5c0.5-0.7,0.6-1.4,0.3-2.3
			c-0.2-0.2-0.3-0.4-0.5-0.6c-0.2-0.3-0.3-0.4-0.5-0.4c-0.8-0.3-1.4-0.8-1.6-1.4c-0.3-0.6-0.5-1.2-0.9-1.9c0-0.3,0-0.6,0.1-0.8
			c0.1-0.2,0-0.4-0.1-0.8c-0.5-0.8-0.7-1.7-0.6-2.6c0.1-0.9,0.2-1.9-0.7-2.9v-0.8c0.9-0.8,1-2.8,1-2.8v-2.8c0,0-0.1-1,0-1.5
			c0.2-0.5,0.3-1,0.5-1.5c0.2-0.5,0.3-1.2,0.3-2c-0.2-0.8-0.3-1.6,0.2-2.1v-2.1c-0.1-1.8,0.1-3.7,0.2-5.7c0.1-1.9,0.3-3.8,0.6-5.7
			c0-0.5,0.2-1.3,0.5-2.3c0-0.3,0.1-0.7,0.3-1c0-0.7,0.2-1.8,0.5-3.5c0.2-0.3,0.3-0.7,0.3-1c0-0.3,0.1-0.7,0.3-1
			c0-0.2,0-0.3-0.1-0.4c-0.1-0.1,0-0.3,0.1-0.6c0.2-1,0.3-2.1,0.5-3.1c0.2-1.1,0.4-2.2,0.8-3.4c0.2-0.7,0.3-1.3,0.5-1.9
			c0.2-0.6,0.2-1.3,0-2.1c0-0.5,0.1-1,0.3-1.6c0.2-0.6,0.3-1.1,0.5-1.6c0.2-0.8,0.3-1.7,0.4-2.6c0.1-0.9,0.3-1.8,0.6-2.6l0.8-2.3
			c0.3-0.8,0.5-1.6,0.6-2.4c0.1-0.8,0.4-1.5,0.9-2.4c0.2-0.3,0.2-0.7,0.1-1.1c-0.1-0.4,0-0.8,0.1-1.1c0.3-0.8,0.6-1.6,0.8-2.3
			c0.2-0.7,0.4-1.3,0.8-2c0-0.3,0.3-0.8,1-1.5c0.7-1,0.9-1.8,0.8-2.5c0-0.5,0.1-0.8,0.3-1c0.7-1.2,1.3-2.4,1.8-3.7
			c0.5-1.3,1.3-2.4,2.3-3.4c0.2-0.2,0.3-0.4,0.3-0.8c0.2-0.3,0.3-0.6,0.3-0.9s0.1-0.5,0.3-0.6c0.3-0.5,0.7-1,1.1-1.4
			c0.4-0.4,0.5-1,0.4-1.6c1-1,1.8-1.8,2.3-2.5c-0.5-0.7-0.6-1.3-0.3-1.9c0.3-0.6,0.7-1.1,1-1.6c0.8-1.2,1.7-2.3,2.6-3.4
			c0.9-1.1,1.8-2.2,2.6-3.4c0.7-0.8,1.3-1.6,1.8-2.3s1.1-1.4,1.8-2.3c0.8-1.3,2-2.5,3.5-3.5c0.2,0,0.3-0.1,0.3-0.3
			c0.5-1.2,1.7-1.8,3.5-1.8c0.3,0,0.7,0,1-0.1c0.3-0.1,0.7-0.1,1-0.1c3-0.5,5.6,0.1,7.8,1.8c1.5,1,5.3,0.9,5.3,0.9h3
			c1.9,0,3.8,0,5.8,0.1c2,0.1,3.8,0.5,5.6,1.1c0.3,0,0.6,0,0.7,0.1c0.2,0.1,0.4,0.1,0.7,0.1c1.3,0.2,2.4,0.5,3.3,1
			c1,0.5,2,1.1,3.1,1.8c1,0.3,1.7,0.7,2.1,1c0.5,0.3,1,0.6,1.4,0.9c0.5,0.3,1,0.6,1.7,0.9c1,0.7,1.5,1.4,1.7,2.3
			c0.5,0.8,0.8,1.3,1,1.5c0.8,0.5,1.3,1.1,1.7,1.8c0.3,0.7,0.6,1.4,1,2.3l1.4,3c0,0.2,0,0.3,0.1,0.5c0.1,0.2,0.1,0.4,0.1,0.8
			c0.2,0.8,0.3,1.7,0.4,2.6c0.1,0.9,0.3,1.8,0.6,2.6v0.8c-0.2,2.9,0.4,5.8,1.7,8.8c0.3,0.7,0.5,1.8,0.5,3.3c-0.3,1.2-0.2,2.2,0.2,3
			c0.3,0.3,0.5,0.6,0.5,0.8c0,1,0.2,2,0.6,2.9c0.4,0.9,0.5,2,0.4,3.2c-0.2,0.3-0.2,0.6-0.1,0.8c0.1,0.2,0.1,0.4,0.1,0.8
			c0.2,0.2,0.2,0.4,0.2,0.8c-0.3,2,0,3.6,1,4.8v0.8c-0.3,1.9-0.4,3.6-0.1,5.2c0.2,1.6,0.4,3.3,0.6,5.2c0.2,0.8,0.3,1.7,0.5,2.6
			c0.2,0.9,0.1,1.8-0.2,2.6c-0.2,0.3-0.2,0.6-0.1,0.8c0.1,0.2,0.1,0.4,0.1,0.8c0.2,1.7,0.3,3.3,0.4,4.9c0.1,1.6,0.1,3.2,0.1,4.9
			c0,0.8-0.1,1.5-0.2,2c0,0.8-0.1,1.7-0.2,2.5c-0.2,0.8-0.2,1.7-0.2,2.5c0,0.7,0.1,1.1,0.2,1.3c0.5,0.8,0.6,1.5,0.5,2
			c-0.3,0.8-0.2,1.5,0.2,2c0.3,0.7,0.3,1.3,0,1.8c-0.3,1.4-0.6,2.4-1,3c0,0.5-0.2,1.3-0.5,2.3c0,0.8,0,1.6,0,2.4
			c0,0.8-0.1,1.6-0.2,2.4c0,0.3,0,0.7-0.1,1.1c-0.1,0.4-0.1,0.9-0.1,1.4c-0.2,0.7-0.2,1.4-0.1,2c0.1,0.7,0.5,1.3,1.3,1.8
			c0.2,0.2,0.3,0.4,0.4,0.8c0.1,0.3,0.2,0.7,0.4,1c0.3,2,0,3.6-1,4.8c-0.6,1-0.7,2-0.2,3c0.5,0.7,0.6,1.5,0.2,2.5
			c-0.2,0.8-0.3,1.6-0.4,2.3c-0.1,0.7-0.2,1.3-0.4,2c-0.2,0.5-0.2,1.2-0.2,2c0.3,1.2,0.1,2-0.7,2.5c-0.5,0.3-0.9,0.8-1.3,1.3
			c-0.4,0.5-0.8,0.9-1.3,1.3c-0.2,0.3-0.3,0.6-0.5,0.8c-0.2,0.2-0.3,0.4-0.5,0.8c-0.2,0-0.2,0.1-0.2,0.3c-1.1,1.2-1.7,2.4-1.9,3.8
			c0,0.3-0.3,0.8-1,1.5c-1.4,1.5-2.8,3-4.2,4.5c-1.4,1.5-2.6,3.2-3.7,5c0,0.2,0,0.3-0.1,0.3c-0.1,0-0.1,0.1-0.1,0.3
			c-0.8,0.5-1.5,1.1-2.1,1.8c-0.6,0.7-1.3,1.4-1.9,2.3c-0.6,0.7-1.3,1.1-2,1.4c-0.7,0.3-1.5,0.5-2.3,0.9c-0.3,0.3-0.6,0.5-1,0.6
			c-0.3,0.1-0.6,0.3-1,0.6c-1.3,0.8-2.5,1.4-3.8,1.5c-1,0-1.9,0.2-2.7,0.5c-0.9,0.3-1.8,0.6-2.7,0.8c-1,0.3-1.8,0.5-2.6,0.5
			c-1.1,0-6,0-6,0s-2.4-0.7-3.8-1c-1.2-0.2-2.3-0.2-3.4-0.1c-1.1,0.1-2.2,0.1-3.4,0.1c-4-0.2-8-1.3-11.8-3.3c-0.7-0.3-1.3-0.7-1.9-1
			c-0.6-0.3-1.2-0.7-1.9-1C190,438.4,189.7,438.1,189.2,437.6z M230.2,320.1c-0.2-0.3-0.3-0.9-0.3-1.8c0-2-0.6-4.2-1.8-6.5
			c-0.3-0.5-0.7-1-1.1-1.6c-0.4-0.6-0.8-1.1-1.1-1.6c-0.7-1-1.3-1.9-2-2.8c-0.7-0.8-1.4-1.7-2.3-2.5c-0.8-0.5-1.5-1.1-2-1.8
			c-0.5-0.7-1.1-1.4-1.8-2.3c-0.5-0.5-1-1-1.4-1.6c-0.4-0.6-0.9-1.1-1.4-1.6c-1-0.7-1.8-0.7-2.3,0c-0.7,0.8-1.3,1.8-1.8,2.8
			s-0.8,2.2-1,3.5c0,1.3-0.3,2.6-1,3.8c-0.3,0.7-0.7,1.3-1,1.9c-0.3,0.6-0.5,1.3-0.5,2.1c-0.2,0.7-0.4,1.8-0.8,3.5
			c-0.2,0.8-0.3,1.7-0.4,2.5c-0.1,0.8-0.2,1.7-0.4,2.5c0,0.2,0,0.3-0.1,0.4c-0.1,0.1-0.1,0.2-0.1,0.4c-0.5,1.3-0.9,2.6-1.1,3.9
			c-0.3,1.3-0.5,2.6-0.9,3.9c-0.3,1.7-0.7,2.9-1,3.8c-0.2,0.8-0.3,1.7-0.5,2.6c-0.2,0.9-0.4,1.9-0.8,2.9c-0.3,1.2-0.5,2.3-0.6,3.4
			c-0.1,1.1-0.3,2.2-0.6,3.4c-0.2,1-0.3,2-0.5,3c-0.2,1-0.3,2-0.5,3l-0.8,6c0,1-0.1,2-0.4,3s-0.2,2,0.1,3c0.3,0.8,0.5,1.7,0.6,2.5
			c0.1,0.8,0.2,1.7,0.4,2.5c0,1,0.1,1.8,0.3,2.3c0.3,1,0.6,2.1,0.8,3.3c0.2,1.2,0.4,2.3,0.8,3.3c0.2,0.3,0.3,0.8,0.3,1.3
			c0.2,1.3,0.3,2.7,0.4,4c0.1,1.3,0.3,2.7,0.6,4c0.2,1,0.2,2,0,2.9c-0.2,0.9-0.2,1.9,0,2.9c0.2,0.5,0.2,1,0.1,1.4
			c-0.1,0.4,0,0.9,0.4,1.4c0.3,0.2,0.5,0.7,0.5,1.5c-0.3,1.3-0.3,2.6,0.1,3.9c0.4,1.3,0.8,2.6,1.1,3.9c0.7,2.9,1.8,6,3.5,9.3
			c0.8,1.8,1.8,3.7,2.8,5.7c1,1.9,2.3,3.7,4,5.2c1.3,1.5,2.9,1.9,4.5,1.3c1.2-0.5,2.2-1.2,3-2c0.8-0.7,1.5-1.3,2.1-2
			c0.6-0.7,1.2-1.3,1.9-2c1.7-1.3,2.8-3.3,3.3-5.8c0-0.3,0-0.6,0.1-0.9c0.1-0.3,0.1-0.5,0.1-0.9c0.3-1.5,0.7-3,1-4.4
			c0.3-1.4,0.7-2.9,1-4.4c0.3-1.7,0.5-2.9,0.5-3.5c0.2-0.8,0.3-1.7,0.5-2.5c0.2-0.8,0.3-1.7,0.3-2.5c0.2-1,0.2-3.1,0.2-3.1v-3.1
			c0,0,0.5-3.6,0.6-5.2c0.1-1.6,0.3-3.2,0.6-4.9c0.3-1.3,0.5-2.6,0.4-3.8c-0.1-1.2-0.1-2.3-0.1-3.5c-0.2-4.2,0.5-12.6,0.5-12.6V350
			c0,0-0.8-3-0.9-4.4c-0.1-1.4-0.1-4.2-0.1-4.2v-2.4c0,0-0.3-1.6-0.5-2.4c0-0.8,0-1.6-0.1-2.3c-0.1-0.7-0.2-1.4-0.4-2.3l-0.3-0.5
			c-0.3-1.2-0.7-2.3-1.1-3.3c-0.4-1-0.8-2.1-1.1-3.3c-0.3-0.7-0.5-1.7-0.5-3C230.3,321.7,230.2,321.1,230.2,320.1z"/>
		<path class="st1" d="M358.5,437.6c-0.6-0.3-1-0.4-1.2-0.1c-0.2,0.3-0.5,0.5-0.9,0.6c-0.6,0.5-1.3,0.6-2.1,0.3
			c0-0.3,0.1-0.6,0.3-0.8c1.2-0.8,2.4-1.8,3.5-2.8c1.1-1,2.4-1.9,3.8-2.8c0.6-0.3,1.2-0.8,1.7-1.3c0.5-0.5,1.1-1,1.7-1.5l2.1-1.8
			l1.2,1c1-0.2,1.7-0.7,2.1-1.6c0.4-0.9,0.3-1.8-0.3-2.6c-0.6,0.2-1.1,0.5-1.5,0.9c-0.4,0.4-1,0.5-1.8,0.1c-0.2-0.7,0.1-1.3,0.9-2
			c0.6-0.5,1.2-1,1.7-1.5c0.5-0.5,1.1-1,1.7-1.5c0.6-0.5,1-0.8,1.2-0.8c0.2,0,0.8,0.2,1.8,0.5c0.8-0.8,1.4-1.6,1.8-2.3
			c0.4-0.7,0.9-1.4,1.5-2.3c0.4-0.8,0.9-1.6,1.5-2.4c0.6-0.8,1.2-1.6,1.8-2.4c-1-1.2-0.7-2.4,0.9-3.8c0.6-0.2,0.7-0.6,0.3-1.3
			c-0.4-0.3-0.6-0.8-0.8-1.3c-0.1-0.5-0.3-0.9-0.8-1.3c0.2-0.5,0.6-0.8,1.2-1c0-0.2-0.1-0.3-0.3-0.5c-0.6-0.7-0.7-1.4-0.3-2.3
			c0.2-0.2,0.4-0.4,0.6-0.6c0.2-0.3,0.4-0.4,0.6-0.4c1-0.3,1.7-0.8,2-1.4c0.3-0.6,0.7-1.2,1.1-1.9c0-0.3,0-0.6-0.2-0.8
			c-0.1-0.2,0-0.4,0.2-0.8c0.6-0.8,0.9-1.7,0.8-2.6c-0.1-0.9-0.2-1.9-0.5-2.9v-0.8c0.3-0.8,1-2.8,1-2.8v-2.8c0,0-0.7-1-0.9-1.5
			c-0.2-0.5-0.4-1-0.6-1.5c-0.2-0.5-0.3-1.2-0.3-2c0.2-0.8,0.3-1.6-0.2-2.1v-2.1c0.1-1.8-0.2-3.7-0.3-5.7c-0.1-1.9-0.3-3.8-0.8-5.7
			c0-0.5-0.2-1.3-0.6-2.3c0-0.3-0.1-0.7-0.3-1c0-0.7-0.2-1.8-0.6-3.5c-0.2-0.3-0.3-0.7-0.3-1c0-0.3-0.1-0.7-0.3-1
			c0-0.2,0.1-0.3,0.2-0.4c0.1-0.1,0.1-0.3-0.2-0.6c-0.2-1-0.4-2.1-0.6-3.1c-0.2-1.1-0.5-2.2-0.9-3.4c-0.2-0.7-0.4-1.3-0.6-1.9
			c-0.2-0.6-0.2-1.3,0-2.1c0-0.5-0.1-1-0.3-1.6c-0.2-0.6-0.4-1.1-0.6-1.6c-0.2-0.8-0.3-1.7-0.5-2.6c-0.1-0.9-0.3-1.8-0.8-2.6
			l-0.9-2.3c-0.4-0.8-0.6-1.6-0.8-2.4c-0.1-0.8-0.5-1.5-1.1-2.4c-0.2-0.3-0.2-0.7-0.2-1.1c0.1-0.4,0.1-0.8-0.1-1.1
			c-0.4-0.8-0.7-1.6-0.9-2.3c-0.2-0.7-0.5-1.3-0.9-2c0-0.3-0.4-0.8-1.2-1.5c-0.8-1-1.1-1.8-0.9-2.5c0-0.5-0.1-0.8-0.3-1
			c-0.8-1.2-1.5-2.4-2.1-3.7c-0.6-1.3-1.5-2.4-2.7-3.4c-0.2-0.2-0.3-0.4-0.3-0.8c-0.2-0.3-0.3-0.6-0.3-0.9s-0.1-0.5-0.3-0.6
			c-0.4-0.5-0.9-1-1.4-1.4c-0.5-0.4-0.6-1-0.5-1.6c-1.2-1-2.1-1.8-2.7-2.5c0.6-0.7,0.7-1.3,0.3-1.9c-0.4-0.6-0.8-1.1-1.2-1.6
			c-1-1.2-2.1-2.3-3.2-3.4c-1.1-1.1-2.2-2.2-3.2-3.4c-0.8-0.8-1.5-1.6-2.1-2.3s-1.3-1.4-2.1-2.3c-1-1.3-2.4-2.5-4.2-3.5
			c-0.2,0-0.3-0.1-0.3-0.3c-0.6-1.2-2-1.8-4.2-1.8c-0.4,0-0.8,0-1.2-0.1c-0.4-0.1-0.8-0.1-1.2-0.1c-3.6-0.5-6.7,0.1-9.3,1.8
			c-1.8,1-6.3,0.9-6.3,0.9h-3.2c-2.3,0-4.6,0-7,0.1c-2.4,0.1-4.6,0.5-6.7,1.1c-0.4,0-0.7,0-0.9,0.1c-0.2,0.1-0.5,0.1-0.9,0.1
			c-1.5,0.2-2.9,0.5-4,1c-1.1,0.5-2.4,1.1-3.7,1.8c-1.1,0.3-2,0.7-2.6,1c-0.6,0.3-1.1,0.6-1.7,0.9c-0.6,0.3-1.2,0.6-2,0.9
			c-1.1,0.7-1.8,1.4-2,2.3c-0.6,0.8-1,1.3-1.1,1.5c-1,0.5-1.6,1.1-2,1.8c-0.4,0.7-0.8,1.4-1.1,2.3l-1.7,3c0,0.2,0,0.3-0.1,0.5
			c-0.1,0.2-0.1,0.4-0.1,0.8c-0.2,0.8-0.3,1.7-0.4,2.6c-0.1,0.9-0.3,1.8-0.7,2.6v0.8c0.2,2.9-0.5,5.8-2,8.8
			c-0.4,0.7-0.6,1.8-0.6,3.3c0.4,1.2,0.3,2.2-0.3,3c-0.4,0.3-0.6,0.6-0.6,0.8c0,1-0.2,2-0.7,2.9c-0.5,0.9-0.6,2-0.4,3.2
			c0.2,0.3,0.2,0.6,0.1,0.8c-0.1,0.2-0.1,0.4-0.1,0.8c-0.2,0.2-0.3,0.4-0.3,0.8c0.4,2,0,3.6-1.1,4.8v0.8c0.4,1.9,0.4,3.6,0.1,5.2
			c-0.3,1.6-0.5,3.3-0.7,5.2c-0.2,0.8-0.4,1.7-0.6,2.6c-0.2,0.9-0.1,1.8,0.3,2.6c0.2,0.3,0.2,0.6,0.1,0.8c-0.1,0.2-0.1,0.4-0.1,0.8
			c-0.2,1.7-0.3,3.3-0.4,4.9c-0.1,1.6-0.1,3.2-0.1,4.9c0,0.8,0.1,1.5,0.3,2c0,0.8,0.1,1.7,0.3,2.5c0.2,0.8,0.3,1.7,0.3,2.5
			c0,0.7-0.1,1.1-0.3,1.3c-0.6,0.8-0.8,1.5-0.6,2c0.4,0.8,0.3,1.5-0.3,2c-0.4,0.7-0.4,1.3,0,1.8c0.4,1.4,0.8,2.4,1.1,3
			c0,0.5,0.2,1.3,0.6,2.3c0,0.8,0,1.6,0,2.4c0,0.8,0.1,1.6,0.3,2.4c0,0.3,0,0.7,0.1,1.1c0.1,0.4,0.1,0.9,0.1,1.4
			c0.2,0.7,0.2,1.4,0.1,2c-0.1,0.7-0.6,1.3-1.6,1.8c-0.2,0.2-0.3,0.4-0.4,0.8c-0.1,0.3-0.2,0.7-0.4,1c-0.4,2,0,3.6,1.1,4.8
			c0.8,1,0.9,2,0.3,3c-0.6,0.7-0.7,1.5-0.3,2.5c0.2,0.8,0.3,1.6,0.4,2.3c0.1,0.7,0.2,1.3,0.4,2c0.2,0.5,0.3,1.2,0.3,2
			c-0.4,1.2-0.1,2,0.9,2.5c0.6,0.3,1.1,0.8,1.6,1.3c0.5,0.5,1,0.9,1.6,1.3c0.2,0.3,0.4,0.6,0.6,0.8c0.2,0.2,0.4,0.4,0.6,0.8
			c0.2,0,0.3,0.1,0.3,0.3c1.3,1.2,2.1,2.4,2.3,3.8c0,0.3,0.4,0.8,1.1,1.5c1.7,1.5,3.4,3,5,4.5c1.6,1.5,3.1,3.2,4.4,5
			c0,0.2,0,0.3,0.1,0.3c0.1,0,0.1,0.1,0.1,0.3c1,0.5,1.8,1.1,2.6,1.8c0.8,0.7,1.5,1.4,2.3,2.3c0.8,0.7,1.6,1.1,2.4,1.4
			c0.9,0.3,1.8,0.5,2.7,0.9c0.4,0.3,0.8,0.5,1.1,0.6c0.4,0.1,0.8,0.3,1.1,0.6c1.5,0.8,3,1.4,4.6,1.5c1.1,0,2.2,0.2,3.3,0.5
			c1.1,0.3,2.1,0.6,3.3,0.8c1.1,0.3,2.2,0.5,3.1,0.5c1.3,0,6.8,0,6.8,0s2.9-0.7,4.5-1c1.4-0.2,2.8-0.2,4.1-0.1
			c1.3,0.1,2.7,0.1,4.1,0.1c4.8-0.2,9.5-1.3,14.1-3.3c0.8-0.3,1.6-0.7,2.3-1c0.7-0.3,1.5-0.7,2.3-1
			C357.5,438.4,357.9,438.1,358.5,437.6z M309.5,320.1c0.2-0.3,0.3-0.9,0.3-1.8c0-2,0.7-4.2,2.1-6.5c0.4-0.5,0.9-1,1.4-1.6
			c0.5-0.6,1-1.1,1.4-1.6c0.8-1,1.6-1.9,2.4-2.8c0.8-0.8,1.7-1.7,2.7-2.5c1-0.5,1.8-1.1,2.4-1.8c0.6-0.7,1.3-1.4,2.1-2.3
			c0.6-0.5,1.2-1,1.7-1.6c0.5-0.6,1.1-1.1,1.7-1.6c1.2-0.7,2.1-0.7,2.7,0c0.8,0.8,1.5,1.8,2.1,2.8s1,2.2,1.2,3.5
			c0,1.3,0.4,2.6,1.2,3.8c0.4,0.7,0.8,1.3,1.2,1.9c0.4,0.6,0.6,1.3,0.6,2.1c0.2,0.7,0.5,1.8,0.9,3.5c0.2,0.8,0.4,1.7,0.5,2.5
			c0.1,0.8,0.3,1.7,0.5,2.5c0,0.2,0.1,0.3,0.2,0.4c0.1,0.1,0.1,0.2,0.1,0.4c0.6,1.3,1.1,2.6,1.4,3.9c0.3,1.3,0.7,2.6,1.1,3.9
			c0.4,1.7,0.8,2.9,1.2,3.8c0.2,0.8,0.4,1.7,0.6,2.6c0.2,0.9,0.5,1.9,0.9,2.9c0.4,1.2,0.7,2.3,0.8,3.4c0.1,1.1,0.4,2.2,0.8,3.4
			c0.2,1,0.4,2,0.6,3c0.2,1,0.4,2,0.6,3l0.9,6c0,1,0.2,2,0.5,3c0.3,1,0.3,2-0.2,3c-0.4,0.8-0.6,1.7-0.8,2.5
			c-0.1,0.8-0.2,1.7-0.5,2.5c0,1-0.1,1.8-0.3,2.3c-0.4,1-0.7,2.1-0.9,3.3c-0.2,1.2-0.5,2.3-0.9,3.3c-0.2,0.3-0.3,0.8-0.3,1.3
			c-0.2,1.3-0.3,2.7-0.5,4c-0.1,1.3-0.3,2.7-0.8,4c-0.2,1-0.2,2,0,2.9c0.2,0.9,0.2,1.9,0,2.9c-0.2,0.5-0.2,1-0.2,1.4
			c0.1,0.4,0,0.9-0.5,1.4c-0.4,0.2-0.6,0.7-0.6,1.5c0.4,1.3,0.4,2.6-0.2,3.9c-0.5,1.3-0.9,2.6-1.4,3.9c-0.8,2.9-2.2,6-4.2,9.3
			c-1,1.8-2.1,3.7-3.3,5.7c-1.2,1.9-2.8,3.7-4.8,5.2c-1.6,1.5-3.4,1.9-5.4,1.3c-1.4-0.5-2.6-1.2-3.6-2c-1-0.7-1.8-1.3-2.6-2
			c-0.7-0.7-1.5-1.3-2.3-2c-2-1.3-3.3-3.3-3.9-5.8c0-0.3,0-0.6-0.1-0.9c-0.1-0.3-0.2-0.5-0.2-0.9c-0.4-1.5-0.8-3-1.2-4.4
			c-0.4-1.4-0.8-2.9-1.2-4.4c-0.4-1.7-0.6-2.9-0.6-3.5c-0.2-0.8-0.4-1.7-0.6-2.5c-0.2-0.8-0.3-1.7-0.3-2.5c-0.2-1-0.4-3.1-0.4-3.1
			v-3.1c0,0-0.5-3.6-0.6-5.2c-0.1-1.6-0.3-3.2-0.8-4.9c-0.4-1.3-0.6-2.6-0.5-3.8c0.1-1.2,0.2-2.3,0.2-3.5c0.2-4.2-0.3-12.6-0.3-12.6
			V350c0,0,0.7-3,0.8-4.4c0.1-1.4,0.2-4.2,0.2-4.2v-2.4c0,0,0.3-1.6,0.5-2.4c0-0.8,0.1-1.6,0.2-2.3c0.1-0.7,0.3-1.4,0.5-2.3l0.3-0.5
			c0.4-1.2,0.9-2.3,1.4-3.3c0.5-1,1-2.1,1.4-3.3c0.4-0.7,0.6-1.7,0.6-3C309.4,321.7,309.5,321.1,309.5,320.1z"/>
		<path class="st1" d="M422.8,437.2c0.6-0.4,1-0.4,1.2-0.1c0.2,0.3,0.5,0.5,0.9,0.7c0.6,0.5,1.3,0.6,2.1,0.3c0-0.4-0.1-0.6-0.3-0.8
			c-1.2-0.9-2.3-1.9-3.4-2.9c-1.1-1.1-2.3-2-3.7-2.9c-0.6-0.4-1.1-0.8-1.6-1.3c-0.5-0.5-1-1.1-1.6-1.6l-2.1-1.9l-1.2,1.1
			c-1-0.2-1.7-0.8-2.1-1.7c-0.4-1-0.3-1.9,0.3-2.8c0.6,0.2,1.1,0.5,1.5,0.9c0.4,0.4,1,0.5,1.8,0.1c0.2-0.7-0.1-1.4-0.9-2.1
			c-0.6-0.5-1.1-1.1-1.6-1.6c-0.5-0.5-1-1.1-1.6-1.6c-0.6-0.5-1-0.8-1.2-0.8c-0.2,0-0.8,0.2-1.8,0.5c-0.8-0.9-1.4-1.7-1.8-2.4
			c-0.4-0.7-0.9-1.5-1.5-2.4c-0.4-0.9-0.9-1.7-1.5-2.5c-0.6-0.8-1.2-1.6-1.8-2.5c1-1.2,0.7-2.6-0.9-4c-0.6-0.2-0.7-0.6-0.3-1.3
			c0.4-0.4,0.6-0.8,0.7-1.3c0.1-0.5,0.3-1,0.7-1.3c-0.2-0.5-0.6-0.9-1.2-1.1c0-0.2,0.1-0.4,0.3-0.5c0.6-0.7,0.7-1.5,0.3-2.4
			c-0.2-0.2-0.4-0.4-0.6-0.7c-0.2-0.3-0.4-0.4-0.6-0.4c-1-0.4-1.6-0.8-1.9-1.5c-0.3-0.6-0.6-1.3-1-2c0-0.4,0-0.6,0.1-0.8
			c0.1-0.2,0-0.4-0.1-0.8c-0.6-0.9-0.8-1.8-0.7-2.8c0.1-1,0.2-2,0.7-3.1v-0.8c-0.5-0.9,0-2.9,0-2.9v-2.9c0,0-0.5-1.1-0.3-1.6
			c0.2-0.5,0.4-1.1,0.6-1.6c0.2-0.5,0.3-1.2,0.3-2.1c-0.2-0.9-0.3-1.6-0.6-2.3V368c0.7-2,0.9-4,1-6c0.1-2,0.3-4.1,0.7-6
			c0-0.5,0.2-1.3,0.6-2.4c0-0.4,0.1-0.7,0.3-1.1c0-0.7,0.2-2,0.6-3.7c0.2-0.4,0.3-0.7,0.3-1.1c0-0.4,0.1-0.7,0.3-1.1
			c0-0.2-0.1-0.3-0.1-0.4c-0.1-0.1-0.1-0.3,0.1-0.7c0.2-1.1,0.4-2.2,0.6-3.3c0.2-1.2,0.5-2.4,0.9-3.6c0.2-0.7,0.4-1.4,0.6-2
			c0.2-0.6,0.2-1.4,0-2.3c0-0.5,0.1-1.1,0.3-1.7c0.2-0.6,0.4-1.2,0.6-1.7c0.2-0.9,0.3-1.8,0.4-2.8c0.1-1,0.3-1.9,0.7-2.8l0.9-2.4
			c0.4-0.9,0.6-1.7,0.7-2.5c0.1-0.8,0.4-1.6,1-2.5c0.2-0.4,0.2-0.8,0.1-1.2c-0.1-0.4-0.1-0.8,0.1-1.2c0.4-0.9,0.7-1.7,0.9-2.4
			c0.2-0.7,0.5-1.4,0.9-2.1c0-0.4,0.4-0.9,1.2-1.6c0.8-1.1,1.1-2,0.9-2.7c0-0.5,0.1-0.9,0.3-1.1c0.8-1.2,1.5-2.5,2.1-3.9
			c0.6-1.3,1.5-2.5,2.7-3.6c0.2-0.2,0.3-0.4,0.3-0.8c0.2-0.4,0.3-0.7,0.3-0.9c0-0.3,0.1-0.5,0.3-0.7c0.4-0.5,0.8-1,1.3-1.5
			c0.5-0.4,0.6-1,0.4-1.7c1.2-1.1,2.1-2,2.7-2.7c-0.6-0.7-0.7-1.4-0.3-2c0.4-0.6,0.8-1.2,1.2-1.7c1-1.2,2-2.4,3.1-3.6
			c1.1-1.2,2.1-2.4,3.1-3.6c0.8-0.9,1.5-1.7,2.1-2.4c0.6-0.7,1.3-1.5,2.1-2.4c1-1.4,2.4-2.7,4.1-3.7c0.2,0,0.3-0.1,0.3-0.3
			c0.6-1.2,2-1.9,4.1-1.9c0.4,0,0.8,0,1.2-0.1c0.4-0.1,0.8-0.1,1.2-0.1c3.6-0.5,6.6,0.1,9.2,1.9c1.8,1.1,6.2,1.2,6.2,1.2h2.3
			c2.3,0,4.6,0,7,0.1c2.4,0.1,4.6,0.5,6.7,1.2c0.4,0,0.7,0,0.9,0.1c0.2,0.1,0.5,0.1,0.9,0.1c1.5,0.2,2.9,0.5,4,1.1
			c1.1,0.5,2.4,1.2,3.7,1.9c1.1,0.4,2,0.7,2.6,1.1c0.6,0.4,1.1,0.7,1.7,0.9s1.2,0.6,2,0.9c1.1,0.7,1.8,1.5,2,2.4
			c0.6,0.9,1,1.4,1.1,1.6c1,0.5,1.6,1.2,2,1.9c0.4,0.7,0.8,1.5,1.1,2.4l1.7,3.2c0,0.2,0,0.4,0.1,0.5c0.1,0.2,0.1,0.4,0.1,0.8
			c0.2,0.9,0.3,1.8,0.4,2.8c0.1,1,0.3,1.9,0.7,2.8v0.8c-0.2,3,0.5,6.2,2,9.4c0.4,0.7,0.6,1.9,0.6,3.5c-0.4,1.3-0.3,2.3,0.3,3.2
			c0.4,0.4,0.6,0.6,0.6,0.8c0,1.1,0.2,2.1,0.7,3.1c0.5,1,0.6,2.1,0.4,3.3c-0.2,0.4-0.2,0.6-0.1,0.8c0.1,0.2,0.1,0.4,0.1,0.8
			c0.2,0.2,0.3,0.4,0.3,0.8c-0.4,2.1,0,3.8,1.1,5.1v0.8c-0.4,2-0.4,3.8-0.1,5.5c0.3,1.7,0.5,3.5,0.7,5.5c0.2,0.9,0.4,1.8,0.6,2.8
			c0.2,1,0.1,1.9-0.3,2.8c-0.2,0.4-0.2,0.6-0.1,0.8c0.1,0.2,0.1,0.4,0.1,0.8c0.2,1.8,0.3,3.5,0.4,5.2c0.1,1.7,0.1,3.4,0.1,5.2
			c0,0.9-0.1,1.6-0.3,2.1c0,0.9-0.1,1.8-0.3,2.7c-0.2,0.9-0.3,1.8-0.3,2.7c0,0.7,0.1,1.2,0.3,1.3c0.6,0.9,0.8,1.6,0.6,2.1
			c-0.4,0.9-0.3,1.6,0.3,2.1c0.4,0.7,0.4,1.3,0,1.9c-0.4,1.4-0.8,2.5-1.1,3.2c0,0.5-0.2,1.3-0.6,2.4c0,0.9,0,1.7,0,2.5
			s-0.1,1.7-0.3,2.5c0,0.4,0,0.8-0.1,1.2c-0.1,0.4-0.1,0.9-0.1,1.5c-0.2,0.7-0.2,1.4-0.1,2.1c0.1,0.7,0.6,1.3,1.6,1.9
			c0.2,0.2,0.3,0.4,0.4,0.8c0.1,0.4,0.2,0.7,0.4,1.1c0.4,2.1,0,3.8-1.1,5.1c-0.8,1.1-0.9,2.1-0.3,3.2c0.6,0.7,0.7,1.6,0.3,2.7
			c-0.2,0.9-0.3,1.7-0.4,2.4c-0.1,0.7-0.2,1.4-0.4,2.1c-0.2,0.5-0.3,1.2-0.3,2.1c0.4,1.2,0.1,2.1-0.9,2.7c-0.6,0.4-1.1,0.8-1.6,1.3
			c-0.5,0.5-1,1-1.6,1.3c-0.2,0.4-0.4,0.6-0.6,0.8c-0.2,0.2-0.4,0.4-0.6,0.8c-0.2,0-0.3,0.1-0.3,0.3c-1.3,1.2-2.1,2.6-2.3,4
			c0,0.4-0.4,0.9-1.1,1.6c-1.7,1.6-3.4,3.2-5,4.8c-1.6,1.6-3.1,3.4-4.4,5.4c0,0.2,0,0.3-0.1,0.3c-0.1,0-0.1,0.1-0.1,0.3
			c-1,0.5-1.8,1.2-2.6,1.9c-0.8,0.7-1.5,1.5-2.3,2.4c-0.8,0.7-1.6,1.2-2.4,1.5c-0.9,0.3-1.8,0.6-2.7,0.9c-0.4,0.4-0.8,0.6-1.1,0.7
			c-0.4,0.1-0.8,0.3-1.1,0.7c-1.5,0.9-3,1.4-4.6,1.6c-1.1,0-2.2,0.2-3.3,0.5c-1.1,0.4-2.1,0.6-3.3,0.8c-1.1,0.4-2.2,0.5-3.1,0.5
			c-1.3,0-5.9,0-5.9,0s-2.9-0.7-4.4-1c-1.4-0.2-2.7-0.2-4-0.1c-1.3,0.1-2.6,0.1-4,0.1c-4.7-0.2-9.4-1.3-13.9-3.5
			c-0.8-0.4-1.5-0.7-2.2-1.1c-0.7-0.4-1.4-0.7-2.2-1.1C423.8,438,423.4,437.8,422.8,437.2z M471.1,312.3c-0.2-0.4-0.3-1-0.3-1.9
			c0-2.1-0.7-4.5-2.1-7c-0.4-0.5-0.8-1.1-1.3-1.7c-0.5-0.6-0.9-1.2-1.3-1.7c-0.8-1.1-1.6-2-2.4-2.9c-0.8-0.9-1.7-1.8-2.7-2.7
			c-1-0.5-1.8-1.2-2.4-1.9c-0.6-0.7-1.3-1.5-2.1-2.4c-0.6-0.5-1.1,6.9-1.6,6.3c-0.5-0.6-1-1.2-1.6-1.7c-1.2-0.7-2.1-0.7-2.7,0
			c-0.8,0.9-1.5,1.9-2.1,2.9c-0.6,1.1-1,2.3-1.2,3.7c0,1.4-0.4,2.8-1.2,4c-0.4,0.7-0.8,1.4-1.2,2c-0.4,0.6-0.6,1.4-0.6,2.3
			c-0.2,0.7-0.5,2-0.9,3.7c-0.2,0.9-0.3,1.8-0.4,2.7c-0.1,0.9-0.2,1.8-0.4,2.7c0,0.2-0.1,0.3-0.1,0.4c-0.1,0.1-0.1,0.2-0.1,0.4
			c-0.6,1.4-1-5.2-1.3-3.9c-0.3,1.3-0.6,2.7-1,4.1c-0.4,1.8-0.8,3.1-1.2,4c-0.2,0.9-0.4,1.8-0.6,2.8c-0.2,1-0.5,2-0.9,3.1
			c-0.4,1.3-0.6,2.5-0.7,3.6c-0.1,1.2-0.3,2.4-0.7,3.6c-0.2,1.1-0.4,2.1-0.6,3.2c-0.2,1.1-0.4,2.1-0.6,3.2l-0.9,6.4
			c0,1.1-0.1,2.1-0.4,3.2c-0.3,1.1-0.2,2.1,0.1,3.2c0.4,0.9,0.6,1.8,0.7,2.7c0.1,0.9,0.2,1.8,0.4,2.7c0,1.1,0.1,1.9,0.3,2.4
			c0.4,1.1,0.7,2.2,0.9,3.5c0.2,1.2,0.5,2.4,0.9,3.5c0.2,0.4,0.3,0.8,0.3,1.3c0.2,1.4,0.3,2.9,0.4,4.3c0.1,1.4,0.3,2.9,0.7,4.3
			c0.2,1.1,0.2,2.1,0,3.1c-0.2,1-0.2,2,0,3.1c0.2,0.5,0.2,1,0.1,1.5c-0.1,0.4,0,0.9,0.4,1.5c0.4,0.2,0.6,0.7,0.6,1.6
			c-0.4,1.4-0.3,2.8,0.1,4.1c0.5,1.3,0.9,2.7,1.3,4.1c0.8,3,2.2,6.3,4.1,9.9c1,2,2.1,4,3.3,6c1.2,2.1,2.8,3.9,4.7,5.5
			c1.6,1.6,3.4,2.1,5.3,1.3c1.4-0.5,2.6-1.2,3.6-2.1c1-0.7,1.8-1.4,2.5-2.1c0.7-0.7,1.4-1.4,2.2-2.1c2-1.4,3.3-3.5,3.9-6.2
			c0-0.4,0-0.7,0.1-0.9c0.1-0.3,0.1-0.6,0.1-0.9c0.4-1.6,0.8-3.2,1.2-4.7c0.4-1.5,0.8-3.1,1.2-4.7c0.4-1.8,0.6-3,0.6-3.7
			c0.2-0.9,0.4-1.8,0.6-2.7c0.2-0.9,0.3-1.8,0.3-2.7c0.2-1.1-0.2-3.3-0.2-3.3s0-1.3,0-2.4c0.4-2.1,0.7-4,0.8-5.8
			c0.1-1.8,2.5-3.6,2.9-5.5c0.4-1.5,0.6-2.9,0.5-4.2c-0.1-1.3-0.2-2.6-0.2-4c-0.2-4.7-0.2-9.4,0-14.2v-5.8c-0.2-1.7-2.4-3.3-2.5-4.9
			c-0.1-1.6-0.3-3.1-0.5-4.6c0-0.9,0-2.4,0-2.4s0.3-1.6,0.1-2.5c0-0.9-0.1-1.7-0.1-2.4c-0.1-0.7-0.2-1.5-0.4-2.4l-0.3-0.5
			c-0.4-1.2-0.8-2.4-1.3-3.5c-0.5-1.1-0.9-2.2-1.3-3.5c-0.4-0.7-0.6-1.8-0.6-3.2C471.2,314.1,471.1,313.4,471.1,312.3z"/>
	</g>
	<g>
		<path class="st2" d="M521.8,176.2c4.2-4.9,34.1-130.2,91.5-128.2c57.5,1.9,66.2,89.6,84.1,105.8s162.6,52.3,188.6,65.6
			c26,13.3-62,129.9-287.3,136.4c-225.3,6.5-271.4-68.2-271.4-74S517.3,181.4,521.8,176.2z"/>
		<path class="st3" d="M584.2,116.6c0,0,4.6,20.7,8,24.8c3.4,4.2,18-20.9,19.2-21.6s-4.2-13.8-12.1-13.5
			C591.2,106.7,584.6,113.4,584.2,116.6z"/>
		<path class="st4" d="M633.7,105.9c2.5-0.6,4.5,3.7,3.4,5.4c-1.4,2.2-4.9,4-6,2.8C630.4,113.4,627.6,107.3,633.7,105.9z"/>
		<path class="st4" d="M564.8,114.3c1.7,1.1,4.5-4.6,4.7-6.4c0.2-1.8-2.2-2.6-3.9-1.2C564,108.2,560.9,111.7,564.8,114.3z"/>
		<path class="st1" d="M620.8,97.3c6.1,3.5,18.6,0.9,20-4.5c1.5-5.4-13-10.4-20-4.8S618.5,96,620.8,97.3z"/>
		<path class="st1" d="M570.5,90.2c6-3.9,10.1-1.9,9.8,1.1c-0.2,3.1-5.5,10.1-10.8,6.8C564.2,94.9,566.3,93,570.5,90.2z"/>
		<path class="st3" d="M573.9,88"/>
		<path class="st1" d="M676.7,180.4c-3.3,18.1-44.2,34.5-82,24.9s-50-22.1-48.6-36.8c1.4-14.6,27.3-1.1,46.7-0.7
			S682,151.7,676.7,180.4z"/>
		<path class="st2" d="M523.1,346.4c1.6,12.4,35.1,37.9,76,36.6c40.9-1.3,74.5-23.2,77.2-42.8S520.5,326.7,523.1,346.4z"/>
		<path class="st2" d="M550,342.8c0,0,1.4,43.8,8.4,47.3c7.1,3.5,11.5-51.4,8-53.1S550,342.8,550,342.8z"/>
		<path class="st2" d="M625.9,350c0,0,13.9-3.8,15.6-3.8c1.7,0,10,43.2,6.3,53.5C644.2,410,625.9,350,625.9,350z"/>
		<path class="st5" d="M584.5,63.6c0,0-68.2-49.3-149.3-26.6"/>
		<path class="st5" d="M604.6,59.7c0,0-24.1-35.8-90.3-11.7"/>
		<path class="st5" d="M626,66.8c28.6-37.7,88.3-44.2,118.2-39.6"/>
		<path class="st5" d="M615.4,56.4c0,0,36.3-40.9,75.7-23.4"/>
		<path class="st2" d="M556.6,380.5c0,0,0.4,57.5-2.7,59.7c-31.4-3.5-23.5,3.1-23.5,3.1h33.2c0,0-4.1-2.2-4.9-8
			c-0.8-5.8,2.3-57.1,2.3-57.1L556.6,380.5z"/>
		<path class="st2" d="M642.5,383.5c0,0,11.1,60.7,7.1,60.7s27.9,1.1,28.3,0c-6.6-6.1-24,1.6-24.4-5.5c-0.4-7.1-7.5-55.2-7.5-55.2
			H642.5z"/>
		<path class="st2" d="M421.6,39.7c0,0,10,5,14.9,2.9s9.3-8.2,9.3-8.2S432.8,26.9,421.6,39.7z"/>
		<path class="st2" d="M506.3,49.7c0,0,3.1-4.8,7.4-5.3c4.3-0.5,8.1,1.1,8.1,1.1S519.5,53.3,506.3,49.7z"/>
		<path class="st2" d="M693.3,36.1c0,0-7.8,2.3-10.7-5.9C688,24.4,696,32.7,693.3,36.1z"/>
		<path class="st2" d="M756.9,31c0,0-7.5-8.4-16.3-4.2C740.6,26.7,740.5,33.2,756.9,31z"/>
		<path class="st3" d="M630.2,111.1c0,0,2.7-5,4.3-4.9c2.4,0.2,0.5,2.9,0.5,2.9L630.2,111.1z"/>
		<path class="st3" d="M562.9,111.1c1.1-2.7,4.2-6.5,5.6-4.6C570,108.5,562.9,111.1,562.9,111.1z"/>
	</g>
</g>
</svg>
