<?xml version="1.0" encoding="utf-8"?>
<!-- Generator: Adobe Illustrator 21.0.2, SVG Export Plug-In . SVG Version: 6.00 Build 0)  -->
<svg version="1.1" id="Calque_1" xmlns="http://www.w3.org/2000/svg" xmlns:xlink="http://www.w3.org/1999/xlink" x="0px" y="0px"
	 viewBox="0 0 987 551.1" style="enable-background:new 0 0 987 551.1;" xml:space="preserve">
<style type="text/css">
	.st0{display:none;}
	.st1{fill:#0A68EF;}
	.st2{fill:#1E3659;}
	.st3{fill:#FFFFFF;}
	.st4{fill:#050505;}
	.st5{fill:#46CE69;}
	.st6{fill:none;stroke:#1E3659;stroke-miterlimit:10;}
</style>
<g id="Calque_1_1_" class="st0">
</g>
<path class="st1" d="M81.5,243.2v-2.6c0-1-0.5-1.8-1.6-2.4c-1-0.3-1.2-0.8-0.3-1.7c0.7-1,0.5-2-0.3-2.6l-0.7-0.4l-0.3-0.4
	c0-0.3,0-0.4,0.1-0.4s0.1-0.1,0.1-0.4c0.4-0.9,0.3-1.7-0.3-2.4c-0.9-0.3-1-0.9-0.7-2c0.3-0.4,0.1-1-0.3-2c-0.7-1-0.8-2-0.3-2.6
	c0-0.4-0.1-0.8-0.3-1c0-0.3-0.1-0.4-0.3-0.7c-0.3-0.3-0.3-0.4-0.3-0.7c0-1-0.3-2.1-0.7-3.1c-0.4-1-0.7-2.1-0.7-3.1
	c0-3.8-0.7-7.5-2-11.2c-0.4-1-0.8-2.4-0.9-3.7c-0.3-1.3-0.3-2.5-0.3-3.7c0-1.3-0.1-2.6-0.5-3.9c-0.3-1.3-0.7-2.5-1.2-3.7
	c0-0.4,0-0.8-0.1-1.2s-0.1-0.7-0.1-1.2c-0.3-0.4-0.3-1-0.3-1.7s-0.1-1.2-0.3-1.7c-0.3-0.4-0.3-0.9-0.3-1.3c0-0.4-0.1-0.9-0.3-1.3
	c-0.3-0.4-0.3-0.8-0.3-1c0-0.3-0.1-0.5-0.3-1c-0.4-0.9-0.7-1.6-0.7-2c0-1.3-0.1-2.6-0.3-3.9c-0.3-1.3-0.5-2.6-0.9-3.9
	c0-1.3-0.1-2.4-0.3-3c0-0.9-0.1-1.6-0.3-2c-0.4-1-0.8-2.2-0.9-3.4c-0.3-1.2-0.3-2.4,0-3.4c0-0.4-0.1-0.8-0.3-1
	c-0.4-1-0.7-2.1-0.8-3.1c-0.1-1-0.1-2.1-0.1-3.1c-0.3-0.3-0.3-0.4-0.1-0.5c0.1-0.1,0-0.3-0.1-0.5c-0.7-1-0.9-2.2-0.9-3.4
	c0-1.2-0.1-2.4-0.3-3.4c-0.3-0.7-0.3-1.3-0.3-2.1s-0.1-1.6-0.3-2.5l-1-3c0-0.3,0-0.4-0.1-0.7s-0.1-0.4-0.1-0.7
	c-0.3-1.3-0.4-2.6-0.7-3.9c-0.3-1.3-0.1-2.6,0.3-3.9c0.3-0.3,0.1-0.8-0.3-1.7c-0.9-1.3-1-3.3-0.7-5.9c0.4-0.4,0.4-0.9,0-1.3
	c-0.9-1.3-0.9-2.4-0.3-3.3c0.7-0.9,0.5-2-0.3-3.3c-0.9-1-1.3-2.2-1.4-3.3c-0.1-1-0.3-2.2-0.5-3.3c-0.4-1.6-0.7-3-0.8-4.6
	c-0.1-1.6-0.4-3-0.8-4.6c-0.4-0.7-0.7-1.3-0.5-2.1c0.1-0.8,0-1.6-0.1-2.5v-0.5c0,0-0.7-1.3-0.7-2.1c0-0.8-0.1-1.6-0.4-2.5
	c-0.3-0.4-0.3-0.9,0-1.4s0.3-1,0-1.4c0-0.4-0.1-0.9-0.5-1.4c-0.4-0.5-0.5-1-0.5-1.4c0-1,0.3-2.4,0.7-3.7c0-0.4,0-0.9,0.1-1.3
	s0-0.9-0.1-1.3c-0.4-2.2-0.4-3.8,0-5c0.3-1.6-0.1-3-1-4.3c-0.4-0.7-1.6-2.6-1.6-2.6v-3.7c0,0,0.9-3.5,1-5.2c0.1-1.7,0.3-5.2,0.3-5.2
	v-0.7c-0.4-1-0.5-2.1-0.1-3.1c0.3-1,0.5-2.1,0.5-3.1c3.5-1,6.5-0.8,9.2,0.9c1.3,1.3,2.2,2.4,2.9,3.1c0.3,0.3,0.3,0.8,0.3,1.6
	c-0.3,1-0.1,2.5,0.3,4.4c0.3,0.3,0.3,0.7,0.3,1.3c-0.3,0.7-0.3,1.3-0.1,1.8c0.1,0.7,0.1,1.2,0.1,1.6c-1.6,2.4-1.4,3.9-1.4,5
	c0,0.7,0.3,1.3,0.9,1.8c0.4,0.3,0.7,0.7,0.7,1.3c0.3,0.4,0.3,0.9,0.1,1.4c-0.1,0.5,0,1,0.1,1.4v3c0,0,1.6,2.2,1.8,3.4
	c0.4,1.2,0.8,3.8,0.8,3.8v2c0,1.2,0.4,2,1.3,2.6c0.3,0.3,0.4,0.7,0.4,1.3c0.3,0.7,0.4,1.3,0.4,2c0,0.7,0.3,1.3,0.7,2
	c0.7,1.2,0.8,2.2,0.4,3.3c-0.4,0.4-0.4,0.9,0.4,1.3c0.4,0.4,0.8,1,1,1.7c0.3,0.7,0.5,1.2,1,1.7c0.3,0.3,0.4,0.5,0.4,1
	c0.3,0.9,0.4,1.7,0.5,2.4c0.1,0.7,0.4,1.3,0.8,2c0.4,0.4,0.7,0.9,0.7,1.3s0.1,0.9,0.4,1.3c0.4,2.2,0.8,3.8,1,4.7
	c0,0.3,0,0.4,0.1,0.5c0.1,0.1,0.1,0.3,0.1,0.5c0.4,0.9,0.5,1.4,0.4,1.7l-0.4,0.4c0.4,0.7,0.7,1.4,0.5,2.2c-0.1,0.8,0,1.4,0.5,2.2
	c0.7,0.7,0.7,1.4,0,2.4c-0.3,0.3-0.1,0.9,0.4,2c1,1.3,1.8,2.7,2.4,4.3l-1,1c0,1.3,0.4,2.4,1,3c0.7,0.7,1.3,1.3,2,2
	c1,1.2,1.7,2.2,1.7,3.3c0,0.4,0,0.8,0.1,1s0.1,0.5,0.1,1c0.4,1.3,0.4,2.4,0,3v-0.1c0.3,0.9,0.4,1.8,0.4,2.6s0.1,1.7,0.4,2.6
	c0.3,1.4,0.9,2.4,2.1,2.9c0.9,0.5,1.3,1,1,1.8c0,0.5,0,1.2,0,1.2s-0.4,1-1,1.4c0,0.3-0.1,0.4-0.4,0.4c0,1.3-0.5,2.4-1.7,3
	c-0.3,0.3-0.4,0.4-0.4,0.5c0,0.1-0.1,0.3-0.4,0.5c0.7,1,1.4,1.7,2.4,1.7c1,0,1.7,0.4,2,1.3c0,0.4,0.3,0.9,0.7,1.3l0.4,0.4
	c0.4,0.9,0.9,2.2,1.3,3.9c0.3,0.4,0.4,0.9,0.7,1.3c0.3,0.4,0.5,0.9,1,1.3c1.3,1.6,2.1,5.9,2.1,5.9v0.7v2.5c0,0,0,1.7,0,2.5
	c0.3,1,0.5,2.1,0.8,3s0.7,1.8,0.8,2.9c0.3,0.3,0.3,0.4,0.3,0.7c-1.6,0.9-1.6,1.8,0,2.9c0.7,0.4,1.2,1.2,1.6,2.4
	c0.4,0.9,0.7,1.7,0.8,2.5c0.1,0.8,0.4,1.6,0.8,2.5v1.7c0.9,1.3,1.7,2.7,2.6,4.2c0.3,0.3,0.3,0.7,0.3,1.3c-0.4,0.9-0.5,1.6-0.1,2.2
	c0.3,0.7,0.7,1.3,0.8,2c0.3,0.3,0.3,0.8,0.3,1.6v1.6c0.9,2.2,1.7,3.7,2.6,4.3c0.9,0.7,1.7,0.4,2.4-0.7c1-1.7,2.1-3.5,3-5.2
	c0.9-1.7,1.8-3.5,3-5.2c0.7-1,1.2-2.4,1.7-3.7c0.4-1.3,1-2.6,1.7-3.9l3.9-6.9c0.4-0.4,0.7-0.9,0.7-1.3c0.4-1.6,0.9-3,1.3-4.4
	c0.4-1.4,0.9-2.9,1.3-4.4c0.4-1,0.8-2.2,1.2-3.4c0.4-1.7,1-3.3,1.7-4.7c0.3-0.7,0.8-1.3,1.2-2c0.7-0.9,1.2-2,1.6-3
	c0.4-0.9,0.8-1.7,1.2-2.6c0.4-0.9,0.7-1.7,1.2-2.6c0.3-0.4,0.3-0.9,0.1-1.4c-0.1-0.5-0.1-1-0.1-1.4c0-0.9,0.1-1.7,0.4-2.4
	c0.3-0.7,0.4-1.3,0.4-2c0-0.7,0.3-1.3,0.7-2c0.4-0.4,0.7-0.9,0.8-1.4c0.1-0.5,0.4-1,0.8-1.4c0.3-0.3,0.4-0.4,0.4-0.7
	c0.3-1.3,0.8-2.4,1.7-3.1c0.9-0.8,1.8-1.6,3-2.5c0-0.3,0.8-0.5,2.4-1c1.3-0.3,1.8-1,1.7-2.6l5-2c0.9-0.4,2.2-0.4,3.9,0
	c0.3,0.3,0.4,0.4,0.5,0.4c0.1,0,0.3,0.1,0.5,0.4c1.7,0.7,3.3,0,4.6-2c1.6,0.7,2.4,1.7,2.6,3c0.3,0.7,0.4,1.3,0.5,1.8
	c0.1,0.5,0.3,1.2,0.5,1.8c0.3,0.4,0.4,1,0.4,2c0.3,0.4,0.4,0.8,0.4,1.2s0.1,0.7,0.4,1.2v0.7c0,0,0,3.1-0.3,3.9
	c0.4,0.4,0.8,0.9,1.2,1.3c0.4,0.4,0.4,1.3,0.4,1.3v0.4c-0.5,0.5-0.7,0.9-0.5,1.4c0.1,0.5,0.1,0.9,0.1,1.4c0.5,0.7,0.7,1.8,0.7,3.5
	c0,1.2,0.1,2.2,0.4,3.3c0.3,1,0.8,2.1,1.7,3c0.3,0.5,0.5,0.9,1,1.4c0.5,0.5,0.5,1.2,0,2.1c-0.3,0,0,0.4,0.7,1
	c0.3,0.5,0.5,0.9,0.7,1.4c0.3,0.5,0.4,1,0.4,1.7v0.1c0.9,1,1,2.5,0.7,4.2c0.9,0,1.6,0.7,2,2c0.3,0.4,0.3,0.9,0.3,1.3
	c0,0.4,0.1,0.9,0.3,1.3c0.3,0.7,0.8,1.6,1.6,2.9c0.4,0.7,0.9,1.2,1.6,1.6c0.4,0.4,0.9,0.7,1.3,0.7c0.7-0.3,0.9-0.7,0.9-1.3
	c0.3-0.7,0.3-1.6,0.3-2.9v-2c0,0-0.5-1.3-0.7-1.8c-0.1-0.5,0.7-1.8,0.7-1.8v-1v-5c-0.8-1.6-0.7-3.1-0.4-5c0-2,0-3.9,0.1-5.9
	c0.1-2,0.3-3.8,0.5-5.6c0.3-1,0.4-2.1,0.7-3c0.3-0.9,0.4-3,0.4-3v-3.7c0,0,0.7-2,0.9-2.7s0.4-1.7,0.7-2.7c0-1-0.3-2.4-0.3-2.4v-3.7
	c0,0,0.7-2.6,0.9-3.9c0.3-1.6,0.4-3,0.7-4.6s0.5-3.1,1-5c0.3-0.7,0.4-1.3,0.5-2.1c0.1-0.8,0.9-2.1,0.9-2.1v0.1
	c-0.4-0.7-0.7-1.3-0.5-1.8c0.1-0.5,0.1-1,0.1-1.6c0.3-1.6,0.4-3,0.4-4.3c0-1.3,0.1-2.7,0.4-4.3c0-1.3,0-2.7,0.1-4.2
	c0.1-1.4,0.3-3,0.5-4.6c0.4-3.1,0.9-6.3,1.6-9.5c0.5-3.3,1.2-6.5,1.8-9.9c0.4-2.2,0.8-4.3,1.2-6.4c0.4-2,0.8-4.2,1.6-6.4
	c1.3-4.7,3-8.9,5.1-12.8l2-3c0.7-0.7,1-1.6,1-2.7c0-2.2,1-4.1,3-5.4c0.4-0.3,0.8-0.4,0.8-0.7c0.1-0.3,0.4-0.4,0.8-0.7
	c0.7-0.7,1.4-0.8,2.4-0.4c0.3,0.3,0.4,0.4,0.5,0.4s0.3,0.1,0.5,0.4l4.1,3c0.4,0.3,0.8,0.4,0.8,0.7c0.1,0.3,0.4,0.4,0.8,0.7
	c0.7,1.2,1.7,1.3,3,0.7c1.2-0.4,2-0.3,2.4,0.7c0.3,0.3,0.8,0.4,1.7,0.4c0.9,0.3,1.2,0.8,1,1.7c-0.4,0.4-0.7,0.8-0.5,1.2
	s0.1,0.8,0.1,1.2c0.4,0.9,0.8,1.7,1,2.4c0.3,0.7,0.4,1.6,0.4,2.7v0.8c0,0,0.4,2.7,0.1,4.3c-0.3,0.3-0.1,0.8,0.4,1.7
	c0.4,0.9,0.5,1.8,0.4,3c0,0.4,0,0.8,0.1,1c0.1,0.3,0.1,0.5,0.1,1c0.3,0.7,0.4,1.3,0.7,1.8s0.4,1.2,0.7,1.8c-1.7,0-3-0.1-3.7-0.4
	c0,1.7,0.4,2.7,1.3,3c0.7,0.4,1.2,0.7,1.7,0.8c0.4,0.1,0.8,0.5,1,1.2c0,0.4,0,0.9,0.1,1.4c0.1,0.5,0,1-0.5,1.4
	c-0.4,0.4-0.7,0.8-0.5,1.2s0,0.7-0.5,1.2l-1.3,1.3c-1.3,1.3-1.3,2.4,0,3.3c0.3,0,0.5,0.3,1,0.7c-0.4,0.9-0.8,1.7-1,2.4
	c-0.3,0.4-0.4,0.7-0.4,0.8s-0.1,0.4-0.4,0.8c-0.3,1-0.4,2.1-0.4,3c0,0.9-0.1,1.8-0.4,3c0,0.4-0.3,0.9-0.7,1.3
	c-0.4,1.7-0.7,3-0.7,3.7c-0.3,0.7-0.4,1.3-0.5,1.8c-0.1,0.5-0.5,1-1.2,1.4c-0.4,0.4-0.9,1.4-1.3,3c0,0.7,0,1.3,0.1,2
	c0.1,0.7,0.1,1.4,0.1,2.4c0,0.4,0,0.9-0.1,1.3c-0.1,0.4,0,1.3,0,1.3v0.7c0,1.7-0.5,3.9-1.6,6.5c-0.4,0.4-0.8,0.9-0.9,1.3
	c0,0.3,0,0.4-0.1,0.5c-0.1,0.1-0.1,0.3-0.1,0.5c0,0.9-0.1,1.6-0.3,2.4c-0.3,0.7-0.4,1.2-0.7,1.6v1.3c0,0-0.1,1.7,0,2.5
	c0.1,0.8,0.1,1.6,0.1,2.5c0,1.3-0.4,2.1-1,2.4l-0.7,0.7c-0.3,1.3-0.5,2.5-1,3.7c-0.4,1-0.5,2.4-0.4,3.7c0.3,0.4,0.3,0.9,0,1.4
	c-0.3,0.5-0.4,1.2-0.4,1.8c0,0.7,0.1,1.4,0.4,2.4c0.3,0.9,0.3,2.6,0.3,2.6v3.9c0,0,0.3,2.6,0.1,3.9c0,0.4,0,0.8-0.1,1
	c-0.1,0.3-0.1,0.4-0.1,0.7s0,0.4-0.1,0.5c-0.1,0.1-0.1,0.3-0.1,0.5c0.4,1,0.3,2.9-0.7,5.2c-0.4,1.3-0.8,2.4-1,3.3
	c0,0.7,0.1,1,0.4,1.3c0.4,1,0.4,2.4,0,3.7c-0.4,0.7-0.8,2-0.8,2v1.3l1.3,3.3v2.6c0,0-0.9,3,0,4.3v1.3c-0.7,0.4-0.9,1-0.9,1.7
	c0,0.7-0.3,1.2-0.7,1.7l-0.4,0.7c0.3,1,0.4,2.1,0.4,3s0.1,1.8,0.4,3c-0.3,0.3-0.8,0.5-1.7,1c0.7,1,1,2.9,1.3,5.5
	c0.3,2.5,0.1,4.3-0.4,5.5c0.7,0.7,1,1.2,1.3,1.7c0.4,1.3,0.5,3.3,0.5,3.3v2.6c0,0,0.3,1.2,0.4,1.7c0.4,1,0.7,2.2,0.8,3.4
	c0.1,1.2,0.1,2.5,0.1,3.8c-0.4,1.6-0.3,2.7,0.7,3.7c0.3,0.4,0.3,0.8,0.1,1c-0.1,0.3-0.1,0.5-0.1,1c0.3,0.4,0.5,1.7,0.5,1.7v0.7
	c-0.9,2.5-1.4,4.7-1.7,6.5c-0.3,0.5-0.4,0.9-0.5,1.2c-0.1,0.4-0.4,0.7-0.9,0.9c-0.5,0-0.7,0.3-0.7,0.7c0,0.9-0.3,1.6-0.7,2.1
	c-0.5,0.5-0.9,0.9-1.3,1.3c-0.9,0.9-1.3,2-1.3,3c0.3,0.7,0.1,1.3-0.4,1.7c0,0.3,0,0.4-0.1,0.4c-0.1,0-0.1,0.1-0.1,0.4v0.1
	c-0.7,0-1,0.3-1.3,0.7c-0.3,0.4-0.5,0.9-0.9,1.3c-1,1-2.5,1.4-4.2,0.9c-1.4-0.3-2.7,0.4-3.9,2c-0.3,0.3-0.3,0.4-0.3,0.7
	c-0.9-0.4-1.6-0.9-2.2-1.4c-0.7-0.5-1.4-1-2.2-1.4c-0.3,0.4-0.4,0.7-0.7,0.8c-0.3,0.1-0.3,0.4-0.3,0.8c-1,2.4-2.7,3.3-4.8,2.6l0,0
	l-0.4-0.4c-1.2,0.3-2.1,0-2.7-0.7c-0.7-0.4-1.6-1.3-2.7-2.4c-0.7-0.3-1-1-1-2.4c0.3-0.9-0.3-2-1.4-3.1c-0.5-0.3-0.9-0.9-1.4-2.1
	c0-0.9-0.7-1.6-2.1-2.1c-0.3-0.3-0.5-0.4-0.7-0.4c-0.3,0-0.5-0.1-0.7-0.4c-0.7-0.3-1-0.5-1-1c-0.3-0.7-0.4-1.4-0.4-2.1
	c0-0.7-0.1-1.4-0.4-2.1c0-1.2-0.3-1.8-0.7-2.1c-1.2-0.9-2-2.4-2.4-4.4c-0.3-1.4-0.7-2.6-1.4-3.8c-0.7-1.2-1.4-2.4-2.1-3.4
	c-0.7-1.2-1.4-2.4-2.2-3.4c-0.8-1.2-1.6-2.4-2.2-3.4c-0.3-0.3-0.4-0.5-0.4-1v-0.1c-1.3-1.7-2.1-3-2.5-3.8c-0.3-0.4-0.3-0.8-0.3-0.9
	c0-0.3-0.1-0.4-0.3-0.7c0-0.8-0.1-1.4-0.3-2c-0.4-0.4-0.8-0.9-1.2-1.6c-0.3-0.7-0.7-1.2-1.2-1.6c-0.4-0.4-0.7-0.8-0.7-0.9
	c-0.8-2.1-1.7-3.5-2.5-4.2c0-0.7-0.1-1.2-0.5-1.6c-0.3-0.4-0.7-0.8-1.2-1.3c-1.3-1-1.7-2.5-1.3-4.2V194c-0.7-0.4-1.3-0.9-1.8-1.3
	c-0.5-0.4-1-0.9-1.6-1.3c-0.5-0.4-1-0.4-1.7,0.4c-1.2,0.9-2,2.2-2.4,3.8c-0.5,1.2-0.9,2.1-1.3,2.7c-0.5,0.7-1,1.4-1.7,2.4
	c-0.3,0.5-0.5,0.9-0.9,1.3c-0.4,0.5-0.4,1-0.1,1.7c0,0.5-0.1,0.7-0.4,0.7c-0.7,1.2-1.2,2.2-1.3,3.1c-0.3,0.9-0.5,2-1,3.1v0.3
	c0,0-0.4,2.7-0.4,4.1c0,1.4-0.1,2.7-0.4,4.1c0,0.9-0.3,2-0.7,3.3c-0.9,1.6-1.4,3.1-1.7,4.6c-0.3,0.4-0.4,0.9-0.5,1.3
	c-0.1,0.4-0.4,0.9-0.8,1.3c-0.9,0.9-1,1.7-0.7,2.6c0.3,0.4,0.3,0.9,0,1.4c-0.3,0.5-0.4,1-0.4,1.4c-0.3,0.4,0.1,1.3,0.1,1.3v0.1
	c-0.7,0.7-1,1.3-0.9,2.1c0.1,0.8,0,1.4-0.5,2.1c0.3,1.6-0.5,3.1-2.1,4.6c0,0.3-0.1,0.4-0.4,0.7v3c0,1-0.5,1.8-1.4,2.4
	c-0.9,0.4-1.7,1-2.1,1.8c-0.5,0.8-0.9,1.4-1.4,2.1c-0.3,0-0.4,0.1-0.5,0.4s-0.3,0.4-0.5,0.4c-0.7,0.4-1.4,0.7-2.1,0.8
	c-0.7,0.1-1.4,0.4-2.1,0.8c-0.7,0.4-1.4,0.4-2.1,0c-2-0.3-3.3,0.3-4.3,1.3c-0.3,0.9-1,1.3-2.5,1.3c-0.5,0-1.4,0.3-2.9,0.7
	c-2,0-3.3,0.1-4.3,0.4h0.3c-1,0.4-2.1,0.7-3.1,0.5c-0.9-0.1-2-0.1-3.1-0.1c-0.7,0.3-1.6,0.1-2.9-0.4c-0.7,0-0.9-0.4-0.9-1.3
	c-0.4-1-0.9-1.7-1.6-2s-1.2-0.8-1.6-1.7c-0.4-1-0.9-2.1-1.3-3.1c-0.4-1-0.9-2.1-1.3-3.1c-0.3-0.7-0.4-1.3-0.7-1.8
	c-0.3-0.5-0.1-1.3,0.3-2.1c0.4-0.4,0.5-0.7,0.1-0.8C81.9,243.5,81.6,243.4,81.5,243.2z M90.5,161.9l1-1c0-1-0.4-1.4-1.3-1
	c-0.3,0-0.5,0.3-1,0.7c0.3,0.3,0.4,0.4,0.7,0.5C90,161.3,90.3,161.5,90.5,161.9z M201.2,161c-0.7,0-1,0.5-1,1.7c0,0.7,0.4,1,1,1
	c0.7,0,1-0.4,1-1.3C202.1,161.4,201.8,161,201.2,161z M211.6,126.8c0.3,0.4,0.7,1,1.3,1.7c0.9,0.4,1.6,0.4,2,0c0.4-0.4,0.4-1,0-1.7
	c-0.4-0.4-0.7-0.8-0.7-1C212.9,126.2,212.1,126.5,211.6,126.8z M216.6,47.8c0.9,0,1.3-0.4,1.3-1c0.3-0.9,0.8-1.4,1.7-1.7
	c0.9-0.7,0.9-1.3,0-2c-0.4-0.4-0.8-0.7-1-0.7c-0.7-0.3-1.3-0.4-1.8-0.5c-0.5-0.1-1.2-0.1-1.8-0.1c-1.3,0-2,0.4-2,1.3
	c-0.3,1,0,2.1,0.8,3.1C214.6,47.2,215.5,47.8,216.6,47.8z"/>
<path class="st1" d="M269.4,256c-0.4-0.3-0.8-0.3-1.2-0.3c-0.3,0-0.7-0.1-1.2-0.3c-0.4,0.4-0.7,0.8-0.8,1.2
	c-0.1,0.3-0.4,0.7-0.8,1.2c0,0.3,0,0.4-0.1,0.7c-0.1,0.3-0.1,0.4-0.1,0.7c-0.7,1-1.6,1.6-2.6,1.3c-0.3-0.3-0.5-0.3-0.9-0.3
	c-2.7,1-5.6,0.7-8.4-1.3c-0.9-0.7-1.6-1.3-2.2-2c-0.7-0.7-1.2-1.6-1.6-2.6c-0.4-1.7-0.9-3.3-1.4-4.6c-0.5-1.3-1-2.7-1.4-4.2
	c-0.7-2-1-3.9-1.2-5.8c-0.1-2-0.3-3.9-0.5-5.8c0-0.4,0-0.9,0.1-1.4c0.1-0.5,0.1-1,0.1-1.4c0-2.1,0-4.3,0.1-6.3
	c0.1-2.1,0.1-4.2,0.1-6.3c0-1.7-0.1-3.4-0.3-5c-0.3-1.6-0.4-3.3-0.7-5c0-1.6,0-2.9-0.1-4.2c-0.1-1.3-0.3-2.7-0.5-4.2
	c-0.3-1-0.3-2.2-0.3-3.4c0-1.2,0-2.1,0-3.1V184c0.3-3.1,0.4-6.1,0.5-9.2c0.1-3,0.3-6,0.5-9.2c0.3-2.9,0.4-5.6,0.7-8.4
	c0.3-2.6,0.4-5.5,0.7-8.4c0-0.7,0-1.3,0.1-1.8s0.1-1.2,0.1-1.8c0.3-2.2,0.4-4.4,0.4-6.5s0.3-4.4,0.7-6.8c0.4-2.9,0.8-5.8,1.2-8.5
	c0.4-2.7,0.8-5.5,1.2-8.2c0.4-2.9,1-5.6,1.7-8.4c0.7-2.6,1.3-5.5,2-8.4c0.4-1.8,0.8-3.5,1-5.2c0.3-1.7,0.4-3.4,0.7-5.2
	c0.4-2.9,0.8-5.6,1.2-8.4c0.4-2.6,0.7-5.5,1.2-8.4c0.4-1.3,0.4-2.4-0.4-3c-0.7-1-0.8-2.2-0.5-3.1c0.4-1,0.8-2.1,1.4-3.1
	c0.7,0.4,1.3,0.8,1.8,1c0.5,0.3,1.2,0.5,1.8,1c0.4-0.9,0.8-1.7,1-2.4l0.4,0.4c0.4,0.3,0.9,0.4,1.4,0.4s1,0.1,1.4,0.4
	c0.4,0,0.9,0.4,1.3,1c1,1.2,2.1,1.7,3,1.7c0.7,0,1.2,0.3,1.7,0.7c1.2,0.4,2.1,0.9,2.9,1.4c0.8,0.5,1.6,1,2.5,1.4
	c0.9,0.3,1.3,0.9,1.3,2c-0.3,0.4-0.8,0.7-1.7,0.7c-0.7,0.3-1.2,0.7-1.3,1.3c-0.3,0.7-0.1,1.3,0.4,2c0.4,1.2,0.4,2-0.4,2.6
	c-0.4,0.9-0.7,1.4-0.7,1.7c0,2.2,0,5.1,0,7.2s0.1,4.1,0.3,6c0,0.7,0,1.3,0.1,2c0.1,0.7,0.1,1.3,0.1,2c0.3,0.7,0.3,1.3,0.1,2.1
	c-0.1,0.8,0,1.4,0.1,2.1c0,1,0,2.4,0.1,3.7c0.1,1.3,0.3,2.6,0.5,3.9c0,0.4,0.1,0.9,0.3,1.4c0.3,0.5,0.4,1,0.7,1.4
	c0.3,0.9,0.4,1.7,0.7,2.5c0.3,0.8,0.4,1.4,0.7,2.1v1.6c-0.4,1.7-0.7,3-0.7,3.9c0,0.7,0.1,1.2,0.4,1.6c0.7,2,0.9,3.8,0.7,5.5
	c-0.3,0.3-0.4,0.5-0.4,0.9c0.3,0.7,0.4,1.7,0.4,3.3c0.7,0,1.2-0.1,1.3-0.3c4.4-0.7,8.6-2,12.7-3.9c0.4-0.4,1-0.7,1.7-0.7
	s1.2-0.1,1.7-0.3l4.1-0.9h4.1h2.4c1.2,0.3,1.8-0.3,2-1.6v-1.3c0-1,0-2.1,0-3.1s0.1-2,0.4-3.1c0.4-1.6,0.7-2.9,0.7-4.2
	c0-1.3,0.1-2.7,0.4-4.3c0.3-2.2,0.4-4.3,0.5-6.4c0.1-2.1,0.4-4.2,0.8-6.4c0.3-1.7,0.4-3.4,0.4-5.1c0-1.6,0.1-3.3,0.4-5.1
	c0.4-2.4,0.8-4.7,1-7.1c0.3-2.2,0.5-4.6,1-7.1c0.3-0.7,0.3-1.3,0.1-2.1c-0.1-0.8-0.1-1.4-0.1-2.1c0-0.3-0.1-0.4-0.4-0.7
	s-0.4-0.5-0.7-0.9c-0.7-0.4-1.6-1.2-2.6-2.4c-0.4-0.3-0.9-0.8-1.3-1.6c0.4-0.4,0.7-0.8,0.8-1.2c0.1-0.3,0.4-0.7,0.8-0.8
	c0.3-0.7,0.7-0.9,1.3-0.9c0.9-0.3,1.7-0.4,2.4-0.7c0.7-0.3,1.4-0.3,2.4,0c0.4,0,1,0,1.7-0.1c0.7-0.1,1.4,0,2.4,0.5
	c1.8,1,3.5,0.9,5.4-0.3h-0.5c0,0,1.7,0.8,3.3,0.4c1,0,2.1,0.4,3,1.3c1,0.7,2.1,1.7,2.7,3.1c0.8,1.4,1.3,2.7,1.8,3.8
	c0.7,0.7,0.8,1.4,0.4,2.4c0,0.3,0,0.4-0.1,0.7c-0.1,0.3-0.1,0.4-0.1,0.7c0.4,0.9,0.7,1.7,0.8,2.6c0.1,0.9,0.3,1.8,0.5,3l1,5.9
	c0.4,1.7,0.7,3.5,0.8,5.5c0.1,1.8,0.3,3.8,0.5,5.8v0.7v6.4c0,2.1,0.1,4.2,0.4,6.4c0,1.7,0.1,3.4,0.4,5c0.3,1.6-0.7,4.6-0.7,4.6v1.3
	c0,0,1.4,2.1,1.4,3.1c0.1,1,0.1,2.1,0.1,3.1c0,0.4,0,0.8-0.1,1.2c-0.1,0.4-0.1,0.7-1.4,1.2v3.3v6.3c1.3,0.7,1.3,1.3,1.2,2.1
	s0,1.4,0.1,2.1c0,1,0,2.1,0.1,3.1c0.1,1,0,2.1-0.1,3.1c0,1.6,0,3.1,0.1,4.6c0.1,1.6-0.1,4.6-0.1,4.6v1v5.9v1c0,0-0.1,2.2-0.3,3.3
	c-0.3,1-2.4,3.3-2.4,3.3v2.4c0,0,1,1.3,1,1.8c0,0.5,0.3,1.8,0.3,1.8v22.2c0,0-0.7,1.3-0.8,2c-0.1,0.7-0.1,1.3-0.1,2
	c0,1.7-0.1,3-0.4,3.7c0,0.7,0,1.3-0.1,2c-0.1,0.7-0.1,1.3,0.1,2v1c0.4,1.7,0.5,3.4,0.4,4.7c-0.3,1.4-0.4,3-0.7,4.8
	c0,0.4-0.4,1-1.3,2c-0.7,0.7-1.3,1.3-2.1,1.8c-0.8,0.5-1.6,1.2-2.5,1.8c-0.9,0.7-2,0.7-3.3,0c-0.7-0.7-1.3-0.4-2,0.7
	c-0.4,1,0.3,1.6,2,1.4c1.7-0.1,2.1-0.3,1-0.5c-0.4,0-1-0.3-2-0.7c-1-0.9-1.8-0.7-2.4,0.7l-0.7,1.3c-0.4,1-1.3,1.4-2.6,1
	c-0.7-0.7-1-0.7-1,0c-0.4,0.4-1.3,0.7-1.3,0.7s-1.7,0-2.1,0c-1.4-0.4-2.9-0.4-4.2,0c-1,0-2,0.7-2.6,2c-0.7,1.3-1.4,1.3-2.6,0
	c-1.4-2.4-3-4.8-4.3-7.5c-1.4-2.5-2.4-5.4-2.7-8.4c-1-4.2-1.4-7.8-1.3-10.9c0-1.3,0-3.5,0.1-6.5s0.3-6.3,0.5-9.7
	c0.3-3.4,0.4-6.7,0.5-9.7c0.1-3,0.3-5.2,0.5-6.5c0-1,0-2.1,0-3.1c0-1,0.1-2,0.3-3.1c0-1.6,0-3,0.1-4.4c0.1-1.4,0.1-2.9,0.1-4.4
	c0.3-1-0.3-1.7-1.3-1.7c-0.9,0-2.1,0.3-3.9,0.7c-0.7,0-1.3,0-2,0.1c-0.7,0.1-1.3,0.1-2,0.1c-0.3,0.3-0.4,0.4-0.7,0.4
	s-0.4,0.3-0.7,0.7c-0.9,0.4-1.4,0.5-1.6,0.4c-0.9-0.7-1.7-0.9-2.4-0.8c-0.8,0.1-1.6,0.3-2.4,0.5c-0.4,0.3-0.7,0.4-0.8,0.4
	c-0.1,0-0.4,0.1-0.8,0.4c0.7,1,0.8,2,0.3,2.5c-0.4,0.5-0.9,1-1.3,1.4c-1.6,2-2.2,3.9-2.2,5.9v6.9v2.6c-0.1,1,0,2.2,0.1,3.4
	c0.1,1.2,0.1,2.4,0.1,3.4c0,1.7,0,3.7,0.1,5.6s0.4,3.8,0.8,5.6c0,0.9,0,1.7-0.1,2.5c-0.1,0.8-0.1,1.6-0.1,2.5c0.3,1.6,0.1,3-0.1,4.4
	c-0.4,1.4-0.4,2.9-0.1,4.4c0.3,0.7,0.8,3,0.8,3v7.8v0.4c0.3,1,0.7,2.1,0.7,3c0,0.9-0.1,1.8-0.4,3c0.4,1.6,0.4,2.9,0,4.1
	c-0.4,1.2-0.8,2.5-1,3.8c-0.3,1-0.4,2.1-0.5,2.7c-0.1,0.8-0.4,1.7-0.8,2.7c-0.3,0.4-0.5,0.9-0.8,1.3c-0.4,0.4-0.7,1-0.8,1.7
	c-0.4,1-1,1.8-2,2.4c-0.9,0.4-1.7,1-2.6,1.7c-1.3,0.7-3.5,3.7-3.5,3.7v-0.1c-0.4,0.7-0.7,1.3-0.8,2.1
	C270.2,254.7,270,255.3,269.4,256z"/>
<path class="st1" d="M464.8,52.5c-0.7,0.4-1,0.5-1.3,0.1c-0.3-0.4-0.5-0.7-0.9-0.8c-0.7-0.7-1.4-0.8-2.4-0.4c0,0.4,0.1,0.8,0.3,1
	c1.3,1.2,2.5,2.4,3.7,3.7c1.2,1.3,2.5,2.6,4.1,3.7c0.7,0.4,1.3,1,1.8,1.7s1.2,1.3,1.8,2l2.2,2.4l1.3-1.3c1,0.3,1.8,0.9,2.2,2.2
	c0.4,1.2,0.3,2.4-0.4,3.4c-0.7-0.3-1.2-0.7-1.6-1.2c-0.4-0.5-1-0.7-2-0.3c-0.3,0.9,0.1,1.7,0.9,2.6c0.7,0.7,1.2,1.3,1.8,2
	c0.5,0.7,1.2,1.3,1.8,2c0.7,0.7,1,1,1.3,1s0.9-0.3,2-0.7c0.9,1.2,1.4,2.1,2,3c0.4,0.9,0.9,1.8,1.6,3c0.4,1,0.9,2.2,1.6,3.1
	c0.7,1,1.3,2.1,2,3.1c-1.2,1.6-0.8,3.1,0.9,5c0.7,0.3,0.8,0.8,0.3,1.7c-0.4,0.4-0.8,0.9-0.9,1.6c-0.1,0.7-0.4,1.2-0.9,1.6
	c0.3,0.7,0.7,1,1.3,1.3c0,0.3-0.1,0.4-0.4,0.7c-0.7,0.9-0.8,1.8-0.4,3c0.3,0.3,0.4,0.5,0.7,0.8c0.3,0.4,0.4,0.5,0.7,0.5
	c1,0.5,1.8,1,2.1,1.8c0.3,0.8,0.7,1.6,1,2.5c0,0.4-0.1,0.8-0.1,1c-0.1,0.3,0,0.5,0.1,1c0.7,1,0.9,2.2,0.8,3.5
	c-0.1,1.2-0.3,2.5-0.5,3.8v1c0.3,1,0.3,2.4,0.3,3.7c0,1.3,0,2.5-0.1,3.7c0,0.7-0.1,1.3-0.4,2c-0.3,0.7-0.5,1.3-0.7,2
	c-0.3,0.7-0.4,1.6-0.4,2.6c0.3,1,0.3,2.1,0.3,2.7c0,0.8,0,1.7,0,2.7c-0.5,2.4-0.8,4.8-1,7.5c-0.1,2.5-0.5,5-0.9,7.3
	c0,0.7-0.3,1.7-0.8,3c0,0.4-0.1,0.9-0.4,1.3c0,0.9-0.3,2.4-0.8,4.6c-0.3,0.4-0.4,0.9-0.4,1.3c0,0.4-0.1,0.9-0.4,1.3
	c0,0.3,0,0.4,0.1,0.5c0.1,0.1,0,0.4-0.1,0.8c-0.3,1.3-0.5,2.6-0.8,4.1c-0.3,1.4-0.7,2.9-1,4.4c-0.3,0.9-0.5,1.7-0.7,2.5
	c-0.3,0.8-0.3,1.7,0,2.7c0,0.7-0.1,1.3-0.4,2.1s-0.5,1.4-0.7,2.1c-0.3,1-0.4,2.2-0.5,3.4c-0.1,1.2-0.4,2.4-0.9,3.4l-1,2.9
	c-0.5,1-0.8,2.1-0.9,3.1c-0.1,1-0.5,2-1.2,3.1c-0.3,0.4-0.3,0.9-0.3,1.4c0.1,0.5,0,1-0.1,1.4c-0.5,1-0.8,2.1-1,2.9
	c-0.3,0.9-0.5,1.7-1,2.6c0,0.4-0.5,1-1.3,2c-0.9,1.3-1.3,2.4-1,3.3c0,0.7-0.1,1-0.4,1.3c-0.9,1.6-1.7,3.1-2.4,4.7
	c-0.7,1.6-1.7,3.1-3,4.4c-0.3,0.3-0.4,0.5-0.4,0.9c-0.3,0.4-0.4,0.8-0.4,1.2c0,0.4-0.1,0.7-0.4,0.8c-0.4,0.7-0.9,1.2-1.6,1.8
	c-0.5,0.5-0.8,1.3-0.5,2.1c-1.3,1.3-2.4,2.4-3,3.3c0.7,0.9,0.8,1.7,0.3,2.5c-0.4,0.8-0.9,1.4-1.3,2.1c-1.2,1.6-2.4,3-3.5,4.3
	c-1.2,1.4-2.4,2.9-3.5,4.3c-0.9,1-1.7,2.1-2.4,2.9c-0.7,0.9-1.4,1.8-2.4,2.9c-1.2,1.7-2.7,3.3-4.7,4.4c-0.3,0-0.4,0.1-0.4,0.3
	c-0.7,1.6-2.2,2.2-4.7,2.2c-0.4,0-0.9,0-1.3,0.1s-0.9,0.1-1.3,0.1c-3.9,0.5-7.3-0.3-10.2-2.5c-2-1.3-4.2-1.7-6.9-1.2h-0.7
	c-2.6,0-5.4-0.1-8.1-0.4c-2.7-0.1-5.4-0.8-7.7-1.7c-0.4,0-0.8-0.1-1-0.1c-0.3-0.1-0.5-0.1-1-0.1c-1.7-0.3-3.3-0.8-4.6-1.4
	c-1.3-0.7-2.7-1.4-4.2-2.4c-1.3-0.5-2.2-0.9-2.9-1.4c-0.7-0.4-1.3-0.8-2-1.2c-0.7-0.4-1.4-0.8-2.2-1.2c-1.3-0.9-2.1-2-2.2-3
	c-0.7-1.2-1-1.8-1.3-2c-1-0.7-1.8-1.4-2.2-2.4c-0.4-0.9-0.8-1.8-1.3-3l-1.8-4.1c0-0.3,0-0.4-0.1-0.7c-0.1-0.3-0.1-0.5-0.1-1
	c-0.1-1-0.4-2.2-0.4-3.5c-0.1-1.2-0.4-2.4-0.8-3.5v-1c0.3-3.8-0.4-7.6-2.1-11.5c-0.4-0.9-0.7-2.4-0.5-4.3c0.5-1.6,0.4-2.9-0.3-3.9
	c-0.4-0.4-0.7-0.8-0.7-1c0-1.3-0.3-2.6-0.8-3.8s-0.7-2.6-0.4-4.2c0.3-0.4,0.3-0.8,0.1-1c-0.1-0.3-0.1-0.5-0.1-1
	c-0.3-0.3-0.3-0.5-0.3-1c0.5-2.6,0.1-4.7-1.2-6.3v-1c0.5-2.4,0.7-4.7,0.3-6.8c-0.3-2.1-0.5-4.3-0.7-6.8c-0.1-1-0.4-2.2-0.5-3.5
	c-0.1-1.2,0-2.4,0.4-3.4c0.3-0.4,0.3-0.8,0.1-1c-0.1-0.3-0.1-0.5-0.1-1c-0.1-2.2-0.3-4.3-0.4-6.4c0-2.1-0.1-4.2,0-6.4
	c0-1,0.1-2,0.4-2.6c0-1,0.1-2.2,0.4-3.3s0.4-2.2,0.4-3.3c0-0.9-0.1-1.4-0.3-1.7c-0.7-1.2-0.8-2-0.7-2.6c0.5-1,0.4-2-0.3-2.6
	c-0.4-0.9-0.4-1.7,0-2.4c0.5-1.7,0.9-3,1.4-3.9c0-0.7,0.3-1.7,0.8-3c0-1,0-2.1,0.1-3.1c0-1,0.1-2.1,0.4-3.1c0-0.4,0.1-0.9,0.3-1.4
	c0.1-0.5,0.1-1.2,0.3-1.8c0.3-0.9,0.3-1.7,0.3-2.6c-0.1-0.9-0.7-1.7-1.7-2.4c-0.3-0.3-0.4-0.5-0.5-1c-0.1-0.4-0.3-0.9-0.5-1.3
	c-0.4-2.6,0.1-4.7,1.4-6.3c0.9-1.3,1-2.6,0.4-3.9c-0.7-0.9-0.8-2-0.3-3.3c0.3-1,0.4-2.1,0.5-3c0.1-0.9,0.3-1.7,0.5-2.6
	c0.3-0.7,0.4-1.6,0.4-2.6c-0.4-1.6,0-2.6,1-3.3c0.7-0.4,1.3-0.9,1.8-1.6c0.5-0.7,1.2-1.2,1.8-1.6c0.3-0.4,0.5-0.8,0.7-0.9
	c0.3-0.3,0.4-0.5,0.7-0.9c0.3,0,0.4-0.1,0.4-0.3c1.6-1.6,2.5-3.1,2.7-4.8c0-0.4,0.5-1,1.3-2c2-2,3.9-3.9,5.9-5.8
	c2-2,3.7-4.1,5.2-6.5c0-0.3,0-0.4,0.1-0.3c0.1,0,0.1-0.1,0.1-0.3c1.2-0.7,2.1-1.4,3-2.2c0.9-0.9,1.8-1.8,2.7-2.9
	c0.9-0.9,1.8-1.4,2.9-1.7s2.1-0.7,3.1-1c0.4-0.4,0.9-0.7,1.3-0.8s0.9-0.4,1.3-0.8c1.8-1,3.5-1.7,5.4-1.8c1.3,0,2.6-0.1,3.8-0.5
	c1.2-0.4,2.5-0.7,3.8-0.9c1.3-0.4,2.5-0.7,3.7-0.5c1.6,0,3.1,0,4.6,0.1c1.6,0,3.1,0.3,5,0.8c1.6,0.3,3,0.4,4.4,0.3
	c1.4-0.1,2.9-0.1,4.4-0.1c5.2,0.4,10.3,1.8,15.4,4.6c0.9,0.4,1.7,0.9,2.5,1.3s1.6,0.9,2.5,1.3C463.8,51.6,464.2,51.8,464.8,52.5z
	 M407.9,205.1c0.3,0.4,0.3,1.2,0.3,2.4c0,2.6,0.7,5.5,2.1,8.6c0.4,0.7,0.9,1.4,1.4,2.2c0.5,0.8,1,1.6,1.4,2.2
	c0.9,1.3,1.7,2.6,2.6,3.7c0.9,1.2,1.8,2.2,2.9,3.4c1,0.7,2,1.4,2.6,2.4c0.7,0.9,1.4,1.8,2.2,3c0.7,0.7,1.2,1.4,1.8,2.2
	c0.5,0.8,1.2,1.6,1.7,2.2c1.3,0.9,2.2,0.9,3,0c0.9-1,1.7-2.2,2.4-3.5s1.2-2.9,1.4-4.6c0-1.7,0.5-3.4,1.4-5c0.5-0.9,0.9-1.7,1.3-2.5
	c0.5-0.8,0.7-1.7,0.7-2.7c0.3-0.9,0.7-2.4,1-4.6c0.3-1,0.4-2.2,0.5-3.3s0.3-2.2,0.5-3.3c0-0.3,0.1-0.4,0.1-0.5
	c0.1-0.1,0.1-0.3,0.1-0.5c0.7-1.7,1.2-3.4,1.6-5.1c0.4-1.7,0.8-3.3,1.3-5.1c0.5-2.2,0.9-3.8,1.4-5c0.3-1,0.5-2.2,0.8-3.4
	c0.3-1.2,0.7-2.5,1-3.8c0.5-1.6,0.8-3,0.9-4.4c0.1-1.4,0.4-2.9,0.9-4.4c0.3-1.3,0.5-2.6,0.8-3.9c0.3-1.3,0.5-2.6,0.8-3.9l1.2-7.8
	c0-1.3,0.3-2.6,0.5-3.9c0.4-1.3,0.4-2.6-0.1-3.9c-0.4-1-0.7-2.2-0.8-3.3s-0.3-2.2-0.4-3.3c0-1.3,0-2.4-0.3-3
	c-0.4-1.3-0.7-2.7-0.9-4.3c-0.1-1.6-0.5-3-0.9-4.3c-0.3-0.4-0.3-1-0.3-1.7c-0.1-1.7-0.3-3.5-0.4-5.2c-0.1-1.7-0.3-3.5-0.7-5.2
	c-0.1-1.3-0.1-2.6,0.1-3.8c0.3-1.2,0.3-2.5,0.1-3.8c-0.3-0.7-0.3-1.3-0.1-1.8c0.1-0.5,0-1.2-0.4-1.8c-0.4-0.3-0.7-0.9-0.7-2
	c0.5-1.7,0.5-3.4,0-5.1c-0.5-1.7-0.9-3.4-1.4-5.1c-0.8-3.8-2.2-7.8-4.3-12.3c-1-2.5-2.2-5-3.4-7.5c-1.3-2.6-3-4.8-5.1-6.8
	c-1.7-2-3.7-2.6-5.9-1.8c-1.6,0.7-2.9,1.4-4.1,2.6c-1.2,0.9-2.1,1.7-2.9,2.6c-0.8,0.9-1.6,1.7-2.5,2.6c-2.2,1.7-3.7,4.2-4.4,7.5
	c0,0.4-0.1,0.8-0.1,1.2c-0.1,0.3-0.1,0.7-0.1,1.2c-0.5,2-0.9,3.9-1.4,5.8c-0.5,1.8-0.9,3.8-1.4,5.8c-0.5,2.2-0.8,3.7-0.8,4.6
	c-0.3,1-0.5,2.2-0.8,3.3c-0.3,1-0.4,2.2-0.4,3.3c-0.3,1.3-0.4,2.6-0.4,4.1s0,2.7-0.1,4.1c-0.5,2.4-0.8,4.7-0.9,6.7
	c-0.1,2.1-0.5,4.2-0.9,6.4c-0.5,1.7-0.7,3.4-0.7,5c0.1,1.6,0.1,3.1,0.1,4.6c0.1,5.5,0,11-0.4,16.5l-0.1,8.5c0.1,2,0.3,3.9,0.4,5.8
	c0.1,1.8,0.3,3.7,0.4,5.5c0,1,0,2.1-0.1,3.1c0,1,0.1,2.1,0.3,3.1c0,1,0,2.1,0.1,3c0.1,0.9,0.3,1.8,0.4,3l0.3,0.7
	c0.4,1.6,0.9,3,1.4,4.3c0.5,1.3,1,2.7,1.4,4.3c0.4,0.9,0.7,2.2,0.5,3.9C407.8,202.9,407.9,203.8,407.9,205.1z"/>
<path class="st1" d="M609.5,253.5c-0.8-0.4-1.2-0.5-1.4-0.1c-0.3,0.3-0.7,0.5-1,0.8c-0.8,0.7-1.6,0.8-2.5,0.3c0-0.4,0.1-0.8,0.4-0.9
	c1.4-1,2.9-2.2,4.2-3.4c1.3-1.2,2.9-2.4,4.4-3.4c0.8-0.4,1.4-0.9,2-1.6c0.7-0.7,1.3-1.2,2-1.8l2.5-2.2l1.4,1.2
	c1.2-0.3,2.1-0.9,2.5-2c0.5-1.2,0.4-2.2-0.4-3.3c-0.8,0.3-1.3,0.5-1.8,1c-0.5,0.5-1.2,0.5-2.2,0.1c-0.3-0.8,0.1-1.7,1-2.5
	c0.8-0.7,1.4-1.2,2-1.8c0.7-0.7,1.3-1.2,2-1.8c0.8-0.7,1.2-0.9,1.4-0.9s0.9,0.3,2.2,0.7c0.9-1,1.7-2,2.2-2.7c0.5-0.8,1-1.7,1.8-2.7
	c0.5-1,1-2,1.8-2.9s1.4-2,2.2-2.9c-1.2-1.4-0.8-3,1-4.7c0.8-0.3,0.8-0.8,0.4-1.6c-0.5-0.4-0.8-0.9-0.9-1.6c-0.1-0.7-0.4-1.2-0.9-1.6
	c0.3-0.7,0.8-1,1.4-1.2c0-0.3-0.1-0.4-0.4-0.7c-0.8-0.8-0.8-1.7-0.4-2.7c0.3-0.3,0.5-0.5,0.8-0.8c0.3-0.3,0.5-0.5,0.8-0.5
	c1.2-0.4,2-0.9,2.4-1.7s0.8-1.4,1.3-2.4c0-0.4,0-0.8-0.1-0.9c-0.1-0.3,0-0.5,0.1-0.9c0.8-1,1-2.1,0.9-3.3c-0.1-1.2-0.3-2.4-1.2-3.5
	v-0.9c0.9-1,1.3-3.4,1.3-3.4v-3.4c0,0-0.4-1.2-0.7-1.8s-0.5-1.2-0.8-1.8c-0.3-0.7-0.4-1.4-0.4-2.5c0.3-1,0.4-2,0.4-2.6v-2.6
	c-0.5-2.2-0.8-4.6-0.9-6.9c-0.1-2.4-0.4-4.7-0.9-6.9c0-0.7-0.3-1.6-0.8-2.7c0-0.4-0.1-0.8-0.4-1.2c0-0.8-0.3-2.2-0.8-4.3
	c-0.3-0.4-0.4-0.8-0.4-1.2s-0.1-0.8-0.4-1.2c0-0.3,0-0.4,0.1-0.5c0.1-0.1,0-0.4-0.1-0.8c-0.3-1.2-0.5-2.5-0.8-3.9
	c-0.3-1.3-0.7-2.7-1-4.2c-0.3-0.8-0.5-1.6-0.8-2.4s-0.3-1.6,0-2.6c0-0.7-0.1-1.3-0.4-2c-0.3-0.8-0.5-1.4-0.8-2
	c-0.3-1-0.4-2.1-0.5-3.3c-0.1-1.2-0.4-2.2-0.9-3.3l-1-2.7c-0.5-1-0.8-2-0.9-2.9c-0.1-0.9-0.5-2-1.3-2.9c-0.3-0.4-0.3-0.9-0.1-1.4
	c0.1-0.5,0-0.9-0.1-1.4c-0.5-1-0.8-2-1-2.7c-0.3-0.8-0.7-1.7-1-2.5c0-0.4-0.5-1-1.4-1.8c-0.9-1.2-1.3-2.2-1-3.1c0-0.7-0.1-1-0.4-1.2
	c-0.9-1.4-1.8-2.9-2.5-4.4c-0.8-1.6-1.8-2.9-3.3-4.2c-0.3-0.3-0.4-0.5-0.4-0.9c-0.3-0.4-0.4-0.8-0.4-1c0-0.3-0.1-0.5-0.4-0.8
	c-0.5-0.7-1-1.2-1.6-1.7c-0.7-0.5-0.8-1.2-0.5-2c-1.4-1.2-2.5-2.2-3.3-3.1c0.8-0.8,0.8-1.6,0.4-2.4c-0.5-0.8-0.9-1.4-1.4-2
	c-1.2-1.4-2.5-2.9-3.8-4.2c-1.3-1.3-2.6-2.7-3.8-4.2c-0.9-1-1.8-2-2.5-2.7c-0.8-0.8-1.6-1.7-2.5-2.7c-1.2-1.7-2.9-3.1-5.1-4.3
	c-0.3,0-0.4-0.1-0.4-0.3c-0.8-1.4-2.4-2.2-5.1-2.2c-0.5,0-0.9,0-1.4-0.1c-0.5-0.1-0.9-0.1-1.4-0.1c-4.3-0.7-8,0.1-11.1,2.2
	c-2.2,1.2-7.6,1.6-7.6,1.6h1.2c-3,0-6,0-9.2,0.1c-3.1,0.1-6,0.5-8.8,1.4c-0.5,0-0.9,0-1.2,0.1c-0.3,0.1-0.7,0.1-1.2,0.1
	c-2,0.3-3.8,0.7-5.2,1.2c-1.4,0.7-3.1,1.3-4.8,2.2c-1.4,0.4-2.6,0.8-3.4,1.2s-1.4,0.8-2.2,1c-0.8,0.3-1.6,0.7-2.6,1
	c-1.4,0.8-2.4,1.7-2.6,2.7c-0.8,1-1.3,1.7-1.4,1.8c-1.3,0.7-2.1,1.3-2.6,2.2c-0.5,0.8-1,1.7-1.4,2.7l-2.2,3.7c0,0.3,0,0.4-0.1,0.7
	c-0.1,0.3-0.1,0.5-0.1,0.9c-0.3,1-0.4,2.1-0.5,3.3c-0.1,1.2-0.4,2.2-0.9,3.3v0.9c0.3,3.5-0.7,7.1-2.6,10.9c-0.5,0.8-0.8,2.2-0.8,4.1
	c0.5,1.4,0.4,2.7-0.4,3.7c-0.5,0.4-0.8,0.8-0.8,0.9c0,1.2-0.3,2.5-0.9,3.5c-0.7,1.2-0.8,2.5-0.5,3.9c0.3,0.4,0.3,0.8,0.1,0.9
	c-0.1,0.3-0.1,0.5-0.1,0.9c-0.3,0.3-0.4,0.5-0.4,0.9c0.5,2.5,0,4.4-1.4,5.9v0.9c0.5,2.2,0.5,4.4,0.1,6.4s-0.7,4.1-0.9,6.4
	c-0.3,1-0.5,2.1-0.8,3.3c-0.3,1.2-0.1,2.2,0.4,3.3c0.3,0.4,0.3,0.8,0.1,0.9c-0.1,0.3-0.1,0.5-0.1,0.9c-0.3,2.1-0.4,4.1-0.5,6
	s-0.1,3.9-0.1,6c0,1,0.1,1.8,0.4,2.5c0,1,0.1,2.1,0.4,3.1c0.3,1,0.4,2.1,0.4,3.1c0,0.8-0.1,1.3-0.4,1.6c-0.8,1-1,1.8-0.8,2.5
	c0.5,1,0.4,1.8-0.4,2.5c-0.5,0.8-0.5,1.6,0,2.2c0.5,1.7,1,2.9,1.4,3.7c0,0.7,0.3,1.6,0.8,2.7c0,1,0,2,0,2.9c0,0.9,0.1,2,0.4,3
	c0,0.4,0,0.9,0.1,1.4c0.1,0.5,0.1,1,0.1,1.7c0.3,0.8,0.3,1.7,0.1,2.5c-0.1,0.8-0.8,1.6-2.1,2.2c-0.3,0.3-0.4,0.5-0.5,0.9
	c-0.1,0.4-0.3,0.8-0.5,1.2c-0.5,2.5,0,4.4,1.4,5.9c1,1.2,1.2,2.5,0.4,3.7c-0.8,0.8-0.9,1.8-0.4,3.1c0.3,1,0.4,2,0.5,2.7
	c0.1,0.8,0.3,1.7,0.5,2.5c0.3,0.7,0.4,1.4,0.4,2.5c-0.5,1.4-0.1,2.5,1.2,3.1c0.8,0.4,1.4,0.9,2.1,1.6c0.7,0.7,1.3,1.2,2.1,1.6
	c0.3,0.4,0.5,0.8,0.8,0.9c0.3,0.3,0.5,0.5,0.8,0.9c0.3,0,0.4,0.1,0.4,0.3c1.7,1.4,2.7,3,3,4.7c0,0.4,0.5,1,1.4,1.8
	c2.2,1.8,4.4,3.7,6.5,5.6c2.1,1.8,4.1,3.9,5.8,6.1c0,0.3,0,0.3,0.1,0.3s0.1,0.1,0.1,0.3c1.3,0.7,2.4,1.3,3.4,2.2c1,0.8,2,1.7,3,2.7
	c1,0.8,2.1,1.4,3.1,1.7c1.2,0.3,2.4,0.7,3.5,1c0.5,0.4,1,0.7,1.4,0.8c0.5,0.1,1,0.4,1.4,0.8c2,1,3.9,1.7,6,1.8
	c1.4,0,2.9,0.3,4.3,0.7c1.4,0.4,2.7,0.8,4.3,0.9c1.4,0.4,2.9,0.7,4.1,0.7c1.7,0,3,0,3,0s3.5-0.9,5.4-1.3c1.7-0.3,3.3-0.3,4.8-0.1
	c1.6,0.1,3.1,0.1,4.8,0.1c5.8-0.3,11.4-1.6,16.9-4.1c0.9-0.4,1.8-0.8,2.7-1.2c0.8-0.4,1.7-0.8,2.7-1.2
	C608.3,254.4,608.8,254.1,609.5,253.5z M550.9,108.8c0.3-0.4,0.4-1.2,0.4-2.2c0-2.5,0.8-5.1,2.5-8.1c0.5-0.7,1-1.3,1.6-2
	c0.7-0.8,1.2-1.4,1.6-2c0.9-1.2,2-2.4,2.9-3.4c0.9-1,2.1-2.1,3.3-3.1c1.2-0.7,2.2-1.3,2.9-2.2c0.8-0.8,1.6-1.7,2.5-2.7
	c0.8-0.7,1.4-1.3,2-2c0.7-0.8,1.3-1.4,2-2c1.4-0.8,2.5-0.8,3.3,0c0.9,1,1.8,2.2,2.5,3.4c0.8,1.2,1.2,2.7,1.4,4.3
	c0,1.7,0.5,3.3,1.4,4.7c0.5,0.8,0.9,1.6,1.4,2.4c0.5,0.8,0.8,1.6,0.8,2.6c0.3,0.8,0.7,2.2,1,4.3c0.3,1,0.4,2.1,0.5,3.1
	c0.1,1,0.3,2.1,0.5,3.1c0,0.3,0,0.4,0.1,0.5s0.1,0.3,0.1,0.5c0.8,1.7,1.3,3.3,1.6,4.8c0.4,1.6,0.8,3.1,1.3,4.8
	c0.5,2.1,0.9,3.7,1.4,4.7c0.3,1,0.5,2.1,0.8,3.3c0.3,1.2,0.7,2.4,1,3.5c0.5,1.4,0.8,2.9,0.9,4.2s0.4,2.7,0.9,4.2
	c0.3,1.2,0.5,2.5,0.8,3.7c0.3,1.2,0.5,2.5,0.8,3.7l1,7.5c0,1.2,0.1,2.5,0.5,3.7c0.4,1.2,0.3,2.5-0.1,3.7c-0.5,1-0.8,2.1-0.9,3.1
	s-0.3,2.1-0.5,3.1c0,1.2-0.1,2.2-0.4,2.7c-0.5,1.2-0.8,2.6-1,4.1c-0.3,1.4-0.7,2.7-1,4.1c-0.3,0.4-0.4,0.9-0.4,1.6
	c-0.3,1.7-0.4,3.3-0.5,5c-0.1,1.7-0.4,3.3-0.9,5c-0.3,1.2-0.3,2.5,0,3.5c0.3,1.2,0.3,2.4,0,3.5c-0.3,0.7-0.3,1.2-0.1,1.7
	c0.1,0.5,0,1-0.5,1.7c-0.5,0.3-0.8,0.8-0.8,1.8c0.5,1.7,0.4,3.3-0.1,4.8c-0.7,1.6-1.2,3.1-1.6,4.8c-0.9,3.5-2.6,7.3-5.1,11.5
	c-1.2,2.2-2.5,4.6-3.9,6.9c-1.4,2.4-3.4,4.4-5.8,6.4c-2,1.8-4.1,2.4-6.5,1.6c-1.7-0.7-3.1-1.4-4.3-2.5c-1.2-0.8-2.2-1.7-3-2.5
	c-0.8-0.8-1.7-1.7-2.7-2.5c-2.4-1.7-3.9-4.1-4.7-7.1c0-0.4,0-0.8-0.1-1c-0.1-0.3-0.1-0.7-0.1-1c-0.5-1.8-0.9-3.7-1.4-5.4
	s-0.9-3.5-1.4-5.4c-0.5-2.1-0.8-3.5-0.8-4.3c-0.3-1-0.5-2.1-0.8-3.1c-0.3-1-0.4-2.1-0.4-3.1c-0.3-1.2,0.5-3.9,0.5-3.9v-3.9
	c0,0-1.7-4.4-1.8-6.4s-0.4-3.9-0.9-6c-0.5-1.7-0.7-3.1-0.5-4.7c0.1-1.4,0.1-2.9,0.1-4.3c0.3-5.1,0.4-15.4,0.4-15.4v-8.1
	c0,0,0-3.7,0.1-5.4c0.1-1.7,1.2-5.1,1.2-5.1v-2.9c0,0-0.5-2-0.3-2.9c0-1,0-2,0.1-2.7s0.3-1.7,0.5-2.7l0.4-0.7c0.5-1.4,1-2.7,1.6-4.1
	c0.7-1.2,1.2-2.6,1.6-4.1c0.5-0.8,0.8-2.1,0.8-3.7C550.7,110.9,550.9,110.1,550.9,108.8z"/>
<path class="st1" d="M684.7,279.2c0.7-0.5,1.2-0.5,1.4-0.1c0.3,0.4,0.5,0.7,1,0.9c0.7,0.7,1.6,0.8,2.5,0.4c0-0.5-0.1-0.8-0.4-1
	c-1.4-1.2-2.7-2.5-4.1-3.8c-1.3-1.4-2.7-2.6-4.4-3.8c-0.7-0.5-1.3-1-2-1.7c-0.7-0.7-1.2-1.4-2-2.1l-2.5-2.5l-1.4,1.4
	c-1.2-0.3-2-1-2.5-2.2c-0.5-1.3-0.4-2.5,0.4-3.7c0.7,0.3,1.3,0.7,1.8,1.2s1.2,0.7,2.1,0.1c0.3-0.9-0.1-1.8-1-2.7
	c-0.7-0.7-1.3-1.4-2-2.1c-0.7-0.7-1.2-1.4-2-2.1c-0.7-0.7-1.2-1-1.4-1c-0.3,0-0.9,0.3-2.1,0.7c-0.9-1.2-1.7-2.2-2.1-3.1
	c-0.5-0.9-1-2-1.8-3.1c-0.5-1.2-1-2.2-1.8-3.3c-0.7-1-1.4-2.1-2.1-3.3c1.2-1.6,0.8-3.4-1-5.2c-0.7-0.3-0.8-0.8-0.4-1.7
	c0.5-0.5,0.8-1,0.9-1.7c0.1-0.7,0.4-1.3,0.9-1.7c-0.3-0.7-0.7-1.2-1.4-1.4c0-0.3,0.1-0.5,0.4-0.7c0.7-0.9,0.8-2,0.4-3.1
	c-0.3-0.3-0.5-0.5-0.7-0.9c-0.3-0.4-0.5-0.5-0.7-0.5c-1.2-0.5-2-1-2.4-2c-0.4-0.8-0.8-1.7-1.2-2.6c0-0.5,0-0.8,0.1-1
	c0.1-0.3,0-0.5-0.1-1c-0.7-1.2-1-2.4-0.9-3.7s0.3-2.6,0.1-4.1v-1c0.1-1.2,1.3-3.8,1.3-3.8v-3.8c0,0-1.2-1.4-0.9-2.1
	c0.3-0.7,0.5-1.4,0.7-2.1c0.3-0.7,0.4-1.6,0.4-2.7c-0.3-1.2-0.4-2.1-0.1-3v-3.5c0.3-2.6,0.5-5.2,0.7-7.8c0.1-2.6,0.4-5.4,0.9-7.8
	c0-0.7,0.3-1.7,0.7-3.1c0-0.5,0.1-0.9,0.4-1.4c0-0.9,0.3-2.6,0.7-4.8c0.3-0.5,0.4-0.9,0.4-1.4c0-0.5,0.1-0.9,0.4-1.4
	c0-0.3,0-0.4-0.1-0.5c-0.1-0.1,0-0.4,0.1-0.9c0.3-1.4,0.5-2.9,0.7-4.3c0.3-1.6,0.5-3.1,1-4.7c0.3-0.9,0.5-1.8,0.7-2.6
	c0.3-0.8,0.3-1.8,0-3c0-0.7,0.1-1.4,0.4-2.2c0.3-0.8,0.5-1.6,0.7-2.2c0.3-1.2,0.4-2.4,0.5-3.7c0.1-1.3,0.4-2.5,0.9-3.7l1-3.1
	c0.5-1.2,0.8-2.2,0.9-3.3s0.5-2.1,1.2-3.3c0.3-0.5,0.3-1,0.1-1.6c-0.1-0.5,0-1,0.1-1.6c0.5-1.2,0.8-2.2,1-3.1c0.3-0.9,0.7-1.8,1-2.7
	c0-0.5,0.5-1.2,1.4-2.1c0.9-1.4,1.3-2.6,1-3.5c0-0.7,0.1-1.2,0.4-1.4c0.9-1.6,1.8-3.3,2.5-5.1c0.7-1.7,1.8-3.3,3.1-4.7
	c0.3-0.3,0.4-0.5,0.4-1c0.3-0.5,0.4-0.9,0.4-1.2c0-0.4,0.1-0.7,0.4-0.9c0.5-0.7,1-1.3,1.6-2c0.5-0.5,0.8-1.3,0.5-2.2
	c1.4-1.4,2.5-2.6,3.1-3.5c-0.7-0.9-0.8-1.8-0.4-2.6c0.5-0.8,0.9-1.6,1.4-2.2c1.2-1.6,2.5-3.1,3.7-4.7c1.3-1.6,2.5-3.1,3.7-4.7
	c0.9-1.2,1.8-2.2,2.5-3.1c0.7-0.9,1.6-2,2.5-3.1c1.2-1.8,2.9-3.5,5-4.8c0.3,0,0.4-0.1,0.4-0.4c0.7-1.6,2.4-2.5,5-2.5
	c0.5,0,0.9,0,1.4-0.1c0.5-0.1,0.9-0.1,1.4-0.1c4.3-0.7,8,0.1,11,2.5c2.1,1.4,7.5,1.6,7.5,1.6h-2.5c3,0,6,0,9.2,0.1
	c3.1,0.1,6,0.7,8.8,1.6c0.5,0,0.9,0,1.2,0.1c0.3,0.1,0.7,0.1,1.2,0.1c2,0.3,3.8,0.7,5.2,1.4c1.4,0.7,3.1,1.6,4.8,2.5
	c1.4,0.5,2.6,0.9,3.4,1.4c0.8,0.5,1.4,0.9,2.2,1.2c0.8,0.3,1.6,0.8,2.6,1.2c1.4,0.9,2.4,2,2.6,3.1c0.8,1.2,1.3,1.8,1.4,2.1
	c1.3,0.7,2.1,1.6,2.6,2.5c0.5,0.9,1,2,1.4,3.1l2.2,4.2c0,0.3,0,0.5,0.1,0.7c0.1,0.3,0.1,0.5,0.1,1c0.3,1.2,0.4,2.4,0.5,3.7
	c0.1,1.3,0.4,2.5,0.9,3.7v1c-0.3,3.9,0.7,8.1,2.6,12.3c0.5,0.9,0.8,2.5,0.8,4.6c-0.5,1.7-0.4,3,0.4,4.2c0.4,0.4,0.7,0.8,0.8,1
	c0.3,1.3,0.3,2.7,0.9,3.9c0.7,1.3,0.9,2.7,0.7,4.4c-0.3,0.5-0.3,0.8-0.1,1c0.1,0.3,0.1,0.5,0.1,1c0.3,0.3,0.4,0.5,0.4,1
	c-0.5,2.7,0,5,1.4,6.7v1c-0.5,2.6-0.5,5-0.1,7.2c0.4,2.2,0.7,4.6,0.9,7.2c0.3,1.2,0.5,2.4,0.8,3.7c0.3,1.3,0.1,2.5-0.4,3.7
	c-0.3,0.5-0.3,0.8-0.1,1c0.1,0.3,0.1,0.5,0.1,1c0.3,2.4,0.4,4.6,0.5,6.8c0.1,2.2,0.1,4.4,0.1,6.8c0,1.2-0.1,2.1-0.4,2.7
	c0,1.2-0.1,2.4-0.4,3.5c-0.3,1.2-0.4,2.4-0.4,3.5c0,0.9,0.1,1.6,0.4,1.7c0.8,1.2,1,2.1,0.8,2.7c-0.5,1.2-0.4,2.1,0.4,2.7
	c0.5,0.9,0.5,1.7,0,2.5c-0.5,1.8-1,3.3-1.4,4.2c0,0.7-0.3,1.7-0.8,3.1c0,1.2,0,2.2,0,3.3c0,1-0.1,2.2-0.4,3.3c0,0.5,0,1-0.1,1.6
	c-0.1,0.5-0.1,1.2-0.1,2c-0.3,0.9-0.3,1.8-0.1,2.7c0.1,0.9,0.8,1.7,2.1,2.5c0.3,0.3,0.4,0.5,0.5,1c0.1,0.5,0.3,0.9,0.5,1.4
	c0.5,2.7,0,5-1.4,6.7c-1,1.4-1.2,2.7-0.4,4.2c0.8,0.9,0.9,2.1,0.4,3.5c-0.3,1.2-0.4,2.2-0.5,3.1c-0.1,0.9-0.3,1.8-0.5,2.7
	c-0.3,0.7-0.4,1.6-0.4,2.7c0.5,1.6,0.1,2.7-1.2,3.5c-0.8,0.5-1.4,1-2.1,1.7c-0.7,0.7-1.3,1.3-2.1,1.7c-0.3,0.5-0.5,0.8-0.8,1
	c-0.3,0.3-0.5,0.5-0.8,1c-0.3,0-0.4,0.1-0.4,0.4c-1.7,1.6-2.7,3.4-3,5.2c0,0.5-0.5,1.2-1.4,2.1c-2.2,2.1-4.4,4.2-6.5,6.3
	c-2.1,2.1-4.1,4.4-5.8,7.1c0,0.3,0,0.4-0.1,0.4s-0.1,0.1-0.1,0.4c-1.3,0.7-2.4,1.6-3.4,2.5c-1,0.9-2,2-3,3.1c-1,0.9-2.1,1.6-3.1,2
	c-1.2,0.4-2.4,0.8-3.5,1.2c-0.5,0.5-1,0.8-1.4,0.9c-0.5,0.1-1,0.4-1.4,0.9c-2,1.2-3.9,1.8-6,2.1c-1.4,0-2.9,0.3-4.3,0.7
	c-1.4,0.5-2.7,0.8-4.3,1c-1.4,0.5-2.9,0.7-4.1,0.7c-1.7,0-1.8,0-1.8,0s-3.4-0.9-5.4-1.3c-1.7-0.3-3.3-0.3-4.8-0.1
	c-1.6,0.1-3.1,0.1-4.8,0.1c-5.6-0.3-11.2-1.7-16.6-4.6c-0.9-0.5-1.8-0.9-2.6-1.4c-0.8-0.5-1.7-0.9-2.6-1.4
	C685.9,280.3,685.5,280,684.7,279.2z M742.5,115.9c-0.3-0.5-0.4-1.3-0.4-2.5c0-2.7-0.8-5.9-2.5-9.2c-0.5-0.7-1-1.4-1.6-2.2
	c-0.7-0.8-1.2-1.6-1.6-2.2c-0.9-1.4-1.8-2.6-2.9-3.8c-0.9-1.2-2-2.4-3.1-3.5c-1.2-0.7-2.1-1.6-2.9-2.5c-0.7-0.9-1.6-2-2.5-3.1
	c-0.7-0.7-1.3-1.4-2-2.2s-1.2-1.6-2-2.2c-1.4-0.9-2.5-0.9-3.1,0c-0.9,1.2-1.8,2.5-2.5,3.8c-0.7,1.4-1.2,3-1.4,4.8
	c0,1.8-0.5,3.7-1.4,5.2c-0.5,0.9-0.9,1.8-1.4,2.6s-0.7,1.8-0.7,3c-0.3,0.9-0.7,2.6-1,4.8c-0.3,1.2-0.4,2.4-0.5,3.5
	c-0.1,1.2-0.3,2.4-0.5,3.5c0,0.3,0,0.4-0.1,0.5s-0.1,0.3-0.1,0.5c-0.7,1.8-1.2,3.7-1.6,5.4c-0.4,1.7-0.8,3.5-1.2,5.4
	c-0.5,2.4-0.9,4.1-1.4,5.2c-0.3,1.2-0.5,2.4-0.7,3.7c-0.3,1.3-0.7,2.6-1,4.1c-0.5,1.7-0.8,3.3-0.9,4.7c-0.1,1.6-0.4,3.1-0.9,4.7
	c-0.3,1.4-0.5,2.7-0.7,4.2c-0.3,1.4-0.5,2.7-0.7,4.2l-1,8.4c0,1.4-0.1,2.7-0.5,4.2c-0.4,1.4-0.3,2.7,0.1,4.2
	c0.5,1.2,0.8,2.4,0.9,3.5c0.1,1.2,0.3,2.4,0.5,3.5c0,1.4,0.1,2.5,0.4,3.1c0.5,1.4,0.8,2.9,1,4.6c0.3,1.6,0.5,3.1,1,4.6
	c0.3,0.5,0.4,1,0.4,1.7c0.3,1.8,0.4,3.8,0.5,5.6c0.1,1.8,0.4,3.8,0.9,5.6c0.3,1.4,0.3,2.7,0,4.1c-0.3,1.3-0.3,2.6,0,4.1
	c0.3,0.7,0.3,1.3,0.1,2c-0.1,0.5,0,1.2,0.5,2c0.5,0.3,0.7,0.9,0.7,2.1c-0.5,1.8-0.4,3.7,0.1,5.4c0.5,1.7,1.2,3.5,1.6,5.4
	c0.9,3.9,2.6,8.2,5,12.9c1.2,2.6,2.5,5.2,3.9,7.8c1.4,2.7,3.3,5.1,5.6,7.2c1.8,2.1,4.1,2.7,6.4,1.7c1.7-0.7,3-1.6,4.3-2.7
	c1.2-0.9,2.2-1.8,3-2.7c0.8-0.9,1.7-1.8,2.6-2.7c2.4-1.8,3.9-4.6,4.6-8.1c0-0.5,0-0.9,0.1-1.2c0.1-0.4,0.1-0.8,0.1-1.2
	c0.5-2.1,0.9-4.2,1.4-6.1s0.9-4.1,1.4-6.1c0.5-2.4,0.7-3.9,0.7-4.8c0.3-1.2,0.5-2.4,0.7-3.5c0.3-1.2,0.4-2.4,0.4-3.5
	c0.3-1.4-0.1-4.3-0.1-4.3v-4.3c0,0,1.3-5,1.3-7.2c0.1-2.2,0.4-4.4,0.9-6.8c0.5-1.8,0.7-3.7,0.5-5.2s-0.1-3.3-0.1-4.8
	c-0.3-5.9,0-17.5,0-17.5v-9.2c0,0-0.4-4.2-0.5-6.1c-0.1-2-0.8-5.8-0.8-5.8v-3.3c0,0,0.1-2.1-0.1-3.3c0-1.2,0-2.2-0.1-3.1
	c-0.1-0.9-0.3-2-0.5-3.1l-0.4-0.7c-0.5-1.6-1-3.1-1.6-4.6c-0.7-1.4-1.2-2.9-1.6-4.6c-0.5-0.9-0.7-2.4-0.7-4.2
	C742.6,118.3,742.5,117.3,742.5,115.9z"/>
<path class="st1" d="M153.3,494.9c0.7-0.4,1-0.5,1.3-0.1c0.3,0.4,0.5,0.7,1,0.8c0.7,0.7,1.4,0.8,2.4,0.4c0-0.4-0.1-0.8-0.4-1
	c-1.3-1-2.6-2.4-3.8-3.7c-1.2-1.3-2.6-2.5-4.1-3.7c-0.7-0.4-1.3-1-1.8-1.7c-0.5-0.7-1.2-1.3-1.8-2l-2.4-2.4l-1.3,1.3
	c-1-0.3-1.8-0.9-2.4-2.1c-0.4-1.2-0.4-2.4,0.4-3.4c0.7,0.3,1.2,0.7,1.7,1.2c0.4,0.5,1,0.7,2,0.1c0.3-0.9-0.1-1.7-1-2.6
	c-0.7-0.7-1.3-1.3-1.8-2c-0.5-0.7-1.2-1.3-1.8-2c-0.7-0.7-1-1-1.3-1s-0.9,0.3-2,0.7c-0.9-1-1.6-2.1-2-3c-0.4-0.9-1-1.8-1.7-3
	c-0.4-1-1-2.1-1.7-3.1c-0.7-1-1.3-2.1-2-3.1c1-1.6,0.8-3.1-1-5c-0.7-0.3-0.8-0.8-0.4-1.7c0.4-0.4,0.7-1,0.8-1.7
	c0.1-0.7,0.4-1.2,0.8-1.7c-0.3-0.7-0.7-1-1.3-1.3c0-0.3,0.1-0.4,0.4-0.7c0.7-0.9,0.8-1.8,0.4-3c-0.3-0.3-0.4-0.5-0.7-0.8
	c-0.3-0.4-0.4-0.5-0.7-0.5c-1-0.4-1.8-1-2.1-1.8c-0.4-0.8-0.7-1.6-1.2-2.5c0-0.4,0-0.8,0.1-1c0.1-0.3,0-0.5-0.1-1
	c-0.7-1-0.9-2.2-0.8-3.4c0.1-1.2,0.3-2.5-0.9-3.8v-1c1.2-1,1.3-3.7,1.3-3.7v-3.7c0,0-0.1-1.3,0-2c0.3-0.7,0.4-1.3,0.7-2
	c0.3-0.7,0.4-1.6,0.4-2.6c-0.3-1-0.4-2.1,0.3-2.7v-2.7c-0.1-2.4,0.1-4.8,0.3-7.5c0.1-2.5,0.4-5,0.8-7.5c0-0.7,0.3-1.7,0.7-3
	c0-0.4,0.1-0.9,0.4-1.3c0-0.9,0.3-2.4,0.7-4.6c0.3-0.4,0.4-0.9,0.4-1.3s0.1-0.9,0.4-1.3c0-0.3,0-0.4-0.1-0.5c-0.1-0.1,0-0.4,0.1-0.8
	c0.3-1.3,0.4-2.7,0.7-4.1c0.3-1.4,0.5-2.9,1-4.4c0.3-0.9,0.4-1.7,0.7-2.5c0.3-0.8,0.3-1.7,0-2.7c0-0.7,0.1-1.3,0.4-2.1
	c0.3-0.8,0.4-1.4,0.7-2.1c0.3-1,0.4-2.2,0.5-3.4c0.1-1.2,0.4-2.4,0.8-3.4l1-3c0.4-1,0.7-2.1,0.8-3.1s0.5-2,1.2-3.1
	c0.3-0.4,0.3-0.9,0.1-1.4c-0.1-0.5,0-1,0.1-1.4c0.4-1,0.8-2.1,1-3c0.3-0.9,0.5-1.7,1-2.6c0-0.4,0.4-1,1.3-2c0.9-1.3,1.2-2.4,1-3.3
	c0-0.7,0.1-1,0.4-1.3c0.9-1.6,1.7-3.1,2.4-4.8c0.7-1.7,1.7-3.1,3-4.4c0.3-0.3,0.4-0.5,0.4-1c0.3-0.4,0.4-0.8,0.4-1.2
	s0.1-0.7,0.4-0.8c0.4-0.7,0.9-1.3,1.4-1.8c0.5-0.5,0.7-1.3,0.5-2.1c1.3-1.3,2.4-2.4,3-3.3c-0.7-0.9-0.8-1.7-0.4-2.5
	c0.4-0.8,0.9-1.4,1.3-2.1c1-1.6,2.2-3,3.4-4.4c1.2-1.4,2.4-2.9,3.4-4.4c0.9-1,1.7-2.1,2.4-3c0.7-0.9,1.4-1.8,2.4-3
	c1-1.7,2.6-3.3,4.6-4.6c0.3,0,0.4-0.1,0.4-0.4c0.7-1.6,2.2-2.4,4.6-2.4c0.4,0,0.9,0,1.3-0.1c0.4-0.1,0.9-0.1,1.3-0.1
	c3.9-0.7,7.3,0.1,10.2,2.4c2,1.3,6.9,1.2,6.9,1.2h3.9c2.5,0,5,0,7.6,0.1c2.6,0.1,5,0.7,7.3,1.4c0.4,0,0.8,0,0.9,0.1
	c0.3,0.1,0.5,0.1,0.9,0.1c1.7,0.3,3.1,0.7,4.3,1.3c1.3,0.7,2.6,1.4,4.1,2.4c1.3,0.4,2.2,0.9,2.7,1.3c0.7,0.4,1.3,0.8,1.8,1.2
	c0.7,0.4,1.3,0.8,2.2,1.2c1.3,0.9,2,1.8,2.2,3c0.7,1,1,1.7,1.3,2c1,0.7,1.7,1.4,2.2,2.4c0.4,0.9,0.8,1.8,1.3,3l1.8,3.9
	c0,0.3,0,0.4,0.1,0.7c0.1,0.3,0.1,0.5,0.1,1c0.3,1,0.4,2.2,0.5,3.4c0.1,1.2,0.4,2.4,0.8,3.4v1c-0.3,3.8,0.5,7.6,2.2,11.5
	c0.4,0.9,0.7,2.4,0.7,4.3c-0.4,1.6-0.3,2.9,0.3,3.9c0.4,0.4,0.7,0.8,0.7,1c0,1.3,0.3,2.6,0.8,3.8c0.5,1.2,0.7,2.6,0.5,4.2
	c-0.3,0.4-0.3,0.8-0.1,1c0.1,0.3,0.1,0.5,0.1,1c0.3,0.3,0.3,0.5,0.3,1c-0.4,2.6,0,4.7,1.3,6.3v1c-0.4,2.5-0.5,4.7-0.1,6.8
	c0.3,2.1,0.5,4.3,0.8,6.8c0.3,1,0.4,2.2,0.7,3.4c0.3,1.2,0.1,2.4-0.3,3.4c-0.3,0.4-0.3,0.8-0.1,1c0.1,0.3,0.1,0.5,0.1,1
	c0.3,2.2,0.4,4.3,0.5,6.4c0.1,2.1,0.1,4.2,0.1,6.4c0,1-0.1,2-0.3,2.6c0,1-0.1,2.2-0.3,3.3c-0.3,1-0.3,2.2-0.3,3.3
	c0,0.9,0.1,1.4,0.3,1.7c0.7,1,0.8,2,0.7,2.6c-0.4,1-0.3,2,0.3,2.6c0.4,0.9,0.4,1.7,0,2.4c-0.4,1.8-0.8,3.1-1.3,3.9
	c0,0.7-0.3,1.7-0.7,3c0,1,0,2.1,0,3.1c0,1-0.1,2.1-0.3,3.1c0,0.4,0,0.9-0.1,1.4c-0.1,0.5-0.1,1.2-0.1,1.8c-0.3,0.9-0.3,1.8-0.1,2.6
	c0.1,0.9,0.7,1.7,1.7,2.4c0.3,0.3,0.4,0.5,0.5,1c0.1,0.4,0.3,0.9,0.5,1.3c0.4,2.6,0,4.7-1.3,6.3c-0.8,1.3-0.9,2.6-0.3,3.9
	c0.7,0.9,0.8,2,0.3,3.3c-0.3,1-0.4,2.1-0.5,3c-0.1,0.9-0.3,1.7-0.5,2.6c-0.3,0.7-0.3,1.6-0.3,2.6c0.4,1.6,0.1,2.6-0.9,3.3
	c-0.7,0.4-1.2,1-1.7,1.7c-0.5,0.7-1,1.2-1.7,1.7c-0.3,0.4-0.4,0.8-0.7,1c-0.3,0.3-0.4,0.5-0.7,1c-0.3,0-0.3,0.1-0.3,0.4
	c-1.4,1.6-2.2,3.1-2.5,5c0,0.4-0.4,1-1.3,2c-1.8,2-3.7,3.9-5.5,5.9c-1.8,2-3.4,4.2-4.8,6.5c0,0.3,0,0.4-0.1,0.4s-0.1,0.1-0.1,0.4
	c-1,0.7-2,1.4-2.7,2.4c-0.8,0.9-1.7,1.8-2.5,3c-0.8,0.9-1.7,1.4-2.6,1.8s-2,0.7-3,1.2c-0.4,0.4-0.8,0.7-1.3,0.8
	c-0.4,0.1-0.8,0.4-1.3,0.8c-1.7,1-3.3,1.8-5,2c-1.3,0-2.5,0.3-3.5,0.7c-1.2,0.4-2.4,0.8-3.5,1c-1.3,0.4-2.4,0.7-3.4,0.7
	c-1.4,0-7.8,0-7.8,0s-3.1-0.9-5-1.3c-1.6-0.3-3-0.3-4.4-0.1c-1.4,0.1-2.9,0.1-4.4,0.1c-5.2-0.3-10.5-1.7-15.4-4.3
	c-0.9-0.4-1.7-0.9-2.5-1.3c-0.8-0.4-1.6-0.9-2.5-1.3C154.3,496,153.9,495.6,153.3,494.9z M206.9,341.2c-0.3-0.4-0.4-1.2-0.4-2.4
	c0-2.6-0.8-5.5-2.4-8.5c-0.4-0.7-0.9-1.3-1.4-2.1c-0.5-0.8-1-1.4-1.4-2.1c-0.9-1.3-1.7-2.5-2.6-3.7c-0.9-1-1.8-2.2-3-3.3
	c-1-0.7-2-1.4-2.6-2.4c-0.7-0.9-1.4-1.8-2.4-3c-0.7-0.7-1.3-1.3-1.8-2.1c-0.5-0.8-1.2-1.4-1.8-2.1c-1.3-0.9-2.4-0.9-3,0
	c-0.9,1-1.7,2.4-2.4,3.7s-1,2.9-1.3,4.6c0,1.7-0.4,3.4-1.3,5c-0.4,0.9-0.9,1.7-1.3,2.5c-0.4,0.8-0.7,1.7-0.7,2.7
	c-0.3,0.9-0.5,2.4-1,4.6c-0.3,1-0.4,2.2-0.5,3.3c-0.1,1-0.3,2.2-0.5,3.3c0,0.3,0,0.4-0.1,0.5c-0.1,0.1-0.1,0.3-0.1,0.5
	c-0.7,1.7-1.2,3.4-1.4,5.1c-0.4,1.7-0.7,3.4-1.2,5.1c-0.4,2.2-0.9,3.8-1.3,5c-0.3,1-0.4,2.2-0.7,3.4c-0.3,1.2-0.5,2.5-1,3.8
	c-0.4,1.6-0.7,3-0.8,4.4c-0.1,1.4-0.4,2.9-0.8,4.4c-0.3,1.3-0.4,2.6-0.7,3.9c-0.3,1.3-0.4,2.6-0.7,3.9l-1,7.8c0,1.3-0.1,2.6-0.5,3.9
	c-0.4,1.3-0.3,2.6,0.1,3.9c0.4,1,0.7,2.2,0.8,3.3c0.1,1,0.3,2.2,0.5,3.3c0,1.3,0.1,2.4,0.4,3c0.4,1.3,0.8,2.7,1,4.3
	c0.3,1.6,0.5,3,1,4.3c0.3,0.4,0.4,1,0.4,1.7c0.3,1.7,0.4,3.5,0.5,5.2c0.1,1.7,0.4,3.5,0.8,5.2c0.3,1.3,0.3,2.6,0,3.8
	c-0.3,1.2-0.3,2.5,0,3.8c0.3,0.7,0.3,1.3,0.1,1.8s0,1.2,0.5,1.8c0.4,0.3,0.7,0.9,0.7,2c-0.4,1.7-0.4,3.4,0.1,5.1
	c0.5,1.7,1,3.4,1.4,5.1c0.9,3.8,2.4,7.8,4.6,12.2c1,2.4,2.4,4.8,3.7,7.5c1.3,2.5,3,4.8,5.2,6.8c1.7,2,3.8,2.5,5.9,1.7
	c1.6-0.7,2.9-1.6,3.9-2.6c1-0.9,2-1.7,2.7-2.6c0.8-0.9,1.6-1.7,2.5-2.6c2.2-1.7,3.7-4.3,4.3-7.6c0-0.4,0-0.8,0.1-1.2
	s0.1-0.7,0.1-1.2c0.4-2,0.9-3.9,1.3-5.8c0.4-1.8,0.9-3.8,1.3-5.8c0.4-2.2,0.7-3.8,0.7-4.6c0.3-1,0.4-2.2,0.7-3.3s0.4-2.2,0.4-3.3
	c0.3-1.3,0.3-4.1,0.3-4.1v-4.1c0,0,0.7-4.7,0.8-6.8c0.1-2.1,0.4-4.2,0.8-6.4c0.4-1.7,0.7-3.4,0.5-5c-0.1-1.6-0.1-3-0.1-4.6
	c-0.3-5.5,0.7-16.5,0.7-16.5v-8.9c0,0-1-3.9-1.2-5.8c-0.1-1.8-0.1-5.5-0.1-5.5V366c0,0-0.4-2.1-0.7-3.1c0-1,0-2.1-0.1-3
	c-0.1-0.9-0.3-1.8-0.5-3l-0.4-0.7c-0.4-1.6-0.9-3-1.4-4.3c-0.5-1.3-1-2.7-1.4-4.3c-0.4-0.9-0.7-2.2-0.7-3.9
	C207,343.3,206.9,342.6,206.9,341.2z"/>
<path class="st1" d="M374.7,494.9c-0.8-0.4-1.3-0.5-1.6-0.1c-0.3,0.4-0.7,0.7-1.2,0.8c-0.8,0.7-1.7,0.8-2.7,0.4c0-0.4,0.1-0.8,0.4-1
	c1.6-1,3.1-2.4,4.6-3.7c1.4-1.3,3.1-2.5,5-3.7c0.8-0.4,1.6-1,2.2-1.7c0.7-0.7,1.4-1.3,2.2-2l2.7-2.4l1.6,1.3
	c1.3-0.3,2.2-0.9,2.7-2.1c0.5-1.2,0.4-2.4-0.4-3.4c-0.8,0.3-1.4,0.7-2,1.2c-0.5,0.5-1.3,0.7-2.4,0.1c-0.3-0.9,0.1-1.7,1.2-2.6
	c0.8-0.7,1.6-1.3,2.2-2c0.7-0.7,1.4-1.3,2.2-2c0.8-0.7,1.3-1,1.6-1c0.3,0,1,0.3,2.4,0.7c1-1,1.8-2.1,2.4-3c0.5-0.9,1.2-1.8,2-3
	c0.5-1,1.2-2.1,2-3.1c0.8-1,1.6-2.1,2.4-3.1c-1.3-1.6-0.9-3.1,1.2-5c0.8-0.3,0.9-0.8,0.4-1.7c-0.5-0.4-0.8-1-1-1.7
	c-0.1-0.7-0.4-1.2-1-1.7c0.3-0.7,0.8-1,1.6-1.3c0-0.3-0.1-0.4-0.4-0.7c-0.8-0.9-0.9-1.8-0.4-3c0.3-0.3,0.5-0.5,0.8-0.8
	c0.3-0.4,0.5-0.5,0.8-0.5c1.3-0.4,2.2-1,2.6-1.8c0.4-0.8,0.9-1.6,1.4-2.5c0-0.4,0-0.8-0.3-1c-0.1-0.3,0-0.5,0.3-1
	c0.8-1,1.2-2.2,1-3.4c-0.1-1.2-0.3-2.5-0.7-3.8v-1c0.4-1,1.3-3.7,1.3-3.7v-3.7c0,0-0.9-1.3-1.2-2c-0.3-0.7-0.5-1.3-0.8-2
	c-0.3-0.7-0.4-1.6-0.4-2.6c0.3-1,0.4-2.1-0.3-2.7v-2.7c0.1-2.4-0.3-4.8-0.4-7.5c-0.1-2.5-0.4-5-1-7.5c0-0.7-0.3-1.7-0.8-3
	c0-0.4-0.1-0.9-0.4-1.3c0-0.9-0.3-2.4-0.8-4.6c-0.3-0.4-0.4-0.9-0.4-1.3s-0.1-0.9-0.4-1.3c0-0.3,0.1-0.4,0.3-0.5s0.1-0.4-0.3-0.8
	c-0.3-1.3-0.5-2.7-0.8-4.1c-0.3-1.4-0.7-2.9-1.2-4.4c-0.3-0.9-0.5-1.7-0.8-2.5c-0.3-0.8-0.3-1.7,0-2.7c0-0.7-0.1-1.3-0.4-2.1
	c-0.3-0.8-0.5-1.4-0.8-2.1c-0.3-1-0.4-2.2-0.7-3.4c-0.1-1.2-0.4-2.4-1-3.4l-1.2-3c-0.5-1-0.8-2.1-1-3.1c-0.1-1-0.7-2-1.4-3.1
	c-0.3-0.4-0.3-0.9-0.3-1.4c0.1-0.5,0.1-1-0.1-1.4c-0.5-1-0.9-2.1-1.2-3c-0.3-0.9-0.7-1.7-1.2-2.6c0-0.4-0.5-1-1.6-2
	c-1-1.3-1.4-2.4-1.2-3.3c0-0.7-0.1-1-0.4-1.3c-1-1.6-2-3.1-2.7-4.8c-0.8-1.7-2-3.1-3.5-4.4c-0.3-0.3-0.4-0.5-0.4-1
	c-0.3-0.4-0.4-0.8-0.4-1.2s-0.1-0.7-0.4-0.8c-0.5-0.7-1.2-1.3-1.8-1.8s-0.8-1.3-0.7-2.1c-1.6-1.3-2.7-2.4-3.5-3.3
	c0.8-0.9,0.9-1.7,0.4-2.5c-0.5-0.8-1-1.4-1.6-2.1c-1.3-1.6-2.7-3-4.2-4.4s-2.9-2.9-4.2-4.4c-1-1-2-2.1-2.7-3c-0.8-0.9-1.7-1.8-2.7-3
	c-1.3-1.7-3.1-3.3-5.5-4.6c-0.3,0-0.4-0.1-0.4-0.4c-0.8-1.6-2.6-2.4-5.5-2.4c-0.5,0-1,0-1.6-0.1c-0.5-0.1-1-0.1-1.6-0.1
	c-4.7-0.7-8.8,0.1-12.2,2.4c-2.4,1.3-8.2,1.2-8.2,1.2h-4.2c-3,0-6,0-9.2,0.1s-6,0.7-8.8,1.4c-0.5,0-0.9,0-1.2,0.1
	c-0.3,0.1-0.7,0.1-1.2,0.1c-2,0.3-3.8,0.7-5.2,1.3c-1.4,0.7-3.1,1.4-4.8,2.4c-1.4,0.4-2.6,0.9-3.4,1.3c-0.8,0.4-1.4,0.8-2.2,1.2
	c-0.8,0.4-1.6,0.8-2.6,1.2c-1.4,0.9-2.4,1.8-2.6,3c-0.8,1-1.3,1.7-1.4,2c-1.3,0.7-2.1,1.4-2.6,2.4c-0.5,0.9-1,1.8-1.4,3l-2.2,3.9
	c0,0.3,0,0.4-0.1,0.7c-0.1,0.3-0.1,0.5-0.1,1c-0.3,1-0.4,2.2-0.5,3.4c-0.1,1.2-0.4,2.4-0.9,3.4v1c0.3,3.8-0.7,7.6-2.6,11.5
	c-0.5,0.9-0.8,2.4-0.8,4.3c0.5,1.6,0.4,2.9-0.4,3.9c-0.5,0.4-0.8,0.8-0.8,1c0,1.3-0.3,2.6-0.9,3.8c-0.7,1.2-0.8,2.6-0.5,4.2
	c0.3,0.4,0.3,0.8,0.1,1c-0.1,0.3-0.1,0.5-0.1,1c-0.3,0.3-0.4,0.5-0.4,1c0.5,2.6,0,4.7-1.4,6.3v1c0.5,2.5,0.5,4.7,0.1,6.8
	c-0.4,2.1-0.7,4.3-0.9,6.8c-0.3,1-0.5,2.2-0.8,3.4c-0.3,1.2-0.1,2.4,0.4,3.4c0.3,0.4,0.3,0.8,0.1,1c-0.1,0.3-0.1,0.5-0.1,1
	c-0.3,2.2-0.4,4.3-0.5,6.4c-0.1,2.1-0.1,4.2-0.1,6.4c0,1,0.1,2,0.4,2.6c0,1,0.1,2.2,0.4,3.3c0.3,1,0.4,2.2,0.4,3.3
	c0,0.9-0.1,1.4-0.4,1.7c-0.8,1-1,2-0.8,2.6c0.5,1,0.4,2-0.4,2.6c-0.5,0.9-0.5,1.7,0,2.4c0.5,1.8,1,3.1,1.4,3.9c0,0.7,0.3,1.7,0.8,3
	c0,1,0,2.1,0,3.1c0,1,0.1,2.1,0.4,3.1c0,0.4,0,0.9,0.1,1.4c0.1,0.5,0.1,1.2,0.1,1.8c0.3,0.9,0.3,1.8,0.1,2.6
	c-0.1,0.9-0.8,1.7-2.1,2.4c-0.3,0.3-0.4,0.5-0.5,1c-0.1,0.4-0.3,0.9-0.5,1.3c-0.5,2.6,0,4.7,1.4,6.3c1,1.3,1.2,2.6,0.4,3.9
	c-0.8,0.9-0.9,2-0.4,3.3c0.3,1,0.4,2.1,0.5,3c0.1,0.9,0.3,1.7,0.5,2.6c0.3,0.7,0.4,1.6,0.4,2.6c-0.5,1.6-0.1,2.6,1.2,3.3
	c0.8,0.4,1.4,1,2.1,1.7c0.7,0.7,1.3,1.2,2.1,1.7c0.3,0.4,0.5,0.8,0.8,1c0.3,0.3,0.5,0.5,0.8,1c0.3,0,0.4,0.1,0.4,0.4
	c1.7,1.6,2.7,3.1,3,5c0,0.4,0.5,1,1.4,2c2.2,2,4.4,3.9,6.5,5.9s4.1,4.2,5.8,6.5c0,0.3,0,0.4,0.1,0.4c0.1,0,0.1,0.1,0.1,0.4
	c1.3,0.7,2.4,1.4,3.4,2.4c1,0.9,2,1.8,3,3c1,0.9,2.1,1.4,3.1,1.8c1.2,0.4,2.4,0.7,3.5,1.2c0.5,0.4,1,0.7,1.4,0.8
	c0.5,0.1,1,0.4,1.4,0.8c2,1,3.9,1.8,6,2c1.4,0,2.9,0.3,4.3,0.7c1.4,0.4,2.7,0.8,4.3,1c1.4,0.4,2.9,0.7,4.1,0.7c1.7,0,8.9,0,8.9,0
	s3.8-0.9,5.9-1.3c1.8-0.3,3.7-0.3,5.4-0.1c1.7,0.1,3.5,0.1,5.4,0.1c6.3-0.3,12.4-1.7,18.4-4.3c1-0.4,2.1-0.9,3-1.3
	c0.9-0.4,2-0.9,3-1.3C373.4,496,373.9,495.6,374.7,494.9z M310.6,341.2c0.3-0.4,0.4-1.2,0.4-2.4c0-2.6,0.9-5.5,2.7-8.5
	c0.5-0.7,1.2-1.3,1.8-2.1c0.7-0.8,1.3-1.4,1.8-2.1c1-1.3,2.1-2.5,3.1-3.7c1-1,2.2-2.2,3.5-3.3c1.3-0.7,2.4-1.4,3.1-2.4
	c0.8-0.9,1.7-1.8,2.7-3c0.8-0.7,1.6-1.3,2.2-2.1c0.7-0.8,1.4-1.4,2.2-2.1c1.6-0.9,2.7-0.9,3.5,0c1,1,2,2.4,2.7,3.7
	c0.8,1.3,1.3,2.9,1.6,4.6c0,1.7,0.5,3.4,1.6,5c0.5,0.9,1,1.7,1.6,2.5c0.5,0.8,0.8,1.7,0.8,2.7c0.3,0.9,0.7,2.4,1.2,4.6
	c0.3,1,0.5,2.2,0.7,3.3c0.1,1,0.4,2.2,0.7,3.3c0,0.3,0.1,0.4,0.3,0.5c0.1,0.1,0.1,0.3,0.1,0.5c0.8,1.7,1.4,3.4,1.8,5.1
	c0.4,1.7,0.9,3.4,1.4,5.1c0.5,2.2,1,3.8,1.6,5c0.3,1,0.5,2.2,0.8,3.4c0.3,1.2,0.7,2.5,1.2,3.8c0.5,1.6,0.9,3,1,4.4s0.5,2.9,1,4.4
	c0.3,1.3,0.5,2.6,0.8,3.9c0.3,1.3,0.5,2.6,0.8,3.9l1.2,7.8c0,1.3,0.3,2.6,0.7,3.9c0.4,1.3,0.4,2.6-0.3,3.9c-0.5,1-0.8,2.2-1,3.3
	c-0.1,1-0.3,2.2-0.7,3.3c0,1.3-0.1,2.4-0.4,3c-0.5,1.3-0.9,2.7-1.2,4.3c-0.3,1.6-0.7,3-1.2,4.3c-0.3,0.4-0.4,1-0.4,1.7
	c-0.3,1.7-0.4,3.5-0.7,5.2c-0.1,1.7-0.4,3.5-1,5.2c-0.3,1.3-0.3,2.6,0,3.8c0.3,1.2,0.3,2.5,0,3.8c-0.3,0.7-0.3,1.3-0.3,1.8
	c0.1,0.5,0,1.2-0.7,1.8c-0.5,0.3-0.8,0.9-0.8,2c0.5,1.7,0.5,3.4-0.3,5.1c-0.7,1.7-1.2,3.4-1.8,5.1c-1,3.8-2.9,7.8-5.5,12.2
	c-1.3,2.4-2.7,4.8-4.3,7.5c-1.6,2.5-3.7,4.8-6.3,6.8c-2.1,2-4.4,2.5-7.1,1.7c-1.8-0.7-3.4-1.6-4.7-2.6c-1.3-0.9-2.4-1.7-3.4-2.6
	c-0.9-0.9-2-1.7-3-2.6c-2.6-1.7-4.3-4.3-5.1-7.6c0-0.4,0-0.8-0.1-1.2s-0.3-0.7-0.3-1.2c-0.5-2-1-3.9-1.6-5.8c-0.5-1.8-1-3.8-1.6-5.8
	c-0.5-2.2-0.8-3.8-0.8-4.6c-0.3-1-0.5-2.2-0.8-3.3c-0.3-1-0.4-2.2-0.4-3.3c-0.3-1.3-0.5-4.1-0.5-4.1v-4.1c0,0-0.7-4.7-0.8-6.8
	c-0.1-2.1-0.4-4.2-1-6.4c-0.5-1.7-0.8-3.4-0.7-5c0.1-1.6,0.3-3,0.3-4.6c0.3-5.5-0.4-16.5-0.4-16.5v-8.9c0,0,0.9-3.9,1-5.8
	c0.1-1.8,0.3-5.5,0.3-5.5V366c0,0,0.4-2.1,0.7-3.1c0-1,0.1-2.1,0.3-3c0.1-0.9,0.4-1.8,0.7-3l0.4-0.7c0.5-1.6,1.2-3,1.8-4.3
	c0.7-1.3,1.3-2.7,1.8-4.3c0.5-0.9,0.8-2.2,0.8-3.9C310.5,343.3,310.6,342.6,310.6,341.2z"/>
<path class="st1" d="M458.8,494.4c0.8-0.5,1.3-0.5,1.6-0.1c0.3,0.4,0.7,0.7,1.2,0.9c0.8,0.7,1.7,0.8,2.7,0.4c0-0.5-0.1-0.8-0.4-1
	c-1.6-1.2-3-2.5-4.4-3.8c-1.4-1.4-3-2.6-4.8-3.8c-0.8-0.5-1.4-1-2.1-1.7c-0.7-0.7-1.3-1.4-2.1-2.1l-2.7-2.5l-1.6,1.4
	c-1.3-0.3-2.2-1-2.7-2.2c-0.5-1.3-0.4-2.5,0.4-3.7c0.8,0.3,1.4,0.7,2,1.2c0.5,0.5,1.3,0.7,2.4,0.1c0.3-0.9-0.1-1.8-1.2-2.7
	c-0.8-0.7-1.4-1.4-2.1-2.1c-0.7-0.7-1.3-1.4-2.1-2.1c-0.8-0.7-1.3-1-1.6-1c-0.3,0-1,0.3-2.4,0.7c-1-1.2-1.8-2.2-2.4-3.1
	c-0.5-0.9-1.2-2-2-3.1c-0.5-1.2-1.2-2.2-2-3.3c-0.8-1-1.6-2.1-2.4-3.3c1.3-1.6,0.9-3.4-1.2-5.2c-0.8-0.3-0.9-0.8-0.4-1.7
	c0.5-0.5,0.8-1,0.9-1.7c0.1-0.7,0.4-1.3,0.9-1.7c-0.3-0.7-0.8-1.2-1.6-1.4c0-0.3,0.1-0.5,0.4-0.7c0.8-0.9,0.9-2,0.4-3.1
	c-0.3-0.3-0.5-0.5-0.8-0.9c-0.3-0.4-0.5-0.5-0.8-0.5c-1.3-0.5-2.1-1-2.5-2c-0.4-0.8-0.8-1.7-1.3-2.6c0-0.5,0-0.8,0.1-1
	c0.1-0.3,0-0.5-0.1-1c-0.8-1.2-1-2.4-0.9-3.7c0.1-1.3,0.3-2.6,0.9-4.1v-1c-0.7-1.2,0-3.8,0-3.8v-3.8c0,0-0.7-1.4-0.4-2.1
	c0.3-0.7,0.5-1.4,0.8-2.1c0.3-0.7,0.4-1.6,0.4-2.7c-0.3-1.2-0.4-2.1-0.8-3v-3.5c0.9-2.6,1.2-5.2,1.3-7.8c0.1-2.6,0.4-5.4,0.9-7.8
	c0-0.7,0.3-1.7,0.8-3.1c0-0.5,0.1-0.9,0.4-1.4c0-0.9,0.3-2.6,0.8-4.8c0.3-0.5,0.4-0.9,0.4-1.4s0.1-0.9,0.4-1.4
	c0-0.3-0.1-0.4-0.1-0.5c-0.1-0.1-0.1-0.4,0.1-0.9c0.3-1.4,0.5-2.9,0.8-4.3c0.3-1.6,0.7-3.1,1.2-4.7c0.3-0.9,0.5-1.8,0.8-2.6
	c0.3-0.8,0.3-1.8,0-3c0-0.7,0.1-1.4,0.4-2.2c0.3-0.8,0.5-1.6,0.8-2.2c0.3-1.2,0.4-2.4,0.5-3.7c0.1-1.3,0.4-2.5,0.9-3.7l1.2-3.1
	c0.5-1.2,0.8-2.2,0.9-3.3s0.5-2.1,1.3-3.3c0.3-0.5,0.3-1,0.1-1.6c-0.1-0.5-0.1-1,0.1-1.6c0.5-1.2,0.9-2.2,1.2-3.1
	c0.3-0.9,0.7-1.8,1.2-2.7c0-0.5,0.5-1.2,1.6-2.1c1-1.4,1.4-2.6,1.2-3.5c0-0.7,0.1-1.2,0.4-1.4c1-1.6,2-3.3,2.7-5.1
	c0.8-1.7,2-3.3,3.5-4.7c0.3-0.3,0.4-0.5,0.4-1c0.3-0.5,0.4-0.9,0.4-1.2c0-0.4,0.1-0.7,0.4-0.9c0.5-0.7,1-1.3,1.7-2
	c0.7-0.5,0.8-1.3,0.5-2.2c1.6-1.4,2.7-2.6,3.5-3.5c-0.8-0.9-0.9-1.8-0.4-2.6c0.5-0.8,1-1.6,1.6-2.2c1.3-1.6,2.6-3.1,4.1-4.7
	c1.4-1.6,2.7-3.1,4.1-4.7c1-1.2,2-2.2,2.7-3.1c0.8-0.9,1.7-2,2.7-3.1c1.3-1.8,3.1-3.5,5.4-4.8c0.3,0,0.4-0.1,0.4-0.4
	c0.8-1.6,2.6-2.5,5.4-2.5c0.5,0,1,0,1.6-0.1c0.5-0.1,1-0.1,1.6-0.1c4.7-0.7,8.6,0.1,12,2.5c2.4,1.4,8.1,1.6,8.1,1.6h3
	c3,0,6,0,9.2,0.1c3.1,0.1,6,0.7,8.8,1.6c0.5,0,0.9,0,1.2,0.1c0.3,0.1,0.7,0.1,1.2,0.1c2,0.3,3.8,0.7,5.2,1.4
	c1.4,0.7,3.1,1.6,4.8,2.5c1.4,0.5,2.6,0.9,3.4,1.4c0.8,0.5,1.4,0.9,2.2,1.2c0.8,0.3,1.6,0.8,2.6,1.2c1.4,0.9,2.4,2,2.6,3.1
	c0.8,1.2,1.3,1.8,1.4,2.1c1.3,0.7,2.1,1.6,2.6,2.5c0.5,0.9,1,2,1.4,3.1l2.2,4.2c0,0.3,0,0.5,0.1,0.7c0.1,0.3,0.1,0.5,0.1,1
	c0.3,1.2,0.4,2.4,0.5,3.7c0.1,1.3,0.4,2.5,0.9,3.7v1c-0.3,3.9,0.7,8.1,2.6,12.3c0.5,0.9,0.8,2.5,0.8,4.6c-0.5,1.7-0.4,3,0.4,4.2
	c0.5,0.5,0.8,0.8,0.8,1c0,1.4,0.3,2.7,0.9,4.1c0.7,1.3,0.8,2.7,0.5,4.3c-0.3,0.5-0.3,0.8-0.1,1c0.1,0.3,0.1,0.5,0.1,1
	c0.3,0.3,0.4,0.5,0.4,1c-0.5,2.7,0,5,1.4,6.7v1c-0.5,2.6-0.5,5-0.1,7.2c0.4,2.2,0.7,4.6,0.9,7.2c0.3,1.2,0.5,2.4,0.8,3.7
	c0.3,1.3,0.1,2.5-0.4,3.7c-0.3,0.5-0.3,0.8-0.1,1c0.1,0.3,0.1,0.5,0.1,1c0.3,2.4,0.4,4.6,0.5,6.8c0.1,2.2,0.1,4.4,0.1,6.8
	c0,1.2-0.1,2.1-0.4,2.7c0,1.2-0.1,2.4-0.4,3.5c-0.3,1.2-0.4,2.4-0.4,3.5c0,0.9,0.1,1.6,0.4,1.7c0.8,1.2,1,2.1,0.8,2.7
	c-0.5,1.2-0.4,2.1,0.4,2.7c0.5,0.9,0.5,1.7,0,2.5c-0.5,1.8-1,3.3-1.4,4.2c0,0.7-0.3,1.7-0.8,3.1c0,1.2,0,2.2,0,3.3s-0.1,2.2-0.4,3.3
	c0,0.5,0,1-0.1,1.6c-0.1,0.5-0.1,1.2-0.1,2c-0.3,0.9-0.3,1.8-0.1,2.7s0.8,1.7,2.1,2.5c0.3,0.3,0.4,0.5,0.5,1
	c0.1,0.5,0.3,0.9,0.5,1.4c0.5,2.7,0,5-1.4,6.7c-1,1.4-1.2,2.7-0.4,4.2c0.8,0.9,0.9,2.1,0.4,3.5c-0.3,1.2-0.4,2.2-0.5,3.1
	c-0.1,0.9-0.3,1.8-0.5,2.7c-0.3,0.7-0.4,1.6-0.4,2.7c0.5,1.6,0.1,2.7-1.2,3.5c-0.8,0.5-1.4,1-2.1,1.7c-0.7,0.7-1.3,1.3-2.1,1.7
	c-0.3,0.5-0.5,0.8-0.8,1c-0.3,0.3-0.5,0.5-0.8,1c-0.3,0-0.4,0.1-0.4,0.4c-1.7,1.6-2.7,3.4-3,5.2c0,0.5-0.5,1.2-1.4,2.1
	c-2.2,2.1-4.4,4.2-6.5,6.3c-2.1,2.1-4.1,4.4-5.8,7.1c0,0.3,0,0.4-0.1,0.4s-0.1,0.1-0.1,0.4c-1.3,0.7-2.4,1.6-3.4,2.5
	c-1,0.9-2,2-3,3.1c-1,0.9-2.1,1.6-3.1,2c-1.2,0.4-2.4,0.8-3.5,1.2c-0.5,0.5-1,0.8-1.4,0.9c-0.5,0.1-1,0.4-1.4,0.9
	c-2,1.2-3.9,1.8-6,2.1c-1.4,0-2.9,0.3-4.3,0.7c-1.4,0.5-2.7,0.8-4.3,1c-1.4,0.5-2.9,0.7-4.1,0.7c-1.7,0-7.7,0-7.7,0
	s-3.8-0.9-5.8-1.3c-1.8-0.3-3.5-0.3-5.2-0.1c-1.7,0.1-3.4,0.1-5.2,0.1c-6.1-0.3-12.3-1.7-18.2-4.6c-1-0.5-2-0.9-2.9-1.4
	s-1.8-0.9-2.9-1.4C460.1,495.4,459.6,495.2,458.8,494.4z M522,331c-0.3-0.5-0.4-1.3-0.4-2.5c0-2.7-0.9-5.9-2.7-9.2
	c-0.5-0.7-1-1.4-1.7-2.2c-0.7-0.8-1.2-1.6-1.7-2.2c-1-1.4-2.1-2.6-3.1-3.8s-2.2-2.4-3.5-3.5c-1.3-0.7-2.4-1.6-3.1-2.5
	c-0.8-0.9-1.7-2-2.7-3.1c-0.8-0.7-1.4,9-2.1,8.2c-0.7-0.8-1.3-1.6-2.1-2.2c-1.6-0.9-2.7-0.9-3.5,0c-1,1.2-2,2.5-2.7,3.8
	c-0.8,1.4-1.3,3-1.6,4.8c0,1.8-0.5,3.7-1.6,5.2c-0.5,0.9-1,1.8-1.6,2.6c-0.5,0.8-0.8,1.8-0.8,3c-0.3,0.9-0.7,2.6-1.2,4.8
	c-0.3,1.2-0.4,2.4-0.5,3.5c-0.1,1.2-0.3,2.4-0.5,3.5c0,0.3-0.1,0.4-0.1,0.5c-0.1,0.1-0.1,0.3-0.1,0.5c-0.8,1.8-1.3-6.8-1.7-5.1
	c-0.4,1.7-0.8,3.5-1.3,5.4c-0.5,2.4-1,4.1-1.6,5.2c-0.3,1.2-0.5,2.4-0.8,3.7c-0.3,1.3-0.7,2.6-1.2,4.1c-0.5,1.7-0.8,3.3-0.9,4.7
	c-0.1,1.6-0.4,3.1-0.9,4.7c-0.3,1.4-0.5,2.7-0.8,4.2c-0.3,1.4-0.5,2.7-0.8,4.2l-1.2,8.4c0,1.4-0.1,2.7-0.5,4.2s-0.3,2.7,0.1,4.2
	c0.5,1.2,0.8,2.4,0.9,3.5s0.3,2.4,0.5,3.5c0,1.4,0.1,2.5,0.4,3.1c0.5,1.4,0.9,2.9,1.2,4.6c0.3,1.6,0.7,3.1,1.2,4.6
	c0.3,0.5,0.4,1,0.4,1.7c0.3,1.8,0.4,3.8,0.5,5.6c0.1,1.8,0.4,3.8,0.9,5.6c0.3,1.4,0.3,2.7,0,4.1c-0.3,1.3-0.3,2.6,0,4.1
	c0.3,0.7,0.3,1.3,0.1,2c-0.1,0.5,0,1.2,0.5,2c0.5,0.3,0.8,0.9,0.8,2.1c-0.5,1.8-0.4,3.7,0.1,5.4c0.7,1.7,1.2,3.5,1.7,5.4
	c1,3.9,2.9,8.2,5.4,12.9c1.3,2.6,2.7,5.2,4.3,7.8c1.6,2.7,3.7,5.1,6.1,7.2c2.1,2.1,4.4,2.7,6.9,1.7c1.8-0.7,3.4-1.6,4.7-2.7
	c1.3-0.9,2.4-1.8,3.3-2.7c0.9-0.9,1.8-1.8,2.9-2.7c2.6-1.8,4.3-4.6,5.1-8.1c0-0.5,0-0.9,0.1-1.2c0.1-0.4,0.1-0.8,0.1-1.2
	c0.5-2.1,1-4.2,1.6-6.1s1-4.1,1.6-6.1c0.5-2.4,0.8-3.9,0.8-4.8c0.3-1.2,0.5-2.4,0.8-3.5c0.3-1.2,0.4-2.4,0.4-3.5
	c0.3-1.4-0.3-4.3-0.3-4.3s0-1.7,0-3.1c0.5-2.7,0.9-5.2,1-7.6c0.1-2.4,3.3-4.7,3.8-7.2c0.5-2,0.8-3.8,0.7-5.5
	c-0.1-1.7-0.3-3.4-0.3-5.2c-0.3-6.1-0.3-12.3,0-18.6V373c-0.3-2.2-3.1-4.3-3.3-6.4s-0.4-4.1-0.7-6c0-1.2,0-3.1,0-3.1
	s0.4-2.1,0.1-3.3c0-1.2-0.1-2.2-0.1-3.1c-0.1-0.9-0.3-2-0.5-3.1l-0.4-0.7c-0.5-1.6-1-3.1-1.7-4.6c-0.7-1.4-1.2-2.9-1.7-4.6
	c-0.5-0.9-0.8-2.4-0.8-4.2C522.1,333.4,522,332.5,522,331z"/>
<g>
	<path class="st2" d="M651.1,275.2c3.5-4,28.1-107.4,75.5-105.7c47.4,1.6,54.6,73.9,69.3,87.2c14.8,13.4,134.1,43.1,155.5,54.1
		S900.3,418,714.5,423.3s-223.8-56.2-223.8-61C490.7,357.5,647.4,279.5,651.1,275.2z"/>
	<path class="st3" d="M702.5,226.1c0,0,3.8,17.1,6.6,20.4c2.8,3.5,14.8-17.2,15.8-17.8c1-0.6-3.5-11.4-10-11.1
		C708.3,217.9,702.8,223.5,702.5,226.1z"/>
	<path class="st4" d="M743.3,217.3c2.1-0.5,3.7,3.1,2.8,4.5c-1.2,1.8-4,3.3-4.9,2.3C740.5,223.5,738.3,218.4,743.3,217.3z"/>
	<path class="st4" d="M686.5,224.2c1.4,0.9,3.7-3.8,3.9-5.3c0.2-1.5-1.8-2.1-3.2-1C685.9,219.2,683.3,222.1,686.5,224.2z"/>
	<path class="st5" d="M732.6,210.2c5,2.9,15.3,0.7,16.5-3.7c1.2-4.5-10.7-8.6-16.5-4C726.8,207.2,730.8,209.1,732.6,210.2z"/>
	<path class="st5" d="M691.2,204.3c4.9-3.2,8.3-1.6,8.1,0.9c-0.2,2.6-4.5,8.3-8.9,5.6C685.9,208.2,687.8,206.6,691.2,204.3z"/>
	<path class="st3" d="M694,202.5"/>
	<path class="st5" d="M778.8,278.7c-2.7,14.9-36.4,28.4-67.6,20.5s-41.2-18.2-40.1-30.3c1.2-12,22.5-0.9,38.5-0.6
		C725.6,268.6,783.1,255,778.8,278.7z"/>
	<path class="st2" d="M652.1,415.6c1.3,10.2,28.9,31.3,62.7,30.2c33.7-1.1,61.4-19.1,63.7-35.3C780.7,394.3,650,399.3,652.1,415.6z"
		/>
	<path class="st2" d="M674.2,412.6c0,0,1.2,36.1,6.9,39c5.9,2.9,9.5-42.4,6.6-43.8S674.2,412.6,674.2,412.6z"/>
	<path class="st2" d="M736.9,418.6c0,0,11.5-3.1,12.9-3.1c1.4,0,8.2,35.6,5.2,44.1C752,468,736.9,418.6,736.9,418.6z"/>
	<path class="st6" d="M702.7,182.4c0,0-56.2-40.7-123.1-21.9"/>
	<path class="st6" d="M719.3,179.2c0,0-19.9-29.5-74.5-9.6"/>
	<path class="st6" d="M737,185c23.6-31.1,72.8-36.4,97.5-32.7"/>
	<path class="st6" d="M728.2,176.5c0,0,29.9-33.7,62.4-19.3"/>
	<path class="st2" d="M679.8,443.7c0,0,0.3,47.4-2.2,49.2c-25.9-2.9-19.4,2.6-19.4,2.6h27.4c0,0-3.4-1.8-4-6.6
		c-0.7-4.8,1.9-47.1,1.9-47.1L679.8,443.7z"/>
	<path class="st2" d="M750.6,446.2c0,0,9.2,50.1,5.9,50.1c-3.3,0,23,0.9,23.3,0c-5.4-5-19.8,1.3-20.1-4.5
		c-0.3-5.9-6.2-45.5-6.2-45.5H750.6z"/>
	<path class="st2" d="M568.4,162.7c0,0,8.2,4.1,12.3,2.4c4-1.7,7.7-6.8,7.7-6.8S577.7,152.1,568.4,162.7z"/>
	<path class="st2" d="M638.3,170.9c0,0,2.6-4,6.1-4.4s6.7,0.9,6.7,0.9S649.1,173.9,638.3,170.9z"/>
	<path class="st2" d="M792.5,159.7c0,0-6.4,1.9-8.8-4.9C788,150.1,794.7,156.9,792.5,159.7z"/>
	<path class="st2" d="M844.8,155.5c0,0-6.2-6.9-13.4-3.5C831.5,152,831.4,157.3,844.8,155.5z"/>
	<path class="st3" d="M740.8,219.7c0,0,1.6-2,2.9-2c2-0.1,0.7,1,0.7,1L740.8,219.7z"/>
	<path class="st3" d="M686.2,220.3c0.6-1.4,2.2-3.4,2.9-2.4C689.8,218.9,686.2,220.3,686.2,220.3z"/>
</g>
<g>
	<path class="st1" d="M119.9,491.4c-1.7,4.8-3.4,7.1-5.9,9.1c-3.1,2.5-6.2,2.5-10.5,2.5c-3.1,0-9.3-2.5-14.2-9.9
		c-1.7-2.5-2.3-5.1-2.3-6.5c0-2,1.1-4.5,2.3-5.7c2-2,3.4-4.8,3.7-7.6c0.3-2.8,1.4-5.4,2.8-7.1c1.7-2,4.5-2.3,9.3-2.3
		c6.2,0,12.5,4.5,14.7,8.8c2,3.7,2.3,5.7,2.3,7.6C122.1,482.6,120.7,488.8,119.9,491.4z"/>
</g>
</svg>
