<?xml version="1.0" encoding="utf-8"?>
<!-- Generator: Adobe Illustrator 21.0.1, SVG Export Plug-In . SVG Version: 6.00 Build 0)  -->
<svg version="1.1" id="Calque_1" xmlns="http://www.w3.org/2000/svg" xmlns:xlink="http://www.w3.org/1999/xlink" x="0px" y="0px"
	 viewBox="0 0 70 70" style="enable-background:new 0 0 70 70;" xml:space="preserve">
<style type="text/css">
	.st0{fill:#FFFFFF;}
</style>
<path class="st0" d="M58.1,19.7c-0.6-0.4-1.4-0.4-2-0.1l-11.8,5.5v-3.6c0-0.7-0.4-1.4-1-1.8s-1.4-0.4-2-0.1l-26,12.1V21.5
	c0-1.2-0.9-2.1-2.1-2.1s-2.1,0.9-2.1,2.1v13C11,34.6,11,34.8,11,35s0,0.4,0.1,0.6v13c0,1.2,0.9,2.1,2.1,2.1s2.1-0.9,2.1-2.1V38.3
	l26,12.1c0.3,0.1,0.6,0.2,0.9,0.2c0.4,0,0.8-0.1,1.1-0.3c0.6-0.4,1-1.1,1-1.8v-3.6l11.8,5.5c0.3,0.1,0.6,0.2,0.9,0.2
	c0.4,0,0.8-0.1,1.1-0.3c0.6-0.4,1-1.1,1-1.8v-27C59,20.7,58.7,20.1,58.1,19.7z M40,45.3L18,35l22-10.3V45.3z M54.8,45.3l-10.6-4.9
	V29.7l10.6-4.9C54.8,24.8,54.8,45.3,54.8,45.3z"/>
</svg>
