<?xml version="1.0" encoding="utf-8"?>
<!-- Generator: Adobe Illustrator 21.0.1, SVG Export Plug-In . SVG Version: 6.00 Build 0)  -->
<svg version="1.1" id="Calque_1" xmlns="http://www.w3.org/2000/svg" xmlns:xlink="http://www.w3.org/1999/xlink" x="0px" y="0px"
	 viewBox="0 0 70 70" style="enable-background:new 0 0 70 70;" xml:space="preserve">
<style type="text/css">
	.st0{fill:#FFFFFF;}
</style>
<g>
	<path class="st0" d="M37.2,58.6c-0.4,0-0.7-0.1-1-0.3L17.4,47.5h-6.5c-3.6,0-6.6-3-6.6-6.6V29c0-3.6,3-6.6,6.6-6.6h6.5l18.8-10.8
		c0.3-0.2,0.7-0.3,1-0.3c3.6,0,6.6,3,6.6,6.6v34C43.8,55.6,40.8,58.6,37.2,58.6z M10.8,26.6c-1.3,0-2.4,1.1-2.4,2.4v12
		c0,1.3,1.1,2.4,2.4,2.4h7.1c0.4,0,0.7,0.1,1,0.3l18.7,10.7c1.1-0.2,1.9-1.2,1.9-2.3V18c0-1.2-0.8-2.1-1.9-2.3L19,26.4
		c-0.3,0.2-0.7,0.3-1,0.3L10.8,26.6L10.8,26.6z"/>
</g>
</svg>
