<?xml version="1.0" encoding="utf-8"?>
<!-- Generator: Adobe Illustrator 21.0.1, SVG Export Plug-In . SVG Version: 6.00 Build 0)  -->
<svg version="1.1" id="Calque_1" xmlns="http://www.w3.org/2000/svg" xmlns:xlink="http://www.w3.org/1999/xlink" x="0px" y="0px"
	 viewBox="0 0 70 70" style="enable-background:new 0 0 70 70;" xml:space="preserve">
<style type="text/css">
	.st0{fill:#FFFFFF;}
</style>
<g>
	<g>
		<path class="st0" d="M36.8,58.6c-0.4,0-0.7-0.1-1-0.3L17,47.5h-6.5c-3.6,0-6.6-3-6.6-6.6V29c0-3.6,3-6.6,6.6-6.6H17l18.8-10.8
			c0.3-0.2,0.7-0.3,1-0.3c3.6,0,6.6,3,6.6,6.6v34C43.4,55.6,40.5,58.6,36.8,58.6z M10.5,26.6c-1.3,0-2.4,1.1-2.4,2.4v12
			c0,1.3,1.1,2.4,2.4,2.4h7.1c0.4,0,0.7,0.1,1,0.3l18.7,10.7c1.1-0.2,1.9-1.2,1.9-2.3V18c0-1.2-0.8-2.1-1.9-2.3L18.6,26.4
			c-0.3,0.2-0.7,0.3-1,0.3L10.5,26.6L10.5,26.6z"/>
	</g>
	<g>
		<path class="st0" d="M50.6,48.1c-0.4,0-0.8-0.1-1.2-0.4c-1-0.6-1.2-2-0.6-2.9c2-2.9,3-6.3,3-9.8c0-3.6-1.1-7.1-3.2-10.1
			C48,24,48.2,22.7,49.2,22c0.9-0.7,2.3-0.4,2.9,0.5c2.6,3.7,3.9,8,3.9,12.5c0,4.4-1.3,8.6-3.7,12.2C51.9,47.8,51.2,48.1,50.6,48.1z
			"/>
	</g>
	<g>
		<path class="st0" d="M59.6,52.6c-0.4,0-0.7-0.1-1.1-0.3c-1-0.6-1.3-1.9-0.7-2.9c2.6-4.3,4-9.3,4-14.4s-1.4-10.1-4-14.4
			c-0.6-1-0.3-2.3,0.7-2.9s2.3-0.3,2.9,0.7c3,5,4.6,10.7,4.6,16.6s-1.6,11.6-4.6,16.6C61,52.2,60.4,52.6,59.6,52.6z"/>
	</g>
</g>
</svg>
