<?xml version="1.0" encoding="utf-8"?>
<!-- Generator: Adobe Illustrator 21.0.2, SVG Export Plug-In . SVG Version: 6.00 Build 0)  -->
<svg version="1.1"
	 id="Calque_1" xmlns:cc="http://creativecommons.org/ns#" xmlns:dc="http://purl.org/dc/elements/1.1/" xmlns:inkscape="http://www.inkscape.org/namespaces/inkscape" xmlns:rdf="http://www.w3.org/1999/02/22-rdf-syntax-ns#" xmlns:sodipodi="http://sodipodi.sourceforge.net/DTD/sodipodi-0.dtd" xmlns:svg="http://www.w3.org/2000/svg"
	 xmlns="http://www.w3.org/2000/svg" xmlns:xlink="http://www.w3.org/1999/xlink" x="0px" y="0px" viewBox="0 0 20 20"
	 style="enable-background:new 0 0 20 20;" xml:space="preserve">
<style type="text/css">
	.st0{fill:#0A68EF;}
</style>
<path class="st0" d="M5.5,13c-1.7,0-3-1.4-3-3s1.4-3,3-3s3,1.4,3,3S7.1,13,5.5,13z M5.5,8.5C4.6,8.5,4,9.2,4,10s0.7,1.5,1.5,1.5
	S7,10.8,7,10S6.3,8.5,5.5,8.5z"/>
<path class="st0" d="M14.5,8.5c-1.7,0-3-1.4-3-3s1.4-3,3-3c1.7,0,3,1.4,3,3S16.2,8.5,14.5,8.5z M14.5,4C13.7,4,13,4.6,13,5.5
	S13.7,7,14.5,7C15.4,7,16,6.3,16,5.5S15.4,4,14.5,4z"/>
<path class="st0" d="M14.5,17.6c-1.7,0-3-1.4-3-3c0-1.7,1.4-3,3-3c1.7,0,3,1.4,3,3C17.6,16.2,16.2,17.6,14.5,17.6z M14.5,13
	c-0.8,0-1.5,0.7-1.5,1.5c0,0.8,0.7,1.5,1.5,1.5c0.8,0,1.5-0.7,1.5-1.5C16,13.7,15.4,13,14.5,13z"/>
<rect x="7.2" y="7" transform="matrix(0.8927 -0.4507 0.4507 0.8927 -2.4088 5.3444)" class="st0" width="5.6" height="1.5"/>
<rect x="9.2" y="9.4" transform="matrix(0.4499 -0.8931 0.8931 0.4499 -5.4678 15.6635)" class="st0" width="1.5" height="5.8"/>
</svg>
